<?xml version="1.0" encoding="UTF-8" standalone="no"?><svg xmlns="http://www.w3.org/2000/svg" xmlns:xlink="http://www.w3.org/1999/xlink" contentScriptType="application/ecmascript" contentStyleType="text/css" height="211px" preserveAspectRatio="none" style="width:541px;height:211px;" version="1.1" viewBox="0 0 541 211" width="541px" zoomAndPan="magnify"><defs><filter height="300%" id="f1x4eok7zqgncx" width="300%" x="-1" y="-1"><feGaussianBlur result="blurOut" stdDeviation="2.0"/><feColorMatrix in="blurOut" result="blurOut2" type="matrix" values="0 0 0 0 0 0 0 0 0 0 0 0 0 0 0 0 0 0 .4 0"/><feOffset dx="4.0" dy="4.0" in="blurOut2" result="blurOut3"/><feBlend in="SourceGraphic" in2="blurOut3" mode="normal"/></filter></defs><g><!--MD5=[60d6b92408f98aed8df94d5c6e04aa63]
class State--><rect fill="#FEFECE" filter="url(#f1x4eok7zqgncx)" height="60.8047" id="State" style="stroke: #A80036; stroke-width: 1.5;" width="186" x="116" y="12.5"/><ellipse cx="187.75" cy="28.5" fill="#B4A7E5" rx="11" ry="11" style="stroke: #A80036; stroke-width: 1.0;"/><path d="M183.6719,24.2656 L183.6719,22.1094 L191.0625,22.1094 L191.0625,24.2656 L188.5938,24.2656 L188.5938,32.3438 L191.0625,32.3438 L191.0625,34.5 L183.6719,34.5 L183.6719,32.3438 L186.1406,32.3438 L186.1406,24.2656 L183.6719,24.2656 Z "/><text fill="#000000" font-family="sans-serif" font-size="12" font-style="italic" lengthAdjust="spacingAndGlyphs" textLength="34" x="208.25" y="32.6543">State</text><line style="stroke: #A80036; stroke-width: 1.5;" x1="117" x2="301" y1="44.5" y2="44.5"/><line style="stroke: #A80036; stroke-width: 1.5;" x1="117" x2="301" y1="52.5" y2="52.5"/><text fill="#000000" font-family="sans-serif" font-size="11" lengthAdjust="spacingAndGlyphs" textLength="174" x="122" y="66.7104">+handle(Context context): void</text><!--MD5=[68fc141bab48bc69bf9e480e7829a486]
class ConcreteState1--><rect fill="#FEFECE" filter="url(#f1x4eok7zqgncx)" height="60.8047" id="ConcreteState1" style="stroke: #A80036; stroke-width: 1.5;" width="186" x="6" y="140"/><ellipse cx="45.75" cy="156" fill="#ADD1B2" rx="11" ry="11" style="stroke: #A80036; stroke-width: 1.0;"/><path d="M48.7188,161.6406 Q48.1406,161.9375 47.5,162.0781 Q46.8594,162.2344 46.1563,162.2344 Q43.6563,162.2344 42.3281,160.5938 Q41.0156,158.9375 41.0156,155.8125 Q41.0156,152.6875 42.3281,151.0313 Q43.6563,149.375 46.1563,149.375 Q46.8594,149.375 47.5,149.5313 Q48.1563,149.6875 48.7188,149.9844 L48.7188,152.7031 Q48.0938,152.125 47.5,151.8594 Q46.9063,151.5781 46.2813,151.5781 Q44.9375,151.5781 44.25,152.6563 Q43.5625,153.7188 43.5625,155.8125 Q43.5625,157.9063 44.25,158.9844 Q44.9375,160.0469 46.2813,160.0469 Q46.9063,160.0469 47.5,159.7813 Q48.0938,159.5 48.7188,158.9219 L48.7188,161.6406 Z "/><text fill="#000000" font-family="sans-serif" font-size="12" lengthAdjust="spacingAndGlyphs" textLength="99" x="65.25" y="160.1543">ConcreteState1</text><line style="stroke: #A80036; stroke-width: 1.5;" x1="7" x2="191" y1="172" y2="172"/><line style="stroke: #A80036; stroke-width: 1.5;" x1="7" x2="191" y1="180" y2="180"/><text fill="#000000" font-family="sans-serif" font-size="11" lengthAdjust="spacingAndGlyphs" textLength="174" x="12" y="194.2104">+handle(Context context): void</text><!--MD5=[5923e108e64a54ae412506460569066c]
class ConcreteState2--><rect fill="#FEFECE" filter="url(#f1x4eok7zqgncx)" height="60.8047" id="ConcreteState2" style="stroke: #A80036; stroke-width: 1.5;" width="186" x="227" y="140"/><ellipse cx="266.75" cy="156" fill="#ADD1B2" rx="11" ry="11" style="stroke: #A80036; stroke-width: 1.0;"/><path d="M269.7188,161.6406 Q269.1406,161.9375 268.5,162.0781 Q267.8594,162.2344 267.1563,162.2344 Q264.6563,162.2344 263.3281,160.5938 Q262.0156,158.9375 262.0156,155.8125 Q262.0156,152.6875 263.3281,151.0313 Q264.6563,149.375 267.1563,149.375 Q267.8594,149.375 268.5,149.5313 Q269.1563,149.6875 269.7188,149.9844 L269.7188,152.7031 Q269.0938,152.125 268.5,151.8594 Q267.9063,151.5781 267.2813,151.5781 Q265.9375,151.5781 265.25,152.6563 Q264.5625,153.7188 264.5625,155.8125 Q264.5625,157.9063 265.25,158.9844 Q265.9375,160.0469 267.2813,160.0469 Q267.9063,160.0469 268.5,159.7813 Q269.0938,159.5 269.7188,158.9219 L269.7188,161.6406 Z "/><text fill="#000000" font-family="sans-serif" font-size="12" lengthAdjust="spacingAndGlyphs" textLength="99" x="286.25" y="160.1543">ConcreteState2</text><line style="stroke: #A80036; stroke-width: 1.5;" x1="228" x2="412" y1="172" y2="172"/><line style="stroke: #A80036; stroke-width: 1.5;" x1="228" x2="412" y1="180" y2="180"/><text fill="#000000" font-family="sans-serif" font-size="11" lengthAdjust="spacingAndGlyphs" textLength="174" x="233" y="194.2104">+handle(Context context): void</text><!--MD5=[6754354365917abf8f1a56af1b7e344c]
class Context--><rect fill="#FEFECE" filter="url(#f1x4eok7zqgncx)" height="73.6094" id="Context" style="stroke: #A80036; stroke-width: 1.5;" width="193" x="337.5" y="6"/><ellipse cx="405.75" cy="22" fill="#ADD1B2" rx="11" ry="11" style="stroke: #A80036; stroke-width: 1.0;"/><path d="M408.7188,27.6406 Q408.1406,27.9375 407.5,28.0781 Q406.8594,28.2344 406.1563,28.2344 Q403.6563,28.2344 402.3281,26.5938 Q401.0156,24.9375 401.0156,21.8125 Q401.0156,18.6875 402.3281,17.0313 Q403.6563,15.375 406.1563,15.375 Q406.8594,15.375 407.5,15.5313 Q408.1563,15.6875 408.7188,15.9844 L408.7188,18.7031 Q408.0938,18.125 407.5,17.8594 Q406.9063,17.5781 406.2813,17.5781 Q404.9375,17.5781 404.25,18.6563 Q403.5625,19.7188 403.5625,21.8125 Q403.5625,23.9063 404.25,24.9844 Q404.9375,26.0469 406.2813,26.0469 Q406.9063,26.0469 407.5,25.7813 Q408.0938,25.5 408.7188,24.9219 L408.7188,27.6406 Z "/><text fill="#000000" font-family="sans-serif" font-size="12" lengthAdjust="spacingAndGlyphs" textLength="48" x="426.25" y="26.1543">Context</text><line style="stroke: #A80036; stroke-width: 1.5;" x1="338.5" x2="529.5" y1="38" y2="38"/><text fill="#000000" font-family="sans-serif" font-size="11" lengthAdjust="spacingAndGlyphs" textLength="71" x="343.5" y="52.2104">-state: State</text><line style="stroke: #A80036; stroke-width: 1.5;" x1="338.5" x2="529.5" y1="58.8047" y2="58.8047"/><text fill="#000000" font-family="sans-serif" font-size="11" lengthAdjust="spacingAndGlyphs" textLength="181" x="343.5" y="73.0151">+handle() { state.handle(this) }</text><!--MD5=[2359d8b81d3f67ad40bc18e14733acc5]
reverse link State to ConcreteState1--><path d="M169.5426,88.7347 C154.9235,105.6796 138.7082,124.4745 125.514,139.7679 " fill="none" id="State&lt;-ConcreteState1" style="stroke: #A80036; stroke-width: 1.0; stroke-dasharray: 7.0,7.0;"/><polygon fill="none" points="164.2875,84.1099,182.6523,73.5394,174.8877,93.2552,164.2875,84.1099" style="stroke: #A80036; stroke-width: 1.0;"/><!--MD5=[aa39e630c1b15d6bdc7291d05d885b9d]
reverse link State to ConcreteState2--><path d="M248.8161,88.7347 C263.5681,105.6796 279.9308,124.4745 293.245,139.7679 " fill="none" id="State&lt;-ConcreteState2" style="stroke: #A80036; stroke-width: 1.0; stroke-dasharray: 7.0,7.0;"/><polygon fill="none" points="243.4401,93.2203,235.5873,73.5394,253.9992,84.0276,243.4401,93.2203" style="stroke: #A80036; stroke-width: 1.0;"/><!--MD5=[1eda1b0b0f6ea5770f147118a00ec745]
reverse link State to Context--><path d="M307.4004,43 C317.4138,43 327.4271,43 337.4405,43 " fill="none" id="State&lt;-Context" style="stroke: #A80036; stroke-width: 1.0; stroke-dasharray: 7.0,7.0;"/><polygon fill="#A80036" points="302.1641,43,311.1641,47,307.1641,43,311.1641,39,302.1641,43" style="stroke: #A80036; stroke-width: 1.0;"/><!--MD5=[558a8390c84dd5d8c1164a12316f0582]
@startuml 状态模式
skinparam classAttributeIconSize 0

interface State {
  + handle(Context context): void
}
class ConcreteState1 implements State {
  + handle(Context context): void
}
class ConcreteState2 implements State {
  + handle(Context context): void
}
class Context {
  - state: State
  + handle() { state.handle(this) }
}

State <. Context
@enduml

PlantUML version 1.2020.12(Sat Jun 06 10:54:15 UTC 2020)
(GPL source distribution)
Java Runtime: OpenJDK Runtime Environment
JVM: OpenJDK 64-Bit Server VM
Default Encoding: UTF-8
Language: en
Country: null
--></g></svg>