<?xml version="1.0" encoding="UTF-8" standalone="no"?><svg xmlns="http://www.w3.org/2000/svg" xmlns:xlink="http://www.w3.org/1999/xlink" contentScriptType="application/ecmascript" contentStyleType="text/css" height="236px" preserveAspectRatio="none" style="width:450px;height:236px;" version="1.1" viewBox="0 0 450 236" width="450px" zoomAndPan="magnify"><defs><filter height="300%" id="fuypggzv8xou5" width="300%" x="-1" y="-1"><feGaussianBlur result="blurOut" stdDeviation="2.0"/><feColorMatrix in="blurOut" result="blurOut2" type="matrix" values="0 0 0 0 0 0 0 0 0 0 0 0 0 0 0 0 0 0 .4 0"/><feOffset dx="4.0" dy="4.0" in="blurOut2" result="blurOut3"/><feBlend in="SourceGraphic" in2="blurOut3" mode="normal"/></filter></defs><g><!--MD5=[790e9955d9690e5344ead96b2c38e22e]
class Facade--><rect fill="#FEFECE" filter="url(#fuypggzv8xou5)" height="99.2188" id="Facade" style="stroke: #A80036; stroke-width: 1.5;" width="120" x="152" y="6"/><ellipse cx="185.9" cy="22" fill="#ADD1B2" rx="11" ry="11" style="stroke: #A80036; stroke-width: 1.0;"/><path d="M188.8688,27.6406 Q188.2906,27.9375 187.65,28.0781 Q187.0094,28.2344 186.3063,28.2344 Q183.8063,28.2344 182.4781,26.5938 Q181.1656,24.9375 181.1656,21.8125 Q181.1656,18.6875 182.4781,17.0313 Q183.8063,15.375 186.3063,15.375 Q187.0094,15.375 187.65,15.5313 Q188.3063,15.6875 188.8688,15.9844 L188.8688,18.7031 Q188.2438,18.125 187.65,17.8594 Q187.0563,17.5781 186.4313,17.5781 Q185.0875,17.5781 184.4,18.6563 Q183.7125,19.7188 183.7125,21.8125 Q183.7125,23.9063 184.4,24.9844 Q185.0875,26.0469 186.4313,26.0469 Q187.0563,26.0469 187.65,25.7813 Q188.2438,25.5 188.8688,24.9219 L188.8688,27.6406 Z "/><text fill="#000000" font-family="sans-serif" font-size="12" lengthAdjust="spacingAndGlyphs" textLength="46" x="204.1" y="26.1543">Facade</text><line style="stroke: #A80036; stroke-width: 1.5;" x1="153" x2="271" y1="38" y2="38"/><text fill="#000000" font-family="sans-serif" font-size="11" lengthAdjust="spacingAndGlyphs" textLength="108" x="158" y="52.2104">-obj1: SubSystem1</text><text fill="#000000" font-family="sans-serif" font-size="11" lengthAdjust="spacingAndGlyphs" textLength="108" x="158" y="65.0151">-obj2: SubSystem2</text><text fill="#000000" font-family="sans-serif" font-size="11" lengthAdjust="spacingAndGlyphs" textLength="108" x="158" y="77.8198">-obj3: SubSystem3</text><line style="stroke: #A80036; stroke-width: 1.5;" x1="153" x2="271" y1="84.4141" y2="84.4141"/><text fill="#000000" font-family="sans-serif" font-size="11" lengthAdjust="spacingAndGlyphs" textLength="71" x="158" y="98.6245">+operation()</text><path d="M307.5,12.5 L307.5,51.5 L272.0605,55.5 L307.5,59.5 L307.5,98.1641 A0,0 0 0 0 307.5,98.1641 L438.5,98.1641 A0,0 0 0 0 438.5,98.1641 L438.5,22.5 L428.5,12.5 L307.5,12.5 A0,0 0 0 0 307.5,12.5 " fill="#FBFB77" filter="url(#fuypggzv8xou5)" style="stroke: #A80036; stroke-width: 1.0;"/><path d="M428.5,12.5 L428.5,22.5 L438.5,22.5 L428.5,12.5 " fill="#FBFB77" style="stroke: #A80036; stroke-width: 1.0;"/><text fill="#000000" font-family="sans-serif" font-size="13" lengthAdjust="spacingAndGlyphs" textLength="83" x="313.5" y="29.5669">operation() {</text><text fill="#000000" font-family="sans-serif" font-size="13" lengthAdjust="spacingAndGlyphs" textLength="102" x="321.5" y="44.6997">obj1.operation()</text><text fill="#000000" font-family="sans-serif" font-size="13" lengthAdjust="spacingAndGlyphs" textLength="102" x="321.5" y="59.8325">obj2.operation()</text><text fill="#000000" font-family="sans-serif" font-size="13" lengthAdjust="spacingAndGlyphs" textLength="102" x="321.5" y="74.9653">obj3.operation()</text><text fill="#000000" font-family="sans-serif" font-size="13" lengthAdjust="spacingAndGlyphs" textLength="8" x="313.5" y="90.0981">}</text><!--MD5=[334bc6e821f20ebf5a36dbaf3016f7a7]
class SubSystem1--><rect fill="#FEFECE" filter="url(#fuypggzv8xou5)" height="60.8047" id="SubSystem1" style="stroke: #A80036; stroke-width: 1.5;" width="114" x="6" y="165"/><ellipse cx="23.25" cy="181" fill="#ADD1B2" rx="11" ry="11" style="stroke: #A80036; stroke-width: 1.0;"/><path d="M26.2188,186.6406 Q25.6406,186.9375 25,187.0781 Q24.3594,187.2344 23.6563,187.2344 Q21.1563,187.2344 19.8281,185.5938 Q18.5156,183.9375 18.5156,180.8125 Q18.5156,177.6875 19.8281,176.0313 Q21.1563,174.375 23.6563,174.375 Q24.3594,174.375 25,174.5313 Q25.6563,174.6875 26.2188,174.9844 L26.2188,177.7031 Q25.5938,177.125 25,176.8594 Q24.4063,176.5781 23.7813,176.5781 Q22.4375,176.5781 21.75,177.6563 Q21.0625,178.7188 21.0625,180.8125 Q21.0625,182.9063 21.75,183.9844 Q22.4375,185.0469 23.7813,185.0469 Q24.4063,185.0469 25,184.7813 Q25.5938,184.5 26.2188,183.9219 L26.2188,186.6406 Z "/><text fill="#000000" font-family="sans-serif" font-size="12" lengthAdjust="spacingAndGlyphs" textLength="77" x="37.75" y="185.1543">SubSystem1</text><line style="stroke: #A80036; stroke-width: 1.5;" x1="7" x2="119" y1="197" y2="197"/><line style="stroke: #A80036; stroke-width: 1.5;" x1="7" x2="119" y1="205" y2="205"/><text fill="#000000" font-family="sans-serif" font-size="11" lengthAdjust="spacingAndGlyphs" textLength="102" x="12" y="219.2104">+operation(): void</text><!--MD5=[8013acc3eee9b8d9be9ba663adab544a]
class SubSystem2--><rect fill="#FEFECE" filter="url(#fuypggzv8xou5)" height="60.8047" id="SubSystem2" style="stroke: #A80036; stroke-width: 1.5;" width="114" x="155" y="165"/><ellipse cx="172.25" cy="181" fill="#ADD1B2" rx="11" ry="11" style="stroke: #A80036; stroke-width: 1.0;"/><path d="M175.2188,186.6406 Q174.6406,186.9375 174,187.0781 Q173.3594,187.2344 172.6563,187.2344 Q170.1563,187.2344 168.8281,185.5938 Q167.5156,183.9375 167.5156,180.8125 Q167.5156,177.6875 168.8281,176.0313 Q170.1563,174.375 172.6563,174.375 Q173.3594,174.375 174,174.5313 Q174.6563,174.6875 175.2188,174.9844 L175.2188,177.7031 Q174.5938,177.125 174,176.8594 Q173.4063,176.5781 172.7813,176.5781 Q171.4375,176.5781 170.75,177.6563 Q170.0625,178.7188 170.0625,180.8125 Q170.0625,182.9063 170.75,183.9844 Q171.4375,185.0469 172.7813,185.0469 Q173.4063,185.0469 174,184.7813 Q174.5938,184.5 175.2188,183.9219 L175.2188,186.6406 Z "/><text fill="#000000" font-family="sans-serif" font-size="12" lengthAdjust="spacingAndGlyphs" textLength="77" x="186.75" y="185.1543">SubSystem2</text><line style="stroke: #A80036; stroke-width: 1.5;" x1="156" x2="268" y1="197" y2="197"/><line style="stroke: #A80036; stroke-width: 1.5;" x1="156" x2="268" y1="205" y2="205"/><text fill="#000000" font-family="sans-serif" font-size="11" lengthAdjust="spacingAndGlyphs" textLength="102" x="161" y="219.2104">+operation(): void</text><!--MD5=[1ba39166faadf2a5147fed90518b9de1]
class SubSystem3--><rect fill="#FEFECE" filter="url(#fuypggzv8xou5)" height="60.8047" id="SubSystem3" style="stroke: #A80036; stroke-width: 1.5;" width="114" x="304" y="165"/><ellipse cx="321.25" cy="181" fill="#ADD1B2" rx="11" ry="11" style="stroke: #A80036; stroke-width: 1.0;"/><path d="M324.2188,186.6406 Q323.6406,186.9375 323,187.0781 Q322.3594,187.2344 321.6563,187.2344 Q319.1563,187.2344 317.8281,185.5938 Q316.5156,183.9375 316.5156,180.8125 Q316.5156,177.6875 317.8281,176.0313 Q319.1563,174.375 321.6563,174.375 Q322.3594,174.375 323,174.5313 Q323.6563,174.6875 324.2188,174.9844 L324.2188,177.7031 Q323.5938,177.125 323,176.8594 Q322.4063,176.5781 321.7813,176.5781 Q320.4375,176.5781 319.75,177.6563 Q319.0625,178.7188 319.0625,180.8125 Q319.0625,182.9063 319.75,183.9844 Q320.4375,185.0469 321.7813,185.0469 Q322.4063,185.0469 323,184.7813 Q323.5938,184.5 324.2188,183.9219 L324.2188,186.6406 Z "/><text fill="#000000" font-family="sans-serif" font-size="12" lengthAdjust="spacingAndGlyphs" textLength="77" x="335.75" y="185.1543">SubSystem3</text><line style="stroke: #A80036; stroke-width: 1.5;" x1="305" x2="417" y1="197" y2="197"/><line style="stroke: #A80036; stroke-width: 1.5;" x1="305" x2="417" y1="205" y2="205"/><text fill="#000000" font-family="sans-serif" font-size="11" lengthAdjust="spacingAndGlyphs" textLength="102" x="310" y="219.2104">+operation(): void</text><!--MD5=[ed6624c6556d5e7b1bd23032162d20b7]
class Client--><rect fill="#FEFECE" filter="url(#fuypggzv8xou5)" height="48" id="Client" style="stroke: #A80036; stroke-width: 1.5;" width="67" x="49.5" y="31.5"/><ellipse cx="64.5" cy="47.5" fill="#ADD1B2" rx="11" ry="11" style="stroke: #A80036; stroke-width: 1.0;"/><path d="M67.4688,53.1406 Q66.8906,53.4375 66.25,53.5781 Q65.6094,53.7344 64.9063,53.7344 Q62.4063,53.7344 61.0781,52.0938 Q59.7656,50.4375 59.7656,47.3125 Q59.7656,44.1875 61.0781,42.5313 Q62.4063,40.875 64.9063,40.875 Q65.6094,40.875 66.25,41.0313 Q66.9063,41.1875 67.4688,41.4844 L67.4688,44.2031 Q66.8438,43.625 66.25,43.3594 Q65.6563,43.0781 65.0313,43.0781 Q63.6875,43.0781 63,44.1563 Q62.3125,45.2188 62.3125,47.3125 Q62.3125,49.4063 63,50.4844 Q63.6875,51.5469 65.0313,51.5469 Q65.6563,51.5469 66.25,51.2813 Q66.8438,51 67.4688,50.4219 L67.4688,53.1406 Z "/><text fill="#000000" font-family="sans-serif" font-size="12" lengthAdjust="spacingAndGlyphs" textLength="35" x="78.5" y="51.6543">Client</text><line style="stroke: #A80036; stroke-width: 1.5;" x1="50.5" x2="115.5" y1="63.5" y2="63.5"/><line style="stroke: #A80036; stroke-width: 1.5;" x1="50.5" x2="115.5" y1="71.5" y2="71.5"/><!--MD5=[b443b131f9e558b5ae61c4966c336f30]
link Client to Facade--><path d="M116.5098,55.5 C126.5684,55.5 136.627,55.5 146.6856,55.5 " fill="none" id="Client-&gt;Facade" style="stroke: #A80036; stroke-width: 1.0; stroke-dasharray: 7.0,7.0;"/><polygon fill="#A80036" points="151.9456,55.5,142.9456,51.5,146.9456,55.5,142.9456,59.5,151.9456,55.5" style="stroke: #A80036; stroke-width: 1.0;"/><!--MD5=[ab325e74f54630f1413733ee28db2b48]
reverse link Facade to SubSystem1--><path d="M155.0687,108.9925 C135.0399,127.8115 113.2147,148.3184 95.8428,164.641 " fill="none" id="Facade&lt;-SubSystem1" style="stroke: #A80036; stroke-width: 1.0;"/><polygon fill="#A80036" points="159.0486,105.253,149.7507,108.5008,155.4048,108.6768,155.2288,114.3309,159.0486,105.253" style="stroke: #A80036; stroke-width: 1.0;"/><!--MD5=[49b83c92577b041c765f37ddc1d39790]
reverse link Facade to SubSystem2--><path d="M212,110.407 C212,128.8342 212,148.7265 212,164.641 " fill="none" id="Facade&lt;-SubSystem2" style="stroke: #A80036; stroke-width: 1.0;"/><polygon fill="#A80036" points="212,105.253,208,114.253,212,110.253,216,114.253,212,105.253" style="stroke: #A80036; stroke-width: 1.0;"/><!--MD5=[22b7f9e45e5de10bc01a86536c97d4e6]
reverse link Facade to SubSystem3--><path d="M268.9313,108.9925 C288.9601,127.8115 310.7853,148.3184 328.1572,164.641 " fill="none" id="Facade&lt;-SubSystem3" style="stroke: #A80036; stroke-width: 1.0;"/><polygon fill="#A80036" points="264.9514,105.253,268.7712,114.3309,268.5952,108.6768,274.2493,108.5008,264.9514,105.253" style="stroke: #A80036; stroke-width: 1.0;"/><!--MD5=[bc53027228edb47b68f22e6751eb122d]
@startuml 门面模式
skinparam classAttributeIconSize 0

class Facade {
  - obj1: SubSystem1
  - obj2: SubSystem2
  - obj3: SubSystem3
  + operation()
}
note as N1
operation() {
  obj1.operation()
  obj2.operation()
  obj3.operation()
}
end note

class SubSystem1 {
  + operation(): void
}
class SubSystem2 {
  + operation(): void
}
class SubSystem3 {
  + operation(): void
}

Client .> Facade
Facade .> N1
Facade <- - SubSystem1
Facade <- - SubSystem2
Facade <- - SubSystem3
@enduml

PlantUML version 1.2020.12(Sat Jun 06 10:54:15 UTC 2020)
(GPL source distribution)
Java Runtime: OpenJDK Runtime Environment
JVM: OpenJDK 64-Bit Server VM
Default Encoding: UTF-8
Language: en
Country: null
--></g></svg>