<?xml version="1.0" encoding="UTF-8" standalone="no"?><svg xmlns="http://www.w3.org/2000/svg" xmlns:xlink="http://www.w3.org/1999/xlink" contentScriptType="application/ecmascript" contentStyleType="text/css" height="262px" preserveAspectRatio="none" style="width:478px;height:262px;" version="1.1" viewBox="0 0 478 262" width="478px" zoomAndPan="magnify"><defs><filter height="300%" id="fnyvq1dfbafp2" width="300%" x="-1" y="-1"><feGaussianBlur result="blurOut" stdDeviation="2.0"/><feColorMatrix in="blurOut" result="blurOut2" type="matrix" values="0 0 0 0 0 0 0 0 0 0 0 0 0 0 0 0 0 0 .4 0"/><feOffset dx="4.0" dy="4.0" in="blurOut2" result="blurOut3"/><feBlend in="SourceGraphic" in2="blurOut3" mode="normal"/></filter></defs><g><!--MD5=[7741422977f4247944b44037bf409cca]
class Originator--><rect fill="#FEFECE" filter="url(#fnyvq1dfbafp2)" height="99.2188" id="Originator" style="stroke: #A80036; stroke-width: 1.5;" width="225" x="6" y="6"/><ellipse cx="83.25" cy="22" fill="#ADD1B2" rx="11" ry="11" style="stroke: #A80036; stroke-width: 1.0;"/><path d="M86.2188,27.6406 Q85.6406,27.9375 85,28.0781 Q84.3594,28.2344 83.6563,28.2344 Q81.1563,28.2344 79.8281,26.5938 Q78.5156,24.9375 78.5156,21.8125 Q78.5156,18.6875 79.8281,17.0313 Q81.1563,15.375 83.6563,15.375 Q84.3594,15.375 85,15.5313 Q85.6563,15.6875 86.2188,15.9844 L86.2188,18.7031 Q85.5938,18.125 85,17.8594 Q84.4063,17.5781 83.7813,17.5781 Q82.4375,17.5781 81.75,18.6563 Q81.0625,19.7188 81.0625,21.8125 Q81.0625,23.9063 81.75,24.9844 Q82.4375,26.0469 83.7813,26.0469 Q84.4063,26.0469 85,25.7813 Q85.5938,25.5 86.2188,24.9219 L86.2188,27.6406 Z "/><text fill="#000000" font-family="sans-serif" font-size="12" lengthAdjust="spacingAndGlyphs" textLength="62" x="103.75" y="26.1543">Originator</text><line style="stroke: #A80036; stroke-width: 1.5;" x1="7" x2="230" y1="38" y2="38"/><line style="stroke: #A80036; stroke-width: 1.5;" x1="7" x2="230" y1="46" y2="46"/><text fill="#000000" font-family="sans-serif" font-size="11" lengthAdjust="spacingAndGlyphs" textLength="65" x="12" y="60.2104">+setState()</text><text fill="#000000" font-family="sans-serif" font-size="11" lengthAdjust="spacingAndGlyphs" textLength="65" x="12" y="73.0151">+getState()</text><text fill="#000000" font-family="sans-serif" font-size="11" lengthAdjust="spacingAndGlyphs" textLength="105" x="12" y="85.8198">+createMemento()</text><text fill="#000000" font-family="sans-serif" font-size="11" lengthAdjust="spacingAndGlyphs" textLength="213" x="12" y="98.6245">+restoreMemento(Memento: m): void</text><!--MD5=[b8338156e8cd96c783f5ffc7d8021ea7]
class Memento--><rect fill="#FEFECE" filter="url(#fnyvq1dfbafp2)" height="86.4141" id="Memento" style="stroke: #A80036; stroke-width: 1.5;" width="90" x="73.5" y="165"/><ellipse cx="88.5" cy="181" fill="#ADD1B2" rx="11" ry="11" style="stroke: #A80036; stroke-width: 1.0;"/><path d="M91.4688,186.6406 Q90.8906,186.9375 90.25,187.0781 Q89.6094,187.2344 88.9063,187.2344 Q86.4063,187.2344 85.0781,185.5938 Q83.7656,183.9375 83.7656,180.8125 Q83.7656,177.6875 85.0781,176.0313 Q86.4063,174.375 88.9063,174.375 Q89.6094,174.375 90.25,174.5313 Q90.9063,174.6875 91.4688,174.9844 L91.4688,177.7031 Q90.8438,177.125 90.25,176.8594 Q89.6563,176.5781 89.0313,176.5781 Q87.6875,176.5781 87,177.6563 Q86.3125,178.7188 86.3125,180.8125 Q86.3125,182.9063 87,183.9844 Q87.6875,185.0469 89.0313,185.0469 Q89.6563,185.0469 90.25,184.7813 Q90.8438,184.5 91.4688,183.9219 L91.4688,186.6406 Z "/><text fill="#000000" font-family="sans-serif" font-size="12" lengthAdjust="spacingAndGlyphs" textLength="58" x="102.5" y="185.1543">Memento</text><line style="stroke: #A80036; stroke-width: 1.5;" x1="74.5" x2="162.5" y1="197" y2="197"/><text fill="#000000" font-family="sans-serif" font-size="11" lengthAdjust="spacingAndGlyphs" textLength="33" x="79.5" y="211.2104">-state</text><line style="stroke: #A80036; stroke-width: 1.5;" x1="74.5" x2="162.5" y1="217.8047" y2="217.8047"/><text fill="#000000" font-family="sans-serif" font-size="11" lengthAdjust="spacingAndGlyphs" textLength="65" x="79.5" y="232.0151">+setState()</text><text fill="#000000" font-family="sans-serif" font-size="11" lengthAdjust="spacingAndGlyphs" textLength="65" x="79.5" y="244.8198">+getState()</text><!--MD5=[97623df425179619299c02e71393d6f5]
class CareTaker--><rect fill="#FEFECE" filter="url(#fnyvq1dfbafp2)" height="86.4141" id="CareTaker" style="stroke: #A80036; stroke-width: 1.5;" width="201" x="266" y="12.5"/><ellipse cx="330.25" cy="28.5" fill="#ADD1B2" rx="11" ry="11" style="stroke: #A80036; stroke-width: 1.0;"/><path d="M333.2188,34.1406 Q332.6406,34.4375 332,34.5781 Q331.3594,34.7344 330.6563,34.7344 Q328.1563,34.7344 326.8281,33.0938 Q325.5156,31.4375 325.5156,28.3125 Q325.5156,25.1875 326.8281,23.5313 Q328.1563,21.875 330.6563,21.875 Q331.3594,21.875 332,22.0313 Q332.6563,22.1875 333.2188,22.4844 L333.2188,25.2031 Q332.5938,24.625 332,24.3594 Q331.4063,24.0781 330.7813,24.0781 Q329.4375,24.0781 328.75,25.1563 Q328.0625,26.2188 328.0625,28.3125 Q328.0625,30.4063 328.75,31.4844 Q329.4375,32.5469 330.7813,32.5469 Q331.4063,32.5469 332,32.2813 Q332.5938,32 333.2188,31.4219 L333.2188,34.1406 Z "/><text fill="#000000" font-family="sans-serif" font-size="12" lengthAdjust="spacingAndGlyphs" textLength="64" x="350.75" y="32.6543">CareTaker</text><line style="stroke: #A80036; stroke-width: 1.5;" x1="267" x2="466" y1="44.5" y2="44.5"/><text fill="#000000" font-family="sans-serif" font-size="11" lengthAdjust="spacingAndGlyphs" textLength="118" x="272" y="58.7104">-memento: Memento</text><line style="stroke: #A80036; stroke-width: 1.5;" x1="267" x2="466" y1="65.3047" y2="65.3047"/><text fill="#000000" font-family="sans-serif" font-size="11" lengthAdjust="spacingAndGlyphs" textLength="87" x="272" y="79.5151">+getMemento()</text><text fill="#000000" font-family="sans-serif" font-size="11" lengthAdjust="spacingAndGlyphs" textLength="189" x="272" y="92.3198">+setMemento(Memento: m): void</text><!--MD5=[71d138568cdfa7e1d586268bf66dd3c4]
link Originator to Memento--><path d="M118.5,105.0124 C118.5,122.5098 118.5,142.158 118.5,159.5651 " fill="none" id="Originator-&gt;Memento" style="stroke: #A80036; stroke-width: 1.0;"/><polygon fill="#A80036" points="118.5,164.8904,122.5,155.8904,118.5,159.8904,114.5,155.8904,118.5,164.8904" style="stroke: #A80036; stroke-width: 1.0;"/><!--MD5=[1f81efa8d22d4b2185e0a3fce5d502a2]
@startuml 备忘录
skinparam classAttributeIconSize 0

class Originator {
  + setState()
  + getState()
  + createMemento()
  + restoreMemento(Memento: m): void
}
class Memento {
  - state
  + setState()
  + getState()
}
class CareTaker {
  ' 管理者
  - memento: Memento
  + getMemento()
  + setMemento(Memento: m): void
}

Originator - -> Memento

@enduml

@startuml 备忘录
skinparam classAttributeIconSize 0

class Originator {
  + setState()
  + getState()
  + createMemento()
  + restoreMemento(Memento: m): void
}
class Memento {
  - state
  + setState()
  + getState()
}
class CareTaker {
  - memento: Memento
  + getMemento()
  + setMemento(Memento: m): void
}

Originator - -> Memento

@enduml

PlantUML version 1.2020.12(Sat Jun 06 10:54:15 UTC 2020)
(GPL source distribution)
Java Runtime: OpenJDK Runtime Environment
JVM: OpenJDK 64-Bit Server VM
Default Encoding: UTF-8
Language: en
Country: null
--></g></svg>