<?xml version="1.0" encoding="UTF-8" standalone="no"?><svg xmlns="http://www.w3.org/2000/svg" xmlns:xlink="http://www.w3.org/1999/xlink" contentScriptType="application/ecmascript" contentStyleType="text/css" height="224px" preserveAspectRatio="none" style="width:342px;height:224px;" version="1.1" viewBox="0 0 342 224" width="342px" zoomAndPan="magnify"><defs><filter height="300%" id="f128io7wo8rj5" width="300%" x="-1" y="-1"><feGaussianBlur result="blurOut" stdDeviation="2.0"/><feColorMatrix in="blurOut" result="blurOut2" type="matrix" values="0 0 0 0 0 0 0 0 0 0 0 0 0 0 0 0 0 0 .4 0"/><feOffset dx="4.0" dy="4.0" in="blurOut2" result="blurOut3"/><feBlend in="SourceGraphic" in2="blurOut3" mode="normal"/></filter></defs><g><!--MD5=[fc07866a383d07d405a25512054a0e5c]
class Target--><rect fill="#FEFECE" filter="url(#f128io7wo8rj5)" height="60.8047" id="Target" style="stroke: #A80036; stroke-width: 1.5;" width="73" x="108" y="6"/><ellipse cx="123" cy="22" fill="#B4A7E5" rx="11" ry="11" style="stroke: #A80036; stroke-width: 1.0;"/><path d="M118.9219,17.7656 L118.9219,15.6094 L126.3125,15.6094 L126.3125,17.7656 L123.8438,17.7656 L123.8438,25.8438 L126.3125,25.8438 L126.3125,28 L118.9219,28 L118.9219,25.8438 L121.3906,25.8438 L121.3906,17.7656 L118.9219,17.7656 Z "/><text fill="#000000" font-family="sans-serif" font-size="12" font-style="italic" lengthAdjust="spacingAndGlyphs" textLength="41" x="137" y="26.1543">Target</text><line style="stroke: #A80036; stroke-width: 1.5;" x1="109" x2="180" y1="38" y2="38"/><line style="stroke: #A80036; stroke-width: 1.5;" x1="109" x2="180" y1="46" y2="46"/><text fill="#000000" font-family="sans-serif" font-size="11" lengthAdjust="spacingAndGlyphs" textLength="52" x="114" y="60.2104">request()</text><!--MD5=[f38a85e47f7d4f812523dd9b6d7d2c16]
class Adapter--><rect fill="#FEFECE" filter="url(#f128io7wo8rj5)" height="86.4141" id="Adapter" style="stroke: #A80036; stroke-width: 1.5;" width="156" x="130.5" y="127"/><ellipse cx="179.25" cy="143" fill="#ADD1B2" rx="11" ry="11" style="stroke: #A80036; stroke-width: 1.0;"/><path d="M182.2188,148.6406 Q181.6406,148.9375 181,149.0781 Q180.3594,149.2344 179.6563,149.2344 Q177.1563,149.2344 175.8281,147.5938 Q174.5156,145.9375 174.5156,142.8125 Q174.5156,139.6875 175.8281,138.0313 Q177.1563,136.375 179.6563,136.375 Q180.3594,136.375 181,136.5313 Q181.6563,136.6875 182.2188,136.9844 L182.2188,139.7031 Q181.5938,139.125 181,138.8594 Q180.4063,138.5781 179.7813,138.5781 Q178.4375,138.5781 177.75,139.6563 Q177.0625,140.7188 177.0625,142.8125 Q177.0625,144.9063 177.75,145.9844 Q178.4375,147.0469 179.7813,147.0469 Q180.4063,147.0469 181,146.7813 Q181.5938,146.5 182.2188,145.9219 L182.2188,148.6406 Z "/><text fill="#000000" font-family="sans-serif" font-size="12" lengthAdjust="spacingAndGlyphs" textLength="50" x="199.75" y="147.1543">Adapter</text><line style="stroke: #A80036; stroke-width: 1.5;" x1="131.5" x2="285.5" y1="159" y2="159"/><text fill="#000000" font-family="sans-serif" font-size="11" lengthAdjust="spacingAndGlyphs" textLength="50" x="136.5" y="173.2104">-adaptee</text><line style="stroke: #A80036; stroke-width: 1.5;" x1="131.5" x2="285.5" y1="179.8047" y2="179.8047"/><text fill="#000000" font-family="sans-serif" font-size="11" lengthAdjust="spacingAndGlyphs" textLength="61" x="136.5" y="194.0151">+request()</text><text fill="#000000" font-family="sans-serif" font-size="11" lengthAdjust="spacingAndGlyphs" textLength="136" x="144.5" y="206.8198">adaptee.specialRequest</text><!--MD5=[7393b79429f23cd61e6e6a493d3a2b14]
class Adaptee--><rect fill="#FEFECE" filter="url(#f128io7wo8rj5)" height="60.8047" id="Adaptee" style="stroke: #A80036; stroke-width: 1.5;" width="115" x="216" y="6"/><ellipse cx="244.5" cy="22" fill="#ADD1B2" rx="11" ry="11" style="stroke: #A80036; stroke-width: 1.0;"/><path d="M247.4688,27.6406 Q246.8906,27.9375 246.25,28.0781 Q245.6094,28.2344 244.9063,28.2344 Q242.4063,28.2344 241.0781,26.5938 Q239.7656,24.9375 239.7656,21.8125 Q239.7656,18.6875 241.0781,17.0313 Q242.4063,15.375 244.9063,15.375 Q245.6094,15.375 246.25,15.5313 Q246.9063,15.6875 247.4688,15.9844 L247.4688,18.7031 Q246.8438,18.125 246.25,17.8594 Q245.6563,17.5781 245.0313,17.5781 Q243.6875,17.5781 243,18.6563 Q242.3125,19.7188 242.3125,21.8125 Q242.3125,23.9063 243,24.9844 Q243.6875,26.0469 245.0313,26.0469 Q245.6563,26.0469 246.25,25.7813 Q246.8438,25.5 247.4688,24.9219 L247.4688,27.6406 Z "/><text fill="#000000" font-family="sans-serif" font-size="12" lengthAdjust="spacingAndGlyphs" textLength="53" x="261.5" y="26.1543">Adaptee</text><line style="stroke: #A80036; stroke-width: 1.5;" x1="217" x2="330" y1="38" y2="38"/><line style="stroke: #A80036; stroke-width: 1.5;" x1="217" x2="330" y1="46" y2="46"/><text fill="#000000" font-family="sans-serif" font-size="11" lengthAdjust="spacingAndGlyphs" textLength="103" x="222" y="60.2104">+specialRequest()</text><!--MD5=[ed6624c6556d5e7b1bd23032162d20b7]
class Client--><rect fill="#FEFECE" filter="url(#f128io7wo8rj5)" height="48" id="Client" style="stroke: #A80036; stroke-width: 1.5;" width="67" x="6" y="12.5"/><ellipse cx="21" cy="28.5" fill="#ADD1B2" rx="11" ry="11" style="stroke: #A80036; stroke-width: 1.0;"/><path d="M23.9688,34.1406 Q23.3906,34.4375 22.75,34.5781 Q22.1094,34.7344 21.4063,34.7344 Q18.9063,34.7344 17.5781,33.0938 Q16.2656,31.4375 16.2656,28.3125 Q16.2656,25.1875 17.5781,23.5313 Q18.9063,21.875 21.4063,21.875 Q22.1094,21.875 22.75,22.0313 Q23.4063,22.1875 23.9688,22.4844 L23.9688,25.2031 Q23.3438,24.625 22.75,24.3594 Q22.1563,24.0781 21.5313,24.0781 Q20.1875,24.0781 19.5,25.1563 Q18.8125,26.2188 18.8125,28.3125 Q18.8125,30.4063 19.5,31.4844 Q20.1875,32.5469 21.5313,32.5469 Q22.1563,32.5469 22.75,32.2813 Q23.3438,32 23.9688,31.4219 L23.9688,34.1406 Z "/><text fill="#000000" font-family="sans-serif" font-size="12" lengthAdjust="spacingAndGlyphs" textLength="35" x="35" y="32.6543">Client</text><line style="stroke: #A80036; stroke-width: 1.5;" x1="7" x2="72" y1="44.5" y2="44.5"/><line style="stroke: #A80036; stroke-width: 1.5;" x1="7" x2="72" y1="52.5" y2="52.5"/><!--MD5=[e8afce381d6978114aa9e217ec9a4ba2]
reverse link Target to Adapter--><path d="M167.9303,85.3742 C174.4472,98.9679 181.4759,113.6295 187.8225,126.8681 " fill="none" id="Target&lt;-Adapter" style="stroke: #A80036; stroke-width: 1.0; stroke-dasharray: 7.0,7.0;"/><polygon fill="none" points="161.5166,88.1883,159.1829,67.1276,174.1409,82.1362,161.5166,88.1883" style="stroke: #A80036; stroke-width: 1.0;"/><!--MD5=[431c3f1848dccc83292155c400886313]
link Client to Target--><path d="M73.1328,36.5 C83.0244,36.5 92.9159,36.5 102.8074,36.5 " fill="none" id="Client-&gt;Target" style="stroke: #A80036; stroke-width: 1.0;"/><polygon fill="#A80036" points="107.9801,36.5,98.9801,32.5,102.9801,36.5,98.9801,40.5,107.9801,36.5" style="stroke: #A80036; stroke-width: 1.0;"/><!--MD5=[f542aae18a442658068046d736555ab7]
reverse link Adaptee to Adapter--><path d="M256.3153,71.7947 C248.0904,88.6873 238.169,109.0644 229.5006,126.8681 " fill="none" id="Adaptee&lt;-Adapter" style="stroke: #A80036; stroke-width: 1.0;"/><polygon fill="#A80036" points="258.5877,67.1276,251.0514,73.4683,256.3988,71.623,258.2441,76.9705,258.5877,67.1276" style="stroke: #A80036; stroke-width: 1.0;"/><!--MD5=[4600af98b30d71217f91c830816d1b93]
@startuml 适配者模式
skinparam classAttributeIconSize 0

interface Target {
  request()
}
class Adapter implements Target {
  - adaptee
  + request() \n  adaptee.specialRequest
}
class Adaptee {
  + specialRequest()
}

Client -> Target
Adaptee <- - Adapter
@enduml

PlantUML version 1.2020.12(Sat Jun 06 10:54:15 UTC 2020)
(GPL source distribution)
Java Runtime: OpenJDK Runtime Environment
JVM: OpenJDK 64-Bit Server VM
Default Encoding: UTF-8
Language: en
Country: null
--></g></svg>