<?xml version="1.0" encoding="UTF-8" standalone="no"?><svg xmlns="http://www.w3.org/2000/svg" xmlns:xlink="http://www.w3.org/1999/xlink" contentScriptType="application/ecmascript" contentStyleType="text/css" height="236px" preserveAspectRatio="none" style="width:810px;height:236px;" version="1.1" viewBox="0 0 810 236" width="810px" zoomAndPan="magnify"><defs><filter height="300%" id="f19zc7j2wbekeo" width="300%" x="-1" y="-1"><feGaussianBlur result="blurOut" stdDeviation="2.0"/><feColorMatrix in="blurOut" result="blurOut2" type="matrix" values="0 0 0 0 0 0 0 0 0 0 0 0 0 0 0 0 0 0 .4 0"/><feOffset dx="4.0" dy="4.0" in="blurOut2" result="blurOut3"/><feBlend in="SourceGraphic" in2="blurOut3" mode="normal"/></filter></defs><g><!--MD5=[f7e5aaedf1b25aad9b447cdf8dba2a20]
class Abstraction--><rect fill="#FEFECE" filter="url(#f19zc7j2wbekeo)" height="86.4141" id="Abstraction" style="stroke: #A80036; stroke-width: 1.5;" width="120" x="234.5" y="6"/><ellipse cx="256.7" cy="22" fill="#A9DCDF" rx="11" ry="11" style="stroke: #A80036; stroke-width: 1.0;"/><path d="M256.8094,17.3438 L255.6531,22.4219 L257.9813,22.4219 L256.8094,17.3438 Z M255.325,15.1094 L258.3094,15.1094 L261.6688,27.5 L259.2156,27.5 L258.45,24.4375 L255.1688,24.4375 L254.4188,27.5 L251.9813,27.5 L255.325,15.1094 Z "/><text fill="#000000" font-family="sans-serif" font-size="12" font-style="italic" lengthAdjust="spacingAndGlyphs" textLength="72" x="272.3" y="26.1543">Abstraction</text><line style="stroke: #A80036; stroke-width: 1.5;" x1="235.5" x2="353.5" y1="38" y2="38"/><text fill="#000000" font-family="sans-serif" font-size="11" lengthAdjust="spacingAndGlyphs" textLength="108" x="240.5" y="52.2104">-impl: Implementor</text><line style="stroke: #A80036; stroke-width: 1.5;" x1="235.5" x2="353.5" y1="58.8047" y2="58.8047"/><text fill="#000000" font-family="sans-serif" font-size="11" lengthAdjust="spacingAndGlyphs" textLength="81" x="240.5" y="73.0151">#Abstraction()</text><text fill="#000000" font-family="sans-serif" font-size="11" lengthAdjust="spacingAndGlyphs" textLength="93" x="240.5" y="85.8198">operation(): void</text><!--MD5=[155d471933918f2b51715e339e42e2fe]
class ConcreteAbstraction1--><rect fill="#FEFECE" filter="url(#f19zc7j2wbekeo)" height="73.6094" id="ConcreteAbstraction1" style="stroke: #A80036; stroke-width: 1.5;" width="169" x="6" y="152"/><ellipse cx="21" cy="168" fill="#ADD1B2" rx="11" ry="11" style="stroke: #A80036; stroke-width: 1.0;"/><path d="M23.9688,173.6406 Q23.3906,173.9375 22.75,174.0781 Q22.1094,174.2344 21.4063,174.2344 Q18.9063,174.2344 17.5781,172.5938 Q16.2656,170.9375 16.2656,167.8125 Q16.2656,164.6875 17.5781,163.0313 Q18.9063,161.375 21.4063,161.375 Q22.1094,161.375 22.75,161.5313 Q23.4063,161.6875 23.9688,161.9844 L23.9688,164.7031 Q23.3438,164.125 22.75,163.8594 Q22.1563,163.5781 21.5313,163.5781 Q20.1875,163.5781 19.5,164.6563 Q18.8125,165.7188 18.8125,167.8125 Q18.8125,169.9063 19.5,170.9844 Q20.1875,172.0469 21.5313,172.0469 Q22.1563,172.0469 22.75,171.7813 Q23.3438,171.5 23.9688,170.9219 L23.9688,173.6406 Z "/><text fill="#000000" font-family="sans-serif" font-size="12" lengthAdjust="spacingAndGlyphs" textLength="137" x="35" y="172.1543">ConcreteAbstraction1</text><line style="stroke: #A80036; stroke-width: 1.5;" x1="7" x2="174" y1="184" y2="184"/><text fill="#000000" font-family="sans-serif" font-size="11" lengthAdjust="spacingAndGlyphs" textLength="108" x="12" y="198.2104">-impl: Implementor</text><line style="stroke: #A80036; stroke-width: 1.5;" x1="7" x2="174" y1="204.8047" y2="204.8047"/><text fill="#000000" font-family="sans-serif" font-size="11" lengthAdjust="spacingAndGlyphs" textLength="93" x="12" y="219.0151">operation(): void</text><!--MD5=[392b16679c2fd439bd8e9beec16ffe18]
class ConcreteAbstraction2--><rect fill="#FEFECE" filter="url(#f19zc7j2wbekeo)" height="73.6094" id="ConcreteAbstraction2" style="stroke: #A80036; stroke-width: 1.5;" width="169" x="210" y="152"/><ellipse cx="225" cy="168" fill="#ADD1B2" rx="11" ry="11" style="stroke: #A80036; stroke-width: 1.0;"/><path d="M227.9688,173.6406 Q227.3906,173.9375 226.75,174.0781 Q226.1094,174.2344 225.4063,174.2344 Q222.9063,174.2344 221.5781,172.5938 Q220.2656,170.9375 220.2656,167.8125 Q220.2656,164.6875 221.5781,163.0313 Q222.9063,161.375 225.4063,161.375 Q226.1094,161.375 226.75,161.5313 Q227.4063,161.6875 227.9688,161.9844 L227.9688,164.7031 Q227.3438,164.125 226.75,163.8594 Q226.1563,163.5781 225.5313,163.5781 Q224.1875,163.5781 223.5,164.6563 Q222.8125,165.7188 222.8125,167.8125 Q222.8125,169.9063 223.5,170.9844 Q224.1875,172.0469 225.5313,172.0469 Q226.1563,172.0469 226.75,171.7813 Q227.3438,171.5 227.9688,170.9219 L227.9688,173.6406 Z "/><text fill="#000000" font-family="sans-serif" font-size="12" lengthAdjust="spacingAndGlyphs" textLength="137" x="239" y="172.1543">ConcreteAbstraction2</text><line style="stroke: #A80036; stroke-width: 1.5;" x1="211" x2="378" y1="184" y2="184"/><text fill="#000000" font-family="sans-serif" font-size="11" lengthAdjust="spacingAndGlyphs" textLength="108" x="216" y="198.2104">-impl: Implementor</text><line style="stroke: #A80036; stroke-width: 1.5;" x1="211" x2="378" y1="204.8047" y2="204.8047"/><text fill="#000000" font-family="sans-serif" font-size="11" lengthAdjust="spacingAndGlyphs" textLength="93" x="216" y="219.0151">operation(): void</text><!--MD5=[e122f73aad4e23bd379e5a2a2f5217b5]
class Implementor--><rect fill="#FEFECE" filter="url(#f19zc7j2wbekeo)" height="60.8047" id="Implementor" style="stroke: #A80036; stroke-width: 1.5;" width="114" x="444.5" y="18.5"/><ellipse cx="461.3" cy="34.5" fill="#B4A7E5" rx="11" ry="11" style="stroke: #A80036; stroke-width: 1.0;"/><path d="M457.2219,30.2656 L457.2219,28.1094 L464.6125,28.1094 L464.6125,30.2656 L462.1438,30.2656 L462.1438,38.3438 L464.6125,38.3438 L464.6125,40.5 L457.2219,40.5 L457.2219,38.3438 L459.6906,38.3438 L459.6906,30.2656 L457.2219,30.2656 Z "/><text fill="#000000" font-family="sans-serif" font-size="12" font-style="italic" lengthAdjust="spacingAndGlyphs" textLength="78" x="475.7" y="38.6543">Implementor</text><line style="stroke: #A80036; stroke-width: 1.5;" x1="445.5" x2="557.5" y1="50.5" y2="50.5"/><line style="stroke: #A80036; stroke-width: 1.5;" x1="445.5" x2="557.5" y1="58.5" y2="58.5"/><text fill="#000000" font-family="sans-serif" font-size="11" lengthAdjust="spacingAndGlyphs" textLength="102" x="450.5" y="72.7104">+operation(): void</text><!--MD5=[93c702d1c9e73c37d67864cda3002dcd]
class ConcreteImplementor1--><rect fill="#FEFECE" filter="url(#f19zc7j2wbekeo)" height="60.8047" id="ConcreteImplementor1" style="stroke: #A80036; stroke-width: 1.5;" width="175" x="414" y="158.5"/><ellipse cx="429" cy="174.5" fill="#ADD1B2" rx="11" ry="11" style="stroke: #A80036; stroke-width: 1.0;"/><path d="M431.9688,180.1406 Q431.3906,180.4375 430.75,180.5781 Q430.1094,180.7344 429.4063,180.7344 Q426.9063,180.7344 425.5781,179.0938 Q424.2656,177.4375 424.2656,174.3125 Q424.2656,171.1875 425.5781,169.5313 Q426.9063,167.875 429.4063,167.875 Q430.1094,167.875 430.75,168.0313 Q431.4063,168.1875 431.9688,168.4844 L431.9688,171.2031 Q431.3438,170.625 430.75,170.3594 Q430.1563,170.0781 429.5313,170.0781 Q428.1875,170.0781 427.5,171.1563 Q426.8125,172.2188 426.8125,174.3125 Q426.8125,176.4063 427.5,177.4844 Q428.1875,178.5469 429.5313,178.5469 Q430.1563,178.5469 430.75,178.2813 Q431.3438,178 431.9688,177.4219 L431.9688,180.1406 Z "/><text fill="#000000" font-family="sans-serif" font-size="12" lengthAdjust="spacingAndGlyphs" textLength="143" x="443" y="178.6543">ConcreteImplementor1</text><line style="stroke: #A80036; stroke-width: 1.5;" x1="415" x2="588" y1="190.5" y2="190.5"/><line style="stroke: #A80036; stroke-width: 1.5;" x1="415" x2="588" y1="198.5" y2="198.5"/><text fill="#000000" font-family="sans-serif" font-size="11" lengthAdjust="spacingAndGlyphs" textLength="102" x="420" y="212.7104">+operation(): void</text><!--MD5=[f6ed89f0fefaa42b3c358c9523d2db54]
class ConcreteImplementor2--><rect fill="#FEFECE" filter="url(#f19zc7j2wbekeo)" height="60.8047" id="ConcreteImplementor2" style="stroke: #A80036; stroke-width: 1.5;" width="175" x="624" y="158.5"/><ellipse cx="639" cy="174.5" fill="#ADD1B2" rx="11" ry="11" style="stroke: #A80036; stroke-width: 1.0;"/><path d="M641.9688,180.1406 Q641.3906,180.4375 640.75,180.5781 Q640.1094,180.7344 639.4063,180.7344 Q636.9063,180.7344 635.5781,179.0938 Q634.2656,177.4375 634.2656,174.3125 Q634.2656,171.1875 635.5781,169.5313 Q636.9063,167.875 639.4063,167.875 Q640.1094,167.875 640.75,168.0313 Q641.4063,168.1875 641.9688,168.4844 L641.9688,171.2031 Q641.3438,170.625 640.75,170.3594 Q640.1563,170.0781 639.5313,170.0781 Q638.1875,170.0781 637.5,171.1563 Q636.8125,172.2188 636.8125,174.3125 Q636.8125,176.4063 637.5,177.4844 Q638.1875,178.5469 639.5313,178.5469 Q640.1563,178.5469 640.75,178.2813 Q641.3438,178 641.9688,177.4219 L641.9688,180.1406 Z "/><text fill="#000000" font-family="sans-serif" font-size="12" lengthAdjust="spacingAndGlyphs" textLength="143" x="653" y="178.6543">ConcreteImplementor2</text><line style="stroke: #A80036; stroke-width: 1.5;" x1="625" x2="798" y1="190.5" y2="190.5"/><line style="stroke: #A80036; stroke-width: 1.5;" x1="625" x2="798" y1="198.5" y2="198.5"/><text fill="#000000" font-family="sans-serif" font-size="11" lengthAdjust="spacingAndGlyphs" textLength="102" x="630" y="212.7104">+operation(): void</text><path d="M76,36.5 L76,61.6328 A0,0 0 0 0 76,61.6328 L199,61.6328 A0,0 0 0 0 199,61.6328 L199,54.5 L234.1517,49 L199,46.5 L199,46.5 L189,36.5 L76,36.5 A0,0 0 0 0 76,36.5 " fill="#FBFB77" filter="url(#f19zc7j2wbekeo)" style="stroke: #A80036; stroke-width: 1.0;"/><path d="M189,36.5 L189,46.5 L199,46.5 L189,36.5 " fill="#FBFB77" style="stroke: #A80036; stroke-width: 1.0;"/><text fill="#000000" font-family="sans-serif" font-size="13" lengthAdjust="spacingAndGlyphs" textLength="102" x="82" y="53.5669">impl.operation()</text><!--MD5=[6d959d0ac20417db60f5258bf3a365b6]
reverse link Abstraction to ConcreteAbstraction1--><path d="M217.5659,101.7979 C193.2751,118.4681 166.9623,136.5258 144.616,151.8616 " fill="none" id="Abstraction&lt;-ConcreteAbstraction1" style="stroke: #A80036; stroke-width: 1.0;"/><polygon fill="none" points="213.9454,95.7927,234.3966,90.2474,221.8673,107.3359,213.9454,95.7927" style="stroke: #A80036; stroke-width: 1.0;"/><!--MD5=[c9ae252454c6f739452d6c320dc2c63c]
reverse link Abstraction to ConcreteAbstraction2--><path d="M294.5,112.217 C294.5,125.7915 294.5,139.7095 294.5,151.9032 " fill="none" id="Abstraction&lt;-ConcreteAbstraction2" style="stroke: #A80036; stroke-width: 1.0;"/><polygon fill="none" points="287.5001,112.147,294.5,92.147,301.5001,112.1469,287.5001,112.147" style="stroke: #A80036; stroke-width: 1.0;"/><!--MD5=[228d62c7c8114edaf6cc6204386be80e]
reverse link Implementor to ConcreteImplementor1--><path d="M501.5,99.8248 C501.5,119.4342 501.5,141.219 501.5,158.3481 " fill="none" id="Implementor&lt;-ConcreteImplementor1" style="stroke: #A80036; stroke-width: 1.0; stroke-dasharray: 7.0,7.0;"/><polygon fill="none" points="494.5001,99.7236,501.5,79.7236,508.5001,99.7236,494.5001,99.7236" style="stroke: #A80036; stroke-width: 1.0;"/><!--MD5=[212372eee9215ae08d6760503e5a521e]
reverse link Implementor to ConcreteImplementor2--><path d="M564.1361,90.7574 C596.6551,112.4367 635.6875,138.4583 665.4095,158.273 " fill="none" id="Implementor&lt;-ConcreteImplementor2" style="stroke: #A80036; stroke-width: 1.0; stroke-dasharray: 7.0,7.0;"/><polygon fill="none" points="560.084,96.469,547.3259,79.5506,567.8498,84.8203,560.084,96.469" style="stroke: #A80036; stroke-width: 1.0;"/><!--MD5=[07eb4876f32b0fc987fa40c9c707c0e4]
reverse link Abstraction to Implementor--><path d="M368.0578,49 C393.5247,49 418.9917,49 444.4586,49 " fill="none" id="Abstraction&lt;-Implementor" style="stroke: #A80036; stroke-width: 1.0;"/><polygon fill="#A80036" points="354.7402,49,360.7402,53,366.7402,49,360.7402,45,354.7402,49" style="stroke: #A80036; stroke-width: 1.0;"/><!--MD5=[d503ea1b21579059489ce5a98d377c76]
@startuml 桥模式
skinparam classAttributeIconSize 0

abstract class Abstraction {
  - impl: Implementor
  
  # Abstraction()
  operation(): void
}
class ConcreteAbstraction1 extends Abstraction {
  - impl: Implementor
  operation(): void
}
class ConcreteAbstraction2 extends Abstraction {
  - impl: Implementor
  operation(): void
}
interface Implementor {
  + operation(): void
}
class ConcreteImplementor1 implements Implementor {
  + operation(): void
}
class ConcreteImplementor2 implements Implementor {
  + operation(): void
}
note as N1
impl.operation()
end note

N1 .> Abstraction
Abstraction *- Implementor

@enduml

PlantUML version 1.2020.12(Sat Jun 06 10:54:15 UTC 2020)
(GPL source distribution)
Java Runtime: OpenJDK Runtime Environment
JVM: OpenJDK 64-Bit Server VM
Default Encoding: UTF-8
Language: en
Country: null
--></g></svg>