<?xml version="1.0" encoding="UTF-8" standalone="no"?><svg xmlns="http://www.w3.org/2000/svg" xmlns:xlink="http://www.w3.org/1999/xlink" contentScriptType="application/ecmascript" contentStyleType="text/css" height="279px" preserveAspectRatio="none" style="width:809px;height:279px;" version="1.1" viewBox="0 0 809 279" width="809px" zoomAndPan="magnify"><defs><filter height="300%" id="f1lthogmlpzupf" width="300%" x="-1" y="-1"><feGaussianBlur result="blurOut" stdDeviation="2.0"/><feColorMatrix in="blurOut" result="blurOut2" type="matrix" values="0 0 0 0 0 0 0 0 0 0 0 0 0 0 0 0 0 0 .4 0"/><feOffset dx="4.0" dy="4.0" in="blurOut2" result="blurOut3"/><feBlend in="SourceGraphic" in2="blurOut3" mode="normal"/></filter></defs><g><rect fill="#FEFECE" filter="url(#f1lthogmlpzupf)" height="36.2969" rx="12.5" ry="12.5" style="stroke: #A80036; stroke-width: 1.5;" width="48" x="10" y="122.0391"/><text fill="#000000" font-family="sans-serif" font-size="14" lengthAdjust="spacingAndGlyphs" textLength="28" x="20" y="145.0342">编程</text><rect fill="#FEFECE" filter="url(#f1lthogmlpzupf)" height="36.2969" rx="12.5" ry="12.5" style="stroke: #A80036; stroke-width: 1.5;" width="252" x="108" y="20"/><text fill="#000000" font-family="sans-serif" font-size="14" lengthAdjust="spacingAndGlyphs" textLength="232" x="118" y="42.9951">编程基础 -&gt; 架构、设计 -&gt; 项目管理</text><path d="M58,140.1875 L68,140.1875 C83,140.1875 83,38.1484 98,38.1484 L108,38.1484 " fill="none" style="stroke: #A80036; stroke-width: 1.0;"/><rect fill="#FEFECE" filter="url(#f1lthogmlpzupf)" height="36.2969" rx="12.5" ry="12.5" style="stroke: #A80036; stroke-width: 1.5;" width="76" x="108" y="76.2969"/><text fill="#000000" font-family="sans-serif" font-size="14" lengthAdjust="spacingAndGlyphs" textLength="56" x="118" y="99.292">软件设计</text><rect fill="#FEFECE" filter="url(#f1lthogmlpzupf)" height="36.2969" rx="12.5" ry="12.5" style="stroke: #A80036; stroke-width: 1.5;" width="272" x="234" y="76.2969"/><text fill="#000000" font-family="sans-serif" font-size="14" lengthAdjust="spacingAndGlyphs" textLength="252" x="244" y="99.292">设计应该贯穿于代码活动，“代码即设计”</text><path d="M184,94.4453 L194,94.4453 C209,94.4453 209,94.4453 224,94.4453 L234,94.4453 " fill="none" style="stroke: #A80036; stroke-width: 1.0;"/><path d="M58,140.1875 L68,140.1875 C83,140.1875 83,94.4453 98,94.4453 L108,94.4453 " fill="none" style="stroke: #A80036; stroke-width: 1.0;"/><rect fill="#FEFECE" filter="url(#f1lthogmlpzupf)" height="36.2969" rx="12.5" ry="12.5" style="stroke: #A80036; stroke-width: 1.5;" width="76" x="108" y="178.3359"/><text fill="#000000" font-family="sans-serif" font-size="14" lengthAdjust="spacingAndGlyphs" textLength="56" x="118" y="201.3311">软件架构</text><rect fill="#FEFECE" filter="url(#f1lthogmlpzupf)" height="36.2969" rx="12.5" ry="12.5" style="stroke: #A80036; stroke-width: 1.5;" width="412" x="234" y="132.5938"/><text fill="#000000" font-family="sans-serif" font-size="14" lengthAdjust="spacingAndGlyphs" textLength="392" x="244" y="155.5889">一系列相关的抽象模式，用于指导大型软件系统各个方面的设计</text><path d="M184,196.4844 L194,196.4844 C209,196.4844 209,150.7422 224,150.7422 L234,150.7422 " fill="none" style="stroke: #A80036; stroke-width: 1.0;"/><rect fill="#FEFECE" filter="url(#f1lthogmlpzupf)" height="36.2969" rx="12.5" ry="12.5" style="stroke: #A80036; stroke-width: 1.5;" width="300" x="234" y="206.4844"/><text fill="#000000" font-family="sans-serif" font-size="14" lengthAdjust="spacingAndGlyphs" textLength="280" x="244" y="229.4795">一个结构、行为和属性的高级抽象；组件通信</text><rect fill="#FEFECE" filter="url(#f1lthogmlpzupf)" height="36.2969" rx="12.5" ry="12.5" style="stroke: #A80036; stroke-width: 1.5;" width="48" x="584" y="206.4844"/><text fill="#000000" font-family="sans-serif" font-size="14" lengthAdjust="spacingAndGlyphs" textLength="28" x="594" y="229.4795">分类</text><text fill="#000000" font-family="sans-serif" font-size="14" lengthAdjust="spacingAndGlyphs" textLength="56" x="685" y="192.8857">分层架构</text><path d="M632,224.6328 L642,224.6328 C657,224.6328 657,188.0391 672,188.0391 L682,188.0391 " fill="none" style="stroke: #A80036; stroke-width: 1.0;"/><text fill="#000000" font-family="sans-serif" font-size="14" lengthAdjust="spacingAndGlyphs" textLength="84" x="685" y="211.1826">事件驱动架构</text><path d="M632,224.6328 L642,224.6328 C657,224.6328 657,206.3359 672,206.3359 L682,206.3359 " fill="none" style="stroke: #A80036; stroke-width: 1.0;"/><text fill="#000000" font-family="sans-serif" font-size="14" lengthAdjust="spacingAndGlyphs" textLength="112" x="685" y="229.4795">微核架构（插件）</text><path d="M632,224.6328 L642,224.6328 C657,224.6328 657,224.6328 672,224.6328 L682,224.6328 " fill="none" style="stroke: #A80036; stroke-width: 1.0;"/><text fill="#000000" font-family="sans-serif" font-size="14" lengthAdjust="spacingAndGlyphs" textLength="70" x="685" y="247.7764">微服务架构</text><path d="M632,224.6328 L642,224.6328 C657,224.6328 657,242.9297 672,242.9297 L682,242.9297 " fill="none" style="stroke: #A80036; stroke-width: 1.0;"/><text fill="#000000" font-family="sans-serif" font-size="14" lengthAdjust="spacingAndGlyphs" textLength="42" x="685" y="266.0732">云架构</text><path d="M632,224.6328 L642,224.6328 C657,224.6328 657,261.2266 672,261.2266 L682,261.2266 " fill="none" style="stroke: #A80036; stroke-width: 1.0;"/><path d="M534,224.6328 L544,224.6328 C559,224.6328 559,224.6328 574,224.6328 L584,224.6328 " fill="none" style="stroke: #A80036; stroke-width: 1.0;"/><path d="M184,196.4844 L194,196.4844 C209,196.4844 209,224.6328 224,224.6328 L234,224.6328 " fill="none" style="stroke: #A80036; stroke-width: 1.0;"/><path d="M58,140.1875 L68,140.1875 C83,140.1875 83,196.4844 98,196.4844 L108,196.4844 " fill="none" style="stroke: #A80036; stroke-width: 1.0;"/><!--MD5=[dd4b85f3f132852f0082a80db2adb03b]
@startmindmap 编程
+ 编程
++ 编程基础 -> 架构、设计 -> 项目管理

++ 软件设计
+++ 设计应该贯穿于代码活动，“代码即设计”

++ 软件架构
+++ 一系列相关的抽象模式，用于指导大型软件系统各个方面的设计
+++ 一个结构、行为和属性的高级抽象；组件通信
++++ 分类
+++++_ 分层架构
+++++_ 事件驱动架构
+++++_ 微核架构（插件）
+++++_ 微服务架构
+++++_ 云架构
@endmindmap

PlantUML version 1.2020.12(Sat Jun 06 10:54:15 UTC 2020)
(GPL source distribution)
Java Runtime: OpenJDK Runtime Environment
JVM: OpenJDK 64-Bit Server VM
Default Encoding: UTF-8
Language: en
Country: null
--></g></svg>