<?xml version="1.0" encoding="UTF-8" standalone="no"?><svg xmlns="http://www.w3.org/2000/svg" xmlns:xlink="http://www.w3.org/1999/xlink" contentScriptType="application/ecmascript" contentStyleType="text/css" height="306px" preserveAspectRatio="none" style="width:837px;height:306px;" version="1.1" viewBox="0 0 837 306" width="837px" zoomAndPan="magnify"><defs><filter height="300%" id="f9usabczw56p6" width="300%" x="-1" y="-1"><feGaussianBlur result="blurOut" stdDeviation="2.0"/><feColorMatrix in="blurOut" result="blurOut2" type="matrix" values="0 0 0 0 0 0 0 0 0 0 0 0 0 0 0 0 0 0 .4 0"/><feOffset dx="4.0" dy="4.0" in="blurOut2" result="blurOut3"/><feBlend in="SourceGraphic" in2="blurOut3" mode="normal"/></filter></defs><g><!--MD5=[dcda66dabdb739ec36f1175150e3c9d5]
class Factory--><rect fill="#FEFECE" filter="url(#f9usabczw56p6)" height="60.8047" id="Factory" style="stroke: #A80036; stroke-width: 1.5;" width="159" x="386.5" y="114"/><ellipse cx="438.75" cy="130" fill="#B4A7E5" rx="11" ry="11" style="stroke: #A80036; stroke-width: 1.0;"/><path d="M434.6719,125.7656 L434.6719,123.6094 L442.0625,123.6094 L442.0625,125.7656 L439.5938,125.7656 L439.5938,133.8438 L442.0625,133.8438 L442.0625,136 L434.6719,136 L434.6719,133.8438 L437.1406,133.8438 L437.1406,125.7656 L434.6719,125.7656 Z "/><text fill="#000000" font-family="sans-serif" font-size="12" font-style="italic" lengthAdjust="spacingAndGlyphs" textLength="46" x="459.25" y="134.1543">Factory</text><line style="stroke: #A80036; stroke-width: 1.5;" x1="387.5" x2="544.5" y1="146" y2="146"/><line style="stroke: #A80036; stroke-width: 1.5;" x1="387.5" x2="544.5" y1="154" y2="154"/><text fill="#000000" font-family="sans-serif" font-size="11" lengthAdjust="spacingAndGlyphs" text-decoration="underline" textLength="147" x="392.5" y="168.2104">+createProduct(): Product</text><!--MD5=[40032afdf3b7ba11206d848f1b965299]
class ConcreteFactory1--><rect fill="#FEFECE" filter="url(#f9usabczw56p6)" height="60.8047" id="ConcreteFactory1" style="stroke: #A80036; stroke-width: 1.5;" width="217" x="357.5" y="235"/><ellipse cx="406.25" cy="251" fill="#ADD1B2" rx="11" ry="11" style="stroke: #A80036; stroke-width: 1.0;"/><path d="M409.2188,256.6406 Q408.6406,256.9375 408,257.0781 Q407.3594,257.2344 406.6563,257.2344 Q404.1563,257.2344 402.8281,255.5938 Q401.5156,253.9375 401.5156,250.8125 Q401.5156,247.6875 402.8281,246.0313 Q404.1563,244.375 406.6563,244.375 Q407.3594,244.375 408,244.5313 Q408.6563,244.6875 409.2188,244.9844 L409.2188,247.7031 Q408.5938,247.125 408,246.8594 Q407.4063,246.5781 406.7813,246.5781 Q405.4375,246.5781 404.75,247.6563 Q404.0625,248.7188 404.0625,250.8125 Q404.0625,252.9063 404.75,253.9844 Q405.4375,255.0469 406.7813,255.0469 Q407.4063,255.0469 408,254.7813 Q408.5938,254.5 409.2188,253.9219 L409.2188,256.6406 Z "/><text fill="#000000" font-family="sans-serif" font-size="12" lengthAdjust="spacingAndGlyphs" textLength="111" x="426.75" y="255.1543">ConcreteFactory1</text><line style="stroke: #A80036; stroke-width: 1.5;" x1="358.5" x2="573.5" y1="267" y2="267"/><line style="stroke: #A80036; stroke-width: 1.5;" x1="358.5" x2="573.5" y1="275" y2="275"/><text fill="#000000" font-family="sans-serif" font-size="11" lengthAdjust="spacingAndGlyphs" text-decoration="underline" textLength="205" x="363.5" y="289.2104">+createProduct(): ConcreteProduct1</text><!--MD5=[e7b84ce2505fe77d924ba186871d0b8b]
class ConcreteFactory2--><rect fill="#FEFECE" filter="url(#f9usabczw56p6)" height="60.8047" id="ConcreteFactory2" style="stroke: #A80036; stroke-width: 1.5;" width="217" x="609.5" y="235"/><ellipse cx="658.25" cy="251" fill="#ADD1B2" rx="11" ry="11" style="stroke: #A80036; stroke-width: 1.0;"/><path d="M661.2188,256.6406 Q660.6406,256.9375 660,257.0781 Q659.3594,257.2344 658.6563,257.2344 Q656.1563,257.2344 654.8281,255.5938 Q653.5156,253.9375 653.5156,250.8125 Q653.5156,247.6875 654.8281,246.0313 Q656.1563,244.375 658.6563,244.375 Q659.3594,244.375 660,244.5313 Q660.6563,244.6875 661.2188,244.9844 L661.2188,247.7031 Q660.5938,247.125 660,246.8594 Q659.4063,246.5781 658.7813,246.5781 Q657.4375,246.5781 656.75,247.6563 Q656.0625,248.7188 656.0625,250.8125 Q656.0625,252.9063 656.75,253.9844 Q657.4375,255.0469 658.7813,255.0469 Q659.4063,255.0469 660,254.7813 Q660.5938,254.5 661.2188,253.9219 L661.2188,256.6406 Z "/><text fill="#000000" font-family="sans-serif" font-size="12" lengthAdjust="spacingAndGlyphs" textLength="111" x="678.75" y="255.1543">ConcreteFactory2</text><line style="stroke: #A80036; stroke-width: 1.5;" x1="610.5" x2="825.5" y1="267" y2="267"/><line style="stroke: #A80036; stroke-width: 1.5;" x1="610.5" x2="825.5" y1="275" y2="275"/><text fill="#000000" font-family="sans-serif" font-size="11" lengthAdjust="spacingAndGlyphs" text-decoration="underline" textLength="205" x="615.5" y="289.2104">+createProduct(): ConcreteProduct2</text><!--MD5=[72136138052d025cffdce3c22fbd185f]
class Product--><rect fill="#FEFECE" filter="url(#f9usabczw56p6)" height="48" id="Product" style="stroke: #A80036; stroke-width: 1.5;" width="81" x="219.5" y="6"/><ellipse cx="234.5" cy="22" fill="#B4A7E5" rx="11" ry="11" style="stroke: #A80036; stroke-width: 1.0;"/><path d="M230.4219,17.7656 L230.4219,15.6094 L237.8125,15.6094 L237.8125,17.7656 L235.3438,17.7656 L235.3438,25.8438 L237.8125,25.8438 L237.8125,28 L230.4219,28 L230.4219,25.8438 L232.8906,25.8438 L232.8906,17.7656 L230.4219,17.7656 Z "/><text fill="#000000" font-family="sans-serif" font-size="12" font-style="italic" lengthAdjust="spacingAndGlyphs" textLength="49" x="248.5" y="26.1543">Product</text><line style="stroke: #A80036; stroke-width: 1.5;" x1="220.5" x2="299.5" y1="38" y2="38"/><line style="stroke: #A80036; stroke-width: 1.5;" x1="220.5" x2="299.5" y1="46" y2="46"/><!--MD5=[9e1f217a44db012abe7b922da54c0dd9]
class ConcreteProduct1--><rect fill="#FEFECE" filter="url(#f9usabczw56p6)" height="48" id="ConcreteProduct1" style="stroke: #A80036; stroke-width: 1.5;" width="146" x="6" y="120.5"/><ellipse cx="21" cy="136.5" fill="#ADD1B2" rx="11" ry="11" style="stroke: #A80036; stroke-width: 1.0;"/><path d="M23.9688,142.1406 Q23.3906,142.4375 22.75,142.5781 Q22.1094,142.7344 21.4063,142.7344 Q18.9063,142.7344 17.5781,141.0938 Q16.2656,139.4375 16.2656,136.3125 Q16.2656,133.1875 17.5781,131.5313 Q18.9063,129.875 21.4063,129.875 Q22.1094,129.875 22.75,130.0313 Q23.4063,130.1875 23.9688,130.4844 L23.9688,133.2031 Q23.3438,132.625 22.75,132.3594 Q22.1563,132.0781 21.5313,132.0781 Q20.1875,132.0781 19.5,133.1563 Q18.8125,134.2188 18.8125,136.3125 Q18.8125,138.4063 19.5,139.4844 Q20.1875,140.5469 21.5313,140.5469 Q22.1563,140.5469 22.75,140.2813 Q23.3438,140 23.9688,139.4219 L23.9688,142.1406 Z "/><text fill="#000000" font-family="sans-serif" font-size="12" lengthAdjust="spacingAndGlyphs" textLength="114" x="35" y="140.6543">ConcreteProduct1</text><line style="stroke: #A80036; stroke-width: 1.5;" x1="7" x2="151" y1="152.5" y2="152.5"/><line style="stroke: #A80036; stroke-width: 1.5;" x1="7" x2="151" y1="160.5" y2="160.5"/><!--MD5=[7c2a1f0b305d4b6d9d46d9f16110c367]
class ConcreteProduct2--><rect fill="#FEFECE" filter="url(#f9usabczw56p6)" height="48" id="ConcreteProduct2" style="stroke: #A80036; stroke-width: 1.5;" width="146" x="187" y="120.5"/><ellipse cx="202" cy="136.5" fill="#ADD1B2" rx="11" ry="11" style="stroke: #A80036; stroke-width: 1.0;"/><path d="M204.9688,142.1406 Q204.3906,142.4375 203.75,142.5781 Q203.1094,142.7344 202.4063,142.7344 Q199.9063,142.7344 198.5781,141.0938 Q197.2656,139.4375 197.2656,136.3125 Q197.2656,133.1875 198.5781,131.5313 Q199.9063,129.875 202.4063,129.875 Q203.1094,129.875 203.75,130.0313 Q204.4063,130.1875 204.9688,130.4844 L204.9688,133.2031 Q204.3438,132.625 203.75,132.3594 Q203.1563,132.0781 202.5313,132.0781 Q201.1875,132.0781 200.5,133.1563 Q199.8125,134.2188 199.8125,136.3125 Q199.8125,138.4063 200.5,139.4844 Q201.1875,140.5469 202.5313,140.5469 Q203.1563,140.5469 203.75,140.2813 Q204.3438,140 204.9688,139.4219 L204.9688,142.1406 Z "/><text fill="#000000" font-family="sans-serif" font-size="12" lengthAdjust="spacingAndGlyphs" textLength="114" x="216" y="140.6543">ConcreteProduct2</text><line style="stroke: #A80036; stroke-width: 1.5;" x1="188" x2="332" y1="152.5" y2="152.5"/><line style="stroke: #A80036; stroke-width: 1.5;" x1="188" x2="332" y1="160.5" y2="160.5"/><!--MD5=[59ade520ef6dcbe54fac3c41491fa038]
reverse link Factory to ConcreteFactory1--><path d="M466,195.2927 C466,208.7857 466,222.9401 466,234.9764 " fill="none" id="Factory&lt;-ConcreteFactory1" style="stroke: #A80036; stroke-width: 1.0; stroke-dasharray: 7.0,7.0;"/><polygon fill="none" points="459.0001,195.0334,466,175.0334,473.0001,195.0334,459.0001,195.0334" style="stroke: #A80036; stroke-width: 1.0;"/><!--MD5=[5a67b6e97e055d43d44ef0d8ee82fd16]
reverse link Factory to ConcreteFactory2--><path d="M547.6899,183.7241 C582.3131,200.3488 622.0516,219.4295 654.4301,234.9764 " fill="none" id="Factory&lt;-ConcreteFactory2" style="stroke: #A80036; stroke-width: 1.0; stroke-dasharray: 7.0,7.0;"/><polygon fill="none" points="544.5896,190.0007,529.5902,175.0334,550.6495,177.3801,544.5896,190.0007" style="stroke: #A80036; stroke-width: 1.0;"/><!--MD5=[3e631a4e6bb7e408c66afd34fbd92e8d]
reverse link Product to ConcreteProduct1--><path d="M204.8041,64.9167 C176.4607,82.8467 142.6383,104.2426 117.2049,120.3317 " fill="none" id="Product&lt;-ConcreteProduct1" style="stroke: #A80036; stroke-width: 1.0; stroke-dasharray: 7.0,7.0;"/><polygon fill="none" points="201.4122,58.7794,222.0565,54.003,208.8967,70.6109,201.4122,58.7794" style="stroke: #A80036; stroke-width: 1.0;"/><!--MD5=[74652e2bb7add63ff19c45362af0f0c8]
reverse link Product to ConcreteProduct2--><path d="M260,74.0131 C260,89.6695 260,106.7233 260,120.1343 " fill="none" id="Product&lt;-ConcreteProduct2" style="stroke: #A80036; stroke-width: 1.0; stroke-dasharray: 7.0,7.0;"/><polygon fill="none" points="253.0001,74.003,260,54.003,267.0001,74.0029,253.0001,74.003" style="stroke: #A80036; stroke-width: 1.0;"/><!--MD5=[1ec873e556faee3994ebc079fc06781c]
reverse link Product to Factory--><path d="M305.2146,55.1314 C336.3477,72.436 377.8938,95.5283 410.9544,113.9043 " fill="none" id="Product&lt;-Factory" style="stroke: #A80036; stroke-width: 1.0; stroke-dasharray: 7.0,7.0;"/><polygon fill="#A80036" points="300.699,52.6215,306.6222,60.4902,305.0693,55.0506,310.5088,53.4977,300.699,52.6215" style="stroke: #A80036; stroke-width: 1.0;"/><!--MD5=[7470573ba9c43471138a1450d6a0f616]
reverse link ConcreteProduct1 to ConcreteFactory1--><path d="M150.4885,170.2868 C156.7357,172.4283 162.9717,174.5265 169,176.5 C231.7943,197.0575 302.6539,218.3629 359.4071,234.9726 " fill="none" id="ConcreteProduct1&lt;-ConcreteFactory1" style="stroke: #A80036; stroke-width: 1.0; stroke-dasharray: 7.0,7.0;"/><polygon fill="#A80036" points="145.7123,168.6421,152.9193,175.3547,150.4398,170.2702,155.5243,167.7907,145.7123,168.6421" style="stroke: #A80036; stroke-width: 1.0;"/><!--MD5=[48ab97adccb2fdce3c4761b60a94a94f]
reverse link ConcreteProduct2 to ConcreteFactory2--><path d="M323.0775,170.4512 C329.0943,172.614 335.1366,174.6694 341,176.5 C450.3406,210.6361 480.5562,208.5253 592,235 C597.6933,236.3525 603.5298,237.7449 609.4218,239.1551 " fill="none" id="ConcreteProduct2&lt;-ConcreteFactory2" style="stroke: #A80036; stroke-width: 1.0; stroke-dasharray: 7.0,7.0;"/><polygon fill="#A80036" points="318.0339,168.6117,325.1186,175.4533,322.7312,170.3249,327.8597,167.9375,318.0339,168.6117" style="stroke: #A80036; stroke-width: 1.0;"/><!--MD5=[cdcbb27f96c577ff2c9f9bf00c0f68d6]
@startuml 工厂方法
skinparam classAttributeIconSize 0

together {
  interface Factory {
    +{static} createProduct(): Product
  }
  class ConcreteFactory1 implements Factory {
    +{static} createProduct(): ConcreteProduct1
  }
  class ConcreteFactory2 implements Factory {
    +{static} createProduct(): ConcreteProduct2
  }
}
together {
  interface Product {}
  class ConcreteProduct1 implements Product {}
  class ConcreteProduct2 implements Product {}
}

Product <.. Factory
ConcreteProduct1 <.. ConcreteFactory1
ConcreteProduct2 <.. ConcreteFactory2
@enduml

PlantUML version 1.2020.12(Sat Jun 06 10:54:15 UTC 2020)
(GPL source distribution)
Java Runtime: OpenJDK Runtime Environment
JVM: OpenJDK 64-Bit Server VM
Default Encoding: UTF-8
Language: en
Country: null
--></g></svg>