<?xml version="1.0" encoding="UTF-8" standalone="no"?><svg xmlns="http://www.w3.org/2000/svg" xmlns:xlink="http://www.w3.org/1999/xlink" contentScriptType="application/ecmascript" contentStyleType="text/css" height="198px" preserveAspectRatio="none" style="width:848px;height:198px;" version="1.1" viewBox="0 0 848 198" width="848px" zoomAndPan="magnify"><defs><filter height="300%" id="f1gvskb6y7gaik" width="300%" x="-1" y="-1"><feGaussianBlur result="blurOut" stdDeviation="2.0"/><feColorMatrix in="blurOut" result="blurOut2" type="matrix" values="0 0 0 0 0 0 0 0 0 0 0 0 0 0 0 0 0 0 .4 0"/><feOffset dx="4.0" dy="4.0" in="blurOut2" result="blurOut3"/><feBlend in="SourceGraphic" in2="blurOut3" mode="normal"/></filter></defs><g><!--MD5=[dcda66dabdb739ec36f1175150e3c9d5]
class Factory--><rect fill="#FEFECE" filter="url(#f1gvskb6y7gaik)" height="60.8047" id="Factory" style="stroke: #A80036; stroke-width: 1.5;" width="159" x="287" y="6"/><ellipse cx="339.25" cy="22" fill="#B4A7E5" rx="11" ry="11" style="stroke: #A80036; stroke-width: 1.0;"/><path d="M335.1719,17.7656 L335.1719,15.6094 L342.5625,15.6094 L342.5625,17.7656 L340.0938,17.7656 L340.0938,25.8438 L342.5625,25.8438 L342.5625,28 L335.1719,28 L335.1719,25.8438 L337.6406,25.8438 L337.6406,17.7656 L335.1719,17.7656 Z "/><text fill="#000000" font-family="sans-serif" font-size="12" font-style="italic" lengthAdjust="spacingAndGlyphs" textLength="46" x="359.75" y="26.1543">Factory</text><line style="stroke: #A80036; stroke-width: 1.5;" x1="288" x2="445" y1="38" y2="38"/><line style="stroke: #A80036; stroke-width: 1.5;" x1="288" x2="445" y1="46" y2="46"/><text fill="#000000" font-family="sans-serif" font-size="11" lengthAdjust="spacingAndGlyphs" text-decoration="underline" textLength="147" x="293" y="60.2104">+createProduct(): Product</text><!--MD5=[40032afdf3b7ba11206d848f1b965299]
class ConcreteFactory1--><rect fill="#FEFECE" filter="url(#f1gvskb6y7gaik)" height="60.8047" id="ConcreteFactory1" style="stroke: #A80036; stroke-width: 1.5;" width="217" x="6" y="127"/><ellipse cx="54.75" cy="143" fill="#ADD1B2" rx="11" ry="11" style="stroke: #A80036; stroke-width: 1.0;"/><path d="M57.7188,148.6406 Q57.1406,148.9375 56.5,149.0781 Q55.8594,149.2344 55.1563,149.2344 Q52.6563,149.2344 51.3281,147.5938 Q50.0156,145.9375 50.0156,142.8125 Q50.0156,139.6875 51.3281,138.0313 Q52.6563,136.375 55.1563,136.375 Q55.8594,136.375 56.5,136.5313 Q57.1563,136.6875 57.7188,136.9844 L57.7188,139.7031 Q57.0938,139.125 56.5,138.8594 Q55.9063,138.5781 55.2813,138.5781 Q53.9375,138.5781 53.25,139.6563 Q52.5625,140.7188 52.5625,142.8125 Q52.5625,144.9063 53.25,145.9844 Q53.9375,147.0469 55.2813,147.0469 Q55.9063,147.0469 56.5,146.7813 Q57.0938,146.5 57.7188,145.9219 L57.7188,148.6406 Z "/><text fill="#000000" font-family="sans-serif" font-size="12" lengthAdjust="spacingAndGlyphs" textLength="111" x="75.25" y="147.1543">ConcreteFactory1</text><line style="stroke: #A80036; stroke-width: 1.5;" x1="7" x2="222" y1="159" y2="159"/><line style="stroke: #A80036; stroke-width: 1.5;" x1="7" x2="222" y1="167" y2="167"/><text fill="#000000" font-family="sans-serif" font-size="11" lengthAdjust="spacingAndGlyphs" text-decoration="underline" textLength="205" x="12" y="181.2104">+createProduct(): ConcreteProduct1</text><!--MD5=[e7b84ce2505fe77d924ba186871d0b8b]
class ConcreteFactory2--><rect fill="#FEFECE" filter="url(#f1gvskb6y7gaik)" height="60.8047" id="ConcreteFactory2" style="stroke: #A80036; stroke-width: 1.5;" width="217" x="258" y="127"/><ellipse cx="306.75" cy="143" fill="#ADD1B2" rx="11" ry="11" style="stroke: #A80036; stroke-width: 1.0;"/><path d="M309.7188,148.6406 Q309.1406,148.9375 308.5,149.0781 Q307.8594,149.2344 307.1563,149.2344 Q304.6563,149.2344 303.3281,147.5938 Q302.0156,145.9375 302.0156,142.8125 Q302.0156,139.6875 303.3281,138.0313 Q304.6563,136.375 307.1563,136.375 Q307.8594,136.375 308.5,136.5313 Q309.1563,136.6875 309.7188,136.9844 L309.7188,139.7031 Q309.0938,139.125 308.5,138.8594 Q307.9063,138.5781 307.2813,138.5781 Q305.9375,138.5781 305.25,139.6563 Q304.5625,140.7188 304.5625,142.8125 Q304.5625,144.9063 305.25,145.9844 Q305.9375,147.0469 307.2813,147.0469 Q307.9063,147.0469 308.5,146.7813 Q309.0938,146.5 309.7188,145.9219 L309.7188,148.6406 Z "/><text fill="#000000" font-family="sans-serif" font-size="12" lengthAdjust="spacingAndGlyphs" textLength="111" x="327.25" y="147.1543">ConcreteFactory2</text><line style="stroke: #A80036; stroke-width: 1.5;" x1="259" x2="474" y1="159" y2="159"/><line style="stroke: #A80036; stroke-width: 1.5;" x1="259" x2="474" y1="167" y2="167"/><text fill="#000000" font-family="sans-serif" font-size="11" lengthAdjust="spacingAndGlyphs" text-decoration="underline" textLength="205" x="264" y="181.2104">+createProduct(): ConcreteProduct2</text><!--MD5=[72136138052d025cffdce3c22fbd185f]
class Product--><rect fill="#FEFECE" filter="url(#f1gvskb6y7gaik)" height="48" id="Product" style="stroke: #A80036; stroke-width: 1.5;" width="81" x="543" y="12.5"/><ellipse cx="558" cy="28.5" fill="#B4A7E5" rx="11" ry="11" style="stroke: #A80036; stroke-width: 1.0;"/><path d="M553.9219,24.2656 L553.9219,22.1094 L561.3125,22.1094 L561.3125,24.2656 L558.8438,24.2656 L558.8438,32.3438 L561.3125,32.3438 L561.3125,34.5 L553.9219,34.5 L553.9219,32.3438 L556.3906,32.3438 L556.3906,24.2656 L553.9219,24.2656 Z "/><text fill="#000000" font-family="sans-serif" font-size="12" font-style="italic" lengthAdjust="spacingAndGlyphs" textLength="49" x="572" y="32.6543">Product</text><line style="stroke: #A80036; stroke-width: 1.5;" x1="544" x2="623" y1="44.5" y2="44.5"/><line style="stroke: #A80036; stroke-width: 1.5;" x1="544" x2="623" y1="52.5" y2="52.5"/><!--MD5=[9e1f217a44db012abe7b922da54c0dd9]
class ConcreteProduct1--><rect fill="#FEFECE" filter="url(#f1gvskb6y7gaik)" height="48" id="ConcreteProduct1" style="stroke: #A80036; stroke-width: 1.5;" width="146" x="510.5" y="133.5"/><ellipse cx="525.5" cy="149.5" fill="#ADD1B2" rx="11" ry="11" style="stroke: #A80036; stroke-width: 1.0;"/><path d="M528.4688,155.1406 Q527.8906,155.4375 527.25,155.5781 Q526.6094,155.7344 525.9063,155.7344 Q523.4063,155.7344 522.0781,154.0938 Q520.7656,152.4375 520.7656,149.3125 Q520.7656,146.1875 522.0781,144.5313 Q523.4063,142.875 525.9063,142.875 Q526.6094,142.875 527.25,143.0313 Q527.9063,143.1875 528.4688,143.4844 L528.4688,146.2031 Q527.8438,145.625 527.25,145.3594 Q526.6563,145.0781 526.0313,145.0781 Q524.6875,145.0781 524,146.1563 Q523.3125,147.2188 523.3125,149.3125 Q523.3125,151.4063 524,152.4844 Q524.6875,153.5469 526.0313,153.5469 Q526.6563,153.5469 527.25,153.2813 Q527.8438,153 528.4688,152.4219 L528.4688,155.1406 Z "/><text fill="#000000" font-family="sans-serif" font-size="12" lengthAdjust="spacingAndGlyphs" textLength="114" x="539.5" y="153.6543">ConcreteProduct1</text><line style="stroke: #A80036; stroke-width: 1.5;" x1="511.5" x2="655.5" y1="165.5" y2="165.5"/><line style="stroke: #A80036; stroke-width: 1.5;" x1="511.5" x2="655.5" y1="173.5" y2="173.5"/><!--MD5=[7c2a1f0b305d4b6d9d46d9f16110c367]
class ConcreteProduct2--><rect fill="#FEFECE" filter="url(#f1gvskb6y7gaik)" height="48" id="ConcreteProduct2" style="stroke: #A80036; stroke-width: 1.5;" width="146" x="691.5" y="133.5"/><ellipse cx="706.5" cy="149.5" fill="#ADD1B2" rx="11" ry="11" style="stroke: #A80036; stroke-width: 1.0;"/><path d="M709.4688,155.1406 Q708.8906,155.4375 708.25,155.5781 Q707.6094,155.7344 706.9063,155.7344 Q704.4063,155.7344 703.0781,154.0938 Q701.7656,152.4375 701.7656,149.3125 Q701.7656,146.1875 703.0781,144.5313 Q704.4063,142.875 706.9063,142.875 Q707.6094,142.875 708.25,143.0313 Q708.9063,143.1875 709.4688,143.4844 L709.4688,146.2031 Q708.8438,145.625 708.25,145.3594 Q707.6563,145.0781 707.0313,145.0781 Q705.6875,145.0781 705,146.1563 Q704.3125,147.2188 704.3125,149.3125 Q704.3125,151.4063 705,152.4844 Q705.6875,153.5469 707.0313,153.5469 Q707.6563,153.5469 708.25,153.2813 Q708.8438,153 709.4688,152.4219 L709.4688,155.1406 Z "/><text fill="#000000" font-family="sans-serif" font-size="12" lengthAdjust="spacingAndGlyphs" textLength="114" x="720.5" y="153.6543">ConcreteProduct2</text><line style="stroke: #A80036; stroke-width: 1.5;" x1="692.5" x2="836.5" y1="165.5" y2="165.5"/><line style="stroke: #A80036; stroke-width: 1.5;" x1="692.5" x2="836.5" y1="173.5" y2="173.5"/><!--MD5=[3e631a4e6bb7e408c66afd34fbd92e8d]
reverse link Product to ConcreteProduct1--><path d="M583.5,80.8886 C583.5,98.6241 583.5,118.3519 583.5,133.3466 " fill="none" id="Product&lt;-ConcreteProduct1" style="stroke: #A80036; stroke-width: 1.0; stroke-dasharray: 7.0,7.0;"/><polygon fill="none" points="576.5001,80.6954,583.5,60.6953,590.5001,80.6953,576.5001,80.6954" style="stroke: #A80036; stroke-width: 1.0;"/><!--MD5=[74652e2bb7add63ff19c45362af0f0c8]
reverse link Product to ConcreteProduct2--><path d="M636.652,72.0325 C666.171,91.7662 702.1192,115.7979 728.3697,133.3466 " fill="none" id="Product&lt;-ConcreteProduct2" style="stroke: #A80036; stroke-width: 1.0; stroke-dasharray: 7.0,7.0;"/><polygon fill="none" points="632.4296,77.63,619.693,60.6953,640.2102,65.9912,632.4296,77.63" style="stroke: #A80036; stroke-width: 1.0;"/><!--MD5=[17d6d022d25b0e9bc9752353f3576132]
link Factory to Product--><path d="M446.1797,36.5 C476.604,36.5 507.0284,36.5 537.4528,36.5 " fill="none" id="Factory-&gt;Product" style="stroke: #A80036; stroke-width: 1.0; stroke-dasharray: 7.0,7.0;"/><polygon fill="#A80036" points="542.733,36.5,533.733,32.5,537.733,36.5,533.733,40.5,542.733,36.5" style="stroke: #A80036; stroke-width: 1.0;"/><!--MD5=[59ade520ef6dcbe54fac3c41491fa038]
reverse link Factory to ConcreteFactory1--><path d="M284.8101,75.7241 C250.1869,92.3488 210.4484,111.4295 178.0699,126.9764 " fill="none" id="Factory&lt;-ConcreteFactory1" style="stroke: #A80036; stroke-width: 1.0; stroke-dasharray: 7.0,7.0;"/><polygon fill="none" points="281.8505,69.3801,302.9098,67.0334,287.9104,82.0007,281.8505,69.3801" style="stroke: #A80036; stroke-width: 1.0;"/><!--MD5=[5a67b6e97e055d43d44ef0d8ee82fd16]
reverse link Factory to ConcreteFactory2--><path d="M366.5,87.2927 C366.5,100.7857 366.5,114.9401 366.5,126.9764 " fill="none" id="Factory&lt;-ConcreteFactory2" style="stroke: #A80036; stroke-width: 1.0; stroke-dasharray: 7.0,7.0;"/><polygon fill="none" points="359.5001,87.0334,366.5,67.0334,373.5001,87.0334,359.5001,87.0334" style="stroke: #A80036; stroke-width: 1.0;"/><!--MD5=[4b77d5c4e20851d62ef222a8bd2510fa]
@startuml 工厂方法
skinparam classAttributeIconSize 0

together {
  interface Factory {
    +{static} createProduct(): Product
  }
  class ConcreteFactory1 {
    +{static} createProduct(): ConcreteProduct1
  }
  class ConcreteFactory2 {
    +{static} createProduct(): ConcreteProduct2
  }
}
together {
  interface Product {}
  class ConcreteProduct1 {}
  class ConcreteProduct2 {}
}

Product <|.. ConcreteProduct1
Product <|.. ConcreteProduct2
Factory .> Product
Factory <|.. ConcreteFactory1
Factory <|.. ConcreteFactory2
@enduml

PlantUML version 1.2020.12(Sat Jun 06 10:54:15 UTC 2020)
(GPL source distribution)
Java Runtime: OpenJDK Runtime Environment
JVM: OpenJDK 64-Bit Server VM
Default Encoding: UTF-8
Language: en
Country: null
--></g></svg>