<?xml version="1.0" encoding="UTF-8" standalone="no"?><svg xmlns="http://www.w3.org/2000/svg" xmlns:xlink="http://www.w3.org/1999/xlink" contentScriptType="application/ecmascript" contentStyleType="text/css" height="249px" preserveAspectRatio="none" style="width:959px;height:249px;" version="1.1" viewBox="0 0 959 249" width="959px" zoomAndPan="magnify"><defs><filter height="300%" id="fx59w7g4gmwp0" width="300%" x="-1" y="-1"><feGaussianBlur result="blurOut" stdDeviation="2.0"/><feColorMatrix in="blurOut" result="blurOut2" type="matrix" values="0 0 0 0 0 0 0 0 0 0 0 0 0 0 0 0 0 0 .4 0"/><feOffset dx="4.0" dy="4.0" in="blurOut2" result="blurOut3"/><feBlend in="SourceGraphic" in2="blurOut3" mode="normal"/></filter></defs><g><!--MD5=[53bf68ed638bcf4718423098b3d480ea]
class Visitor--><rect fill="#FEFECE" filter="url(#fx59w7g4gmwp0)" height="73.6094" id="Visitor" style="stroke: #A80036; stroke-width: 1.5;" width="241" x="281" y="18.5"/><ellipse cx="377.75" cy="34.5" fill="#B4A7E5" rx="11" ry="11" style="stroke: #A80036; stroke-width: 1.0;"/><path d="M373.6719,30.2656 L373.6719,28.1094 L381.0625,28.1094 L381.0625,30.2656 L378.5938,30.2656 L378.5938,38.3438 L381.0625,38.3438 L381.0625,40.5 L373.6719,40.5 L373.6719,38.3438 L376.1406,38.3438 L376.1406,30.2656 L373.6719,30.2656 Z "/><text fill="#000000" font-family="sans-serif" font-size="12" font-style="italic" lengthAdjust="spacingAndGlyphs" textLength="39" x="398.25" y="38.6543">Visitor</text><line style="stroke: #A80036; stroke-width: 1.5;" x1="282" x2="521" y1="50.5" y2="50.5"/><line style="stroke: #A80036; stroke-width: 1.5;" x1="282" x2="521" y1="58.5" y2="58.5"/><text fill="#000000" font-family="sans-serif" font-size="11" lengthAdjust="spacingAndGlyphs" textLength="229" x="287" y="72.7104">+visit(element: ConcreteElement1): void</text><text fill="#000000" font-family="sans-serif" font-size="11" lengthAdjust="spacingAndGlyphs" textLength="229" x="287" y="85.5151">+visit(element: ConcreteElement2): void</text><!--MD5=[b87b34b2ac37480ea8f28c1399a93c02]
class ConcreteVisitor1--><rect fill="#FEFECE" filter="url(#fx59w7g4gmwp0)" height="73.6094" id="ConcreteVisitor1" style="stroke: #A80036; stroke-width: 1.5;" width="241" x="6" y="165"/><ellipse cx="70.25" cy="181" fill="#ADD1B2" rx="11" ry="11" style="stroke: #A80036; stroke-width: 1.0;"/><path d="M73.2188,186.6406 Q72.6406,186.9375 72,187.0781 Q71.3594,187.2344 70.6563,187.2344 Q68.1563,187.2344 66.8281,185.5938 Q65.5156,183.9375 65.5156,180.8125 Q65.5156,177.6875 66.8281,176.0313 Q68.1563,174.375 70.6563,174.375 Q71.3594,174.375 72,174.5313 Q72.6563,174.6875 73.2188,174.9844 L73.2188,177.7031 Q72.5938,177.125 72,176.8594 Q71.4063,176.5781 70.7813,176.5781 Q69.4375,176.5781 68.75,177.6563 Q68.0625,178.7188 68.0625,180.8125 Q68.0625,182.9063 68.75,183.9844 Q69.4375,185.0469 70.7813,185.0469 Q71.4063,185.0469 72,184.7813 Q72.5938,184.5 73.2188,183.9219 L73.2188,186.6406 Z "/><text fill="#000000" font-family="sans-serif" font-size="12" lengthAdjust="spacingAndGlyphs" textLength="104" x="90.75" y="185.1543">ConcreteVisitor1</text><line style="stroke: #A80036; stroke-width: 1.5;" x1="7" x2="246" y1="197" y2="197"/><line style="stroke: #A80036; stroke-width: 1.5;" x1="7" x2="246" y1="205" y2="205"/><text fill="#000000" font-family="sans-serif" font-size="11" lengthAdjust="spacingAndGlyphs" textLength="229" x="12" y="219.2104">+visit(element: ConcreteElement1): void</text><text fill="#000000" font-family="sans-serif" font-size="11" lengthAdjust="spacingAndGlyphs" textLength="229" x="12" y="232.0151">+visit(element: ConcreteElement2): void</text><!--MD5=[b41111110bb8402dc96a2933421753b6]
class ConcreteVisitor2--><rect fill="#FEFECE" filter="url(#fx59w7g4gmwp0)" height="73.6094" id="ConcreteVisitor2" style="stroke: #A80036; stroke-width: 1.5;" width="241" x="282" y="165"/><ellipse cx="346.25" cy="181" fill="#ADD1B2" rx="11" ry="11" style="stroke: #A80036; stroke-width: 1.0;"/><path d="M349.2188,186.6406 Q348.6406,186.9375 348,187.0781 Q347.3594,187.2344 346.6563,187.2344 Q344.1563,187.2344 342.8281,185.5938 Q341.5156,183.9375 341.5156,180.8125 Q341.5156,177.6875 342.8281,176.0313 Q344.1563,174.375 346.6563,174.375 Q347.3594,174.375 348,174.5313 Q348.6563,174.6875 349.2188,174.9844 L349.2188,177.7031 Q348.5938,177.125 348,176.8594 Q347.4063,176.5781 346.7813,176.5781 Q345.4375,176.5781 344.75,177.6563 Q344.0625,178.7188 344.0625,180.8125 Q344.0625,182.9063 344.75,183.9844 Q345.4375,185.0469 346.7813,185.0469 Q347.4063,185.0469 348,184.7813 Q348.5938,184.5 349.2188,183.9219 L349.2188,186.6406 Z "/><text fill="#000000" font-family="sans-serif" font-size="12" lengthAdjust="spacingAndGlyphs" textLength="104" x="366.75" y="185.1543">ConcreteVisitor2</text><line style="stroke: #A80036; stroke-width: 1.5;" x1="283" x2="522" y1="197" y2="197"/><line style="stroke: #A80036; stroke-width: 1.5;" x1="283" x2="522" y1="205" y2="205"/><text fill="#000000" font-family="sans-serif" font-size="11" lengthAdjust="spacingAndGlyphs" textLength="229" x="288" y="219.2104">+visit(element: ConcreteElement1): void</text><text fill="#000000" font-family="sans-serif" font-size="11" lengthAdjust="spacingAndGlyphs" textLength="229" x="288" y="232.0151">+visit(element: ConcreteElement2): void</text><!--MD5=[95174e42ee347a14b6cb78d6855f19b5]
class Element--><rect fill="#FEFECE" filter="url(#fx59w7g4gmwp0)" height="73.6094" id="Element" style="stroke: #A80036; stroke-width: 1.5;" width="180" x="557.5" y="18.5"/><ellipse cx="617.75" cy="34.5" fill="#B4A7E5" rx="11" ry="11" style="stroke: #A80036; stroke-width: 1.0;"/><path d="M613.6719,30.2656 L613.6719,28.1094 L621.0625,28.1094 L621.0625,30.2656 L618.5938,30.2656 L618.5938,38.3438 L621.0625,38.3438 L621.0625,40.5 L613.6719,40.5 L613.6719,38.3438 L616.1406,38.3438 L616.1406,30.2656 L613.6719,30.2656 Z "/><text fill="#000000" font-family="sans-serif" font-size="12" font-style="italic" lengthAdjust="spacingAndGlyphs" textLength="51" x="638.25" y="38.6543">Element</text><line style="stroke: #A80036; stroke-width: 1.5;" x1="558.5" x2="736.5" y1="50.5" y2="50.5"/><line style="stroke: #A80036; stroke-width: 1.5;" x1="558.5" x2="736.5" y1="58.5" y2="58.5"/><text fill="#000000" font-family="sans-serif" font-size="11" lengthAdjust="spacingAndGlyphs" textLength="164" x="563.5" y="72.7104">+accept(visitor: Visitor): void</text><text fill="#000000" font-family="sans-serif" font-size="11" lengthAdjust="spacingAndGlyphs" textLength="70" x="579.5" y="85.5151">visitor.visit()</text><!--MD5=[29b6f46fff663e6685b02964a8b50de2]
class ConcreteElement1--><rect fill="#FEFECE" filter="url(#fx59w7g4gmwp0)" height="60.8047" id="ConcreteElement1" style="stroke: #A80036; stroke-width: 1.5;" width="176" x="559.5" y="171.5"/><ellipse cx="587.1" cy="187.5" fill="#ADD1B2" rx="11" ry="11" style="stroke: #A80036; stroke-width: 1.0;"/><path d="M590.0688,193.1406 Q589.4906,193.4375 588.85,193.5781 Q588.2094,193.7344 587.5063,193.7344 Q585.0063,193.7344 583.6781,192.0938 Q582.3656,190.4375 582.3656,187.3125 Q582.3656,184.1875 583.6781,182.5313 Q585.0063,180.875 587.5063,180.875 Q588.2094,180.875 588.85,181.0313 Q589.5063,181.1875 590.0688,181.4844 L590.0688,184.2031 Q589.4438,183.625 588.85,183.3594 Q588.2563,183.0781 587.6313,183.0781 Q586.2875,183.0781 585.6,184.1563 Q584.9125,185.2188 584.9125,187.3125 Q584.9125,189.4063 585.6,190.4844 Q586.2875,191.5469 587.6313,191.5469 Q588.2563,191.5469 588.85,191.2813 Q589.4438,191 590.0688,190.4219 L590.0688,193.1406 Z "/><text fill="#000000" font-family="sans-serif" font-size="12" lengthAdjust="spacingAndGlyphs" textLength="116" x="603.9" y="191.6543">ConcreteElement1</text><line style="stroke: #A80036; stroke-width: 1.5;" x1="560.5" x2="734.5" y1="203.5" y2="203.5"/><line style="stroke: #A80036; stroke-width: 1.5;" x1="560.5" x2="734.5" y1="211.5" y2="211.5"/><text fill="#000000" font-family="sans-serif" font-size="11" lengthAdjust="spacingAndGlyphs" textLength="164" x="565.5" y="225.7104">+accept(visitor: Visitor): void</text><!--MD5=[673d62689c2f43b20113d9fd8a04129d]
class ConcreteElement2--><rect fill="#FEFECE" filter="url(#fx59w7g4gmwp0)" height="60.8047" id="ConcreteElement2" style="stroke: #A80036; stroke-width: 1.5;" width="176" x="770.5" y="171.5"/><ellipse cx="798.1" cy="187.5" fill="#ADD1B2" rx="11" ry="11" style="stroke: #A80036; stroke-width: 1.0;"/><path d="M801.0688,193.1406 Q800.4906,193.4375 799.85,193.5781 Q799.2094,193.7344 798.5063,193.7344 Q796.0063,193.7344 794.6781,192.0938 Q793.3656,190.4375 793.3656,187.3125 Q793.3656,184.1875 794.6781,182.5313 Q796.0063,180.875 798.5063,180.875 Q799.2094,180.875 799.85,181.0313 Q800.5063,181.1875 801.0688,181.4844 L801.0688,184.2031 Q800.4438,183.625 799.85,183.3594 Q799.2563,183.0781 798.6313,183.0781 Q797.2875,183.0781 796.6,184.1563 Q795.9125,185.2188 795.9125,187.3125 Q795.9125,189.4063 796.6,190.4844 Q797.2875,191.5469 798.6313,191.5469 Q799.2563,191.5469 799.85,191.2813 Q800.4438,191 801.0688,190.4219 L801.0688,193.1406 Z "/><text fill="#000000" font-family="sans-serif" font-size="12" lengthAdjust="spacingAndGlyphs" textLength="116" x="814.9" y="191.6543">ConcreteElement2</text><line style="stroke: #A80036; stroke-width: 1.5;" x1="771.5" x2="945.5" y1="203.5" y2="203.5"/><line style="stroke: #A80036; stroke-width: 1.5;" x1="771.5" x2="945.5" y1="211.5" y2="211.5"/><text fill="#000000" font-family="sans-serif" font-size="11" lengthAdjust="spacingAndGlyphs" textLength="164" x="776.5" y="225.7104">+accept(visitor: Visitor): void</text><!--MD5=[1af0d3a5d6ac04f9f29c14fd54eb43aa]
class ObjectStructure--><rect fill="#FEFECE" filter="url(#fx59w7g4gmwp0)" height="99.2188" id="ObjectStructure" style="stroke: #A80036; stroke-width: 1.5;" width="176" x="772.5" y="6"/><ellipse cx="807.75" cy="22" fill="#ADD1B2" rx="11" ry="11" style="stroke: #A80036; stroke-width: 1.0;"/><path d="M810.7188,27.6406 Q810.1406,27.9375 809.5,28.0781 Q808.8594,28.2344 808.1563,28.2344 Q805.6563,28.2344 804.3281,26.5938 Q803.0156,24.9375 803.0156,21.8125 Q803.0156,18.6875 804.3281,17.0313 Q805.6563,15.375 808.1563,15.375 Q808.8594,15.375 809.5,15.5313 Q810.1563,15.6875 810.7188,15.9844 L810.7188,18.7031 Q810.0938,18.125 809.5,17.8594 Q808.9063,17.5781 808.2813,17.5781 Q806.9375,17.5781 806.25,18.6563 Q805.5625,19.7188 805.5625,21.8125 Q805.5625,23.9063 806.25,24.9844 Q806.9375,26.0469 808.2813,26.0469 Q808.9063,26.0469 809.5,25.7813 Q810.0938,25.5 810.7188,24.9219 L810.7188,27.6406 Z "/><text fill="#000000" font-family="sans-serif" font-size="12" lengthAdjust="spacingAndGlyphs" textLength="99" x="826.25" y="26.1543">ObjectStructure</text><line style="stroke: #A80036; stroke-width: 1.5;" x1="773.5" x2="947.5" y1="38" y2="38"/><text fill="#000000" font-family="sans-serif" font-size="11" lengthAdjust="spacingAndGlyphs" textLength="83" x="778.5" y="52.2104">-list: Element[]</text><line style="stroke: #A80036; stroke-width: 1.5;" x1="773.5" x2="947.5" y1="58.8047" y2="58.8047"/><text fill="#000000" font-family="sans-serif" font-size="11" lengthAdjust="spacingAndGlyphs" textLength="38" x="778.5" y="73.0151">+add()</text><text fill="#000000" font-family="sans-serif" font-size="11" lengthAdjust="spacingAndGlyphs" textLength="60" x="778.5" y="85.8198">+remove()</text><text fill="#000000" font-family="sans-serif" font-size="11" lengthAdjust="spacingAndGlyphs" textLength="164" x="778.5" y="98.6245">+accept(visitor: Visitor): void</text><!--MD5=[5c37cac85ae42345de7b1a66237aaaaa]
reverse link Visitor to ConcreteVisitor1--><path d="M313.8971,102.1685 C275.863,122.4302 231.9361,145.8313 196.1753,164.8821 " fill="none" id="Visitor&lt;-ConcreteVisitor1" style="stroke: #A80036; stroke-width: 1.0; stroke-dasharray: 7.0,7.0;"/><polygon fill="none" points="310.8077,95.883,331.7504,92.6575,317.3901,108.239,310.8077,95.883" style="stroke: #A80036; stroke-width: 1.0;"/><!--MD5=[2ae05fa6140d86554bc8ecaef7baf66b]
reverse link Visitor to ConcreteVisitor2--><path d="M401.892,112.9212 C402.0114,130.4267 402.1396,149.1988 402.2473,164.9749 " fill="none" id="Visitor&lt;-ConcreteVisitor2" style="stroke: #A80036; stroke-width: 1.0; stroke-dasharray: 7.0,7.0;"/><polygon fill="none" points="394.8917,112.8945,401.7549,92.8472,408.8914,112.7989,394.8917,112.8945" style="stroke: #A80036; stroke-width: 1.0;"/><!--MD5=[ae45126df9ed0c9aa2f684ca5b187bf8]
reverse link Element to ConcreteElement1--><path d="M647.5,113.041 C647.5,132.8587 647.5,154.2863 647.5,171.1451 " fill="none" id="Element&lt;-ConcreteElement1" style="stroke: #A80036; stroke-width: 1.0; stroke-dasharray: 7.0,7.0;"/><polygon fill="none" points="640.5001,112.8472,647.5,92.8472,654.5001,112.8472,640.5001,112.8472" style="stroke: #A80036; stroke-width: 1.0;"/><!--MD5=[62769e2bdaca702e1d7f14935cc0645a]
reverse link Element to ConcreteElement2--><path d="M717.6623,104.2146 C749.5572,126.3596 786.3239,151.8872 814.2921,171.3059 " fill="none" id="Element&lt;-ConcreteElement2" style="stroke: #A80036; stroke-width: 1.0; stroke-dasharray: 7.0,7.0;"/><polygon fill="none" points="713.4531,109.814,701.017,92.6575,721.4377,98.3141,713.4531,109.814" style="stroke: #A80036; stroke-width: 1.0;"/><!--MD5=[00fc9067e93128697603f15f01ad44e0]
reverse link Visitor to Element--><path d="M527.333,55.5 C537.3443,55.5 547.3557,55.5 557.3671,55.5 " fill="none" id="Visitor&lt;-Element" style="stroke: #A80036; stroke-width: 1.0; stroke-dasharray: 7.0,7.0;"/><polygon fill="#A80036" points="522.0977,55.5,531.0977,59.5,527.0977,55.5,531.0977,51.5,522.0977,55.5" style="stroke: #A80036; stroke-width: 1.0;"/><!--MD5=[b6a4adb3b3f04e4d6ea1678a263c7d67]
link Element to ObjectStructure--><path d="M737.7754,55.5 C744.8764,55.5 751.9774,55.5 759.0784,55.5 " fill="none" id="Element-&gt;ObjectStructure" style="stroke: #A80036; stroke-width: 1.0;"/><polygon fill="#FFFFFF" points="772.2917,55.5,766.2917,51.5,760.2917,55.5,766.2917,59.5,772.2917,55.5" style="stroke: #A80036; stroke-width: 1.0;"/><!--MD5=[00977df515ce3ef5d3e9d7db58cf9a0e]
@startuml 访问者
skinparam classAttributeIconSize 0

interface Visitor {
  + visit(element: ConcreteElement1): void
  + visit(element: ConcreteElement2): void
}
class ConcreteVisitor1 implements Visitor {
  + visit(element: ConcreteElement1): void
  + visit(element: ConcreteElement2): void
}
class ConcreteVisitor2 implements Visitor {
  + visit(element: ConcreteElement1): void
  + visit(element: ConcreteElement2): void
}
interface Element {
  + accept(visitor: Visitor): void \n    visitor.visit()
}
class ConcreteElement1 implements Element {
  + accept(visitor: Visitor): void
}
class ConcreteElement2 implements Element {
  + accept(visitor: Visitor): void
}
class ObjectStructure {
  - list: Element[]
  + add()
  + remove()
  + accept(visitor: Visitor): void
}

Visitor <. Element
Element -o ObjectStructure

@enduml

PlantUML version 1.2020.12(Sat Jun 06 10:54:15 UTC 2020)
(GPL source distribution)
Java Runtime: OpenJDK Runtime Environment
JVM: OpenJDK 64-Bit Server VM
Default Encoding: UTF-8
Language: en
Country: null
--></g></svg>