<?xml version="1.0" encoding="UTF-8" standalone="no"?><svg xmlns="http://www.w3.org/2000/svg" xmlns:xlink="http://www.w3.org/1999/xlink" contentScriptType="application/ecmascript" contentStyleType="text/css" height="262px" preserveAspectRatio="none" style="width:363px;height:262px;" version="1.1" viewBox="0 0 363 262" width="363px" zoomAndPan="magnify"><defs><filter height="300%" id="f1fqou8hbqbhb0" width="300%" x="-1" y="-1"><feGaussianBlur result="blurOut" stdDeviation="2.0"/><feColorMatrix in="blurOut" result="blurOut2" type="matrix" values="0 0 0 0 0 0 0 0 0 0 0 0 0 0 0 0 0 0 .4 0"/><feOffset dx="4.0" dy="4.0" in="blurOut2" result="blurOut3"/><feBlend in="SourceGraphic" in2="blurOut3" mode="normal"/></filter></defs><g><!--MD5=[50d51bc9b8935dc519d35c7564a1e71f]
class TemplateMethod--><rect fill="#FEFECE" filter="url(#f1fqou8hbqbhb0)" height="112.0234" id="TemplateMethod" style="stroke: #A80036; stroke-width: 1.5;" width="137" x="34.5" y="6"/><ellipse cx="49.5" cy="22" fill="#A9DCDF" rx="11" ry="11" style="stroke: #A80036; stroke-width: 1.0;"/><path d="M49.6094,17.3438 L48.4531,22.4219 L50.7813,22.4219 L49.6094,17.3438 Z M48.125,15.1094 L51.1094,15.1094 L54.4688,27.5 L52.0156,27.5 L51.25,24.4375 L47.9688,24.4375 L47.2188,27.5 L44.7813,27.5 L48.125,15.1094 Z "/><text fill="#000000" font-family="sans-serif" font-size="12" font-style="italic" lengthAdjust="spacingAndGlyphs" textLength="105" x="63.5" y="26.1543">TemplateMethod</text><line style="stroke: #A80036; stroke-width: 1.5;" x1="35.5" x2="170.5" y1="38" y2="38"/><line style="stroke: #A80036; stroke-width: 1.5;" x1="35.5" x2="170.5" y1="46" y2="46"/><text fill="#000000" font-family="sans-serif" font-size="11" font-style="italic" lengthAdjust="spacingAndGlyphs" textLength="67" x="40.5" y="60.2104">#method1()</text><text fill="#000000" font-family="sans-serif" font-size="11" font-style="italic" lengthAdjust="spacingAndGlyphs" textLength="67" x="40.5" y="73.0151">#method2()</text><text fill="#000000" font-family="sans-serif" font-size="11" lengthAdjust="spacingAndGlyphs" textLength="107" x="40.5" y="85.8198">#commonMethod()</text><text fill="#000000" font-family="sans-serif" font-size="11" lengthAdjust="spacingAndGlyphs" textLength="0" x="44.5" y="98.6245"/><text fill="#000000" font-family="sans-serif" font-size="11" lengthAdjust="spacingAndGlyphs" textLength="71" x="40.5" y="111.4292">+operation()</text><!--MD5=[395f9cad989de4cfb64af261a81c64f2]
class ConcreteTemplateMethod--><rect fill="#FEFECE" filter="url(#f1fqou8hbqbhb0)" height="73.6094" id="ConcreteTemplateMethod" style="stroke: #A80036; stroke-width: 1.5;" width="194" x="6" y="178"/><ellipse cx="21" cy="194" fill="#ADD1B2" rx="11" ry="11" style="stroke: #A80036; stroke-width: 1.0;"/><path d="M23.9688,199.6406 Q23.3906,199.9375 22.75,200.0781 Q22.1094,200.2344 21.4063,200.2344 Q18.9063,200.2344 17.5781,198.5938 Q16.2656,196.9375 16.2656,193.8125 Q16.2656,190.6875 17.5781,189.0313 Q18.9063,187.375 21.4063,187.375 Q22.1094,187.375 22.75,187.5313 Q23.4063,187.6875 23.9688,187.9844 L23.9688,190.7031 Q23.3438,190.125 22.75,189.8594 Q22.1563,189.5781 21.5313,189.5781 Q20.1875,189.5781 19.5,190.6563 Q18.8125,191.7188 18.8125,193.8125 Q18.8125,195.9063 19.5,196.9844 Q20.1875,198.0469 21.5313,198.0469 Q22.1563,198.0469 22.75,197.7813 Q23.3438,197.5 23.9688,196.9219 L23.9688,199.6406 Z "/><text fill="#000000" font-family="sans-serif" font-size="12" lengthAdjust="spacingAndGlyphs" textLength="162" x="35" y="198.1543">ConcreteTemplateMethod</text><line style="stroke: #A80036; stroke-width: 1.5;" x1="7" x2="199" y1="210" y2="210"/><line style="stroke: #A80036; stroke-width: 1.5;" x1="7" x2="199" y1="218" y2="218"/><text fill="#000000" font-family="sans-serif" font-size="11" lengthAdjust="spacingAndGlyphs" textLength="67" x="12" y="232.2104">#method1()</text><text fill="#000000" font-family="sans-serif" font-size="11" lengthAdjust="spacingAndGlyphs" textLength="67" x="12" y="245.0151">#method2()</text><path d="M207,19 L207,58 L171.75,62 L207,66 L207,104.6641 A0,0 0 0 0 207,104.6641 L351,104.6641 A0,0 0 0 0 351,104.6641 L351,29 L341,19 L207,19 A0,0 0 0 0 207,19 " fill="#FBFB77" filter="url(#f1fqou8hbqbhb0)" style="stroke: #A80036; stroke-width: 1.0;"/><path d="M341,19 L341,29 L351,29 L341,19 " fill="#FBFB77" style="stroke: #A80036; stroke-width: 1.0;"/><text fill="#000000" font-family="sans-serif" font-size="13" lengthAdjust="spacingAndGlyphs" textLength="83" x="213" y="36.0669">operation() {</text><text fill="#000000" font-family="sans-serif" font-size="13" lengthAdjust="spacingAndGlyphs" textLength="68" x="221" y="51.1997">method1()</text><text fill="#000000" font-family="sans-serif" font-size="13" lengthAdjust="spacingAndGlyphs" textLength="68" x="221" y="66.3325">method2()</text><text fill="#000000" font-family="sans-serif" font-size="13" lengthAdjust="spacingAndGlyphs" textLength="115" x="221" y="81.4653">commonMethod()</text><text fill="#000000" font-family="sans-serif" font-size="13" lengthAdjust="spacingAndGlyphs" textLength="8" x="213" y="96.5981">}</text><!--MD5=[80ddedabafcd617900f26b2c9fc949e4]
reverse link TemplateMethod to ConcreteTemplateMethod--><path d="M103,138.1813 C103,152.037 103,165.9067 103,177.9721 " fill="none" id="TemplateMethod&lt;-ConcreteTemplateMethod" style="stroke: #A80036; stroke-width: 1.0;"/><polygon fill="none" points="96.0001,138.1028,103,118.1028,110.0001,138.1027,96.0001,138.1028" style="stroke: #A80036; stroke-width: 1.0;"/><!--MD5=[d6c0054b6f64d292676372c5e84f7c43]
@startuml 模板方法
skinparam classAttributeIconSize 0

abstract class TemplateMethod {
  {abstract} # method1()
  {abstract} # method2()
  # commonMethod()

  + operation()
}
class ConcreteTemplateMethod extends TemplateMethod {
  # method1()
  # method2()
}
note as N1
operation() {
  method1()
  method2()
  commonMethod()
}
end note

TemplateMethod .> N1
@enduml

PlantUML version 1.2020.12(Sat Jun 06 10:54:15 UTC 2020)
(GPL source distribution)
Java Runtime: OpenJDK Runtime Environment
JVM: OpenJDK 64-Bit Server VM
Default Encoding: UTF-8
Language: en
Country: null
--></g></svg>