<?xml version="1.0" encoding="UTF-8" standalone="no"?><svg xmlns="http://www.w3.org/2000/svg" xmlns:xlink="http://www.w3.org/1999/xlink" contentScriptType="application/ecmascript" contentStyleType="text/css" height="186px" preserveAspectRatio="none" style="width:518px;height:186px;" version="1.1" viewBox="0 0 518 186" width="518px" zoomAndPan="magnify"><defs><filter height="300%" id="fmbasxmxuva4b" width="300%" x="-1" y="-1"><feGaussianBlur result="blurOut" stdDeviation="2.0"/><feColorMatrix in="blurOut" result="blurOut2" type="matrix" values="0 0 0 0 0 0 0 0 0 0 0 0 0 0 0 0 0 0 .4 0"/><feOffset dx="4.0" dy="4.0" in="blurOut2" result="blurOut3"/><feBlend in="SourceGraphic" in2="blurOut3" mode="normal"/></filter></defs><g><!--MD5=[72136138052d025cffdce3c22fbd185f]
class Product--><rect fill="#FEFECE" filter="url(#fmbasxmxuva4b)" height="48" id="Product" style="stroke: #A80036; stroke-width: 1.5;" width="81" x="213" y="12.5"/><ellipse cx="228" cy="28.5" fill="#B4A7E5" rx="11" ry="11" style="stroke: #A80036; stroke-width: 1.0;"/><path d="M223.9219,24.2656 L223.9219,22.1094 L231.3125,22.1094 L231.3125,24.2656 L228.8438,24.2656 L228.8438,32.3438 L231.3125,32.3438 L231.3125,34.5 L223.9219,34.5 L223.9219,32.3438 L226.3906,32.3438 L226.3906,24.2656 L223.9219,24.2656 Z "/><text fill="#000000" font-family="sans-serif" font-size="12" font-style="italic" lengthAdjust="spacingAndGlyphs" textLength="49" x="242" y="32.6543">Product</text><line style="stroke: #A80036; stroke-width: 1.5;" x1="214" x2="293" y1="44.5" y2="44.5"/><line style="stroke: #A80036; stroke-width: 1.5;" x1="214" x2="293" y1="52.5" y2="52.5"/><!--MD5=[9e1f217a44db012abe7b922da54c0dd9]
class ConcreteProduct1--><rect fill="#FEFECE" filter="url(#fmbasxmxuva4b)" height="48" id="ConcreteProduct1" style="stroke: #A80036; stroke-width: 1.5;" width="146" x="180.5" y="127"/><ellipse cx="195.5" cy="143" fill="#ADD1B2" rx="11" ry="11" style="stroke: #A80036; stroke-width: 1.0;"/><path d="M198.4688,148.6406 Q197.8906,148.9375 197.25,149.0781 Q196.6094,149.2344 195.9063,149.2344 Q193.4063,149.2344 192.0781,147.5938 Q190.7656,145.9375 190.7656,142.8125 Q190.7656,139.6875 192.0781,138.0313 Q193.4063,136.375 195.9063,136.375 Q196.6094,136.375 197.25,136.5313 Q197.9063,136.6875 198.4688,136.9844 L198.4688,139.7031 Q197.8438,139.125 197.25,138.8594 Q196.6563,138.5781 196.0313,138.5781 Q194.6875,138.5781 194,139.6563 Q193.3125,140.7188 193.3125,142.8125 Q193.3125,144.9063 194,145.9844 Q194.6875,147.0469 196.0313,147.0469 Q196.6563,147.0469 197.25,146.7813 Q197.8438,146.5 198.4688,145.9219 L198.4688,148.6406 Z "/><text fill="#000000" font-family="sans-serif" font-size="12" lengthAdjust="spacingAndGlyphs" textLength="114" x="209.5" y="147.1543">ConcreteProduct1</text><line style="stroke: #A80036; stroke-width: 1.5;" x1="181.5" x2="325.5" y1="159" y2="159"/><line style="stroke: #A80036; stroke-width: 1.5;" x1="181.5" x2="325.5" y1="167" y2="167"/><!--MD5=[7c2a1f0b305d4b6d9d46d9f16110c367]
class ConcreteProduct2--><rect fill="#FEFECE" filter="url(#fmbasxmxuva4b)" height="48" id="ConcreteProduct2" style="stroke: #A80036; stroke-width: 1.5;" width="146" x="361.5" y="127"/><ellipse cx="376.5" cy="143" fill="#ADD1B2" rx="11" ry="11" style="stroke: #A80036; stroke-width: 1.0;"/><path d="M379.4688,148.6406 Q378.8906,148.9375 378.25,149.0781 Q377.6094,149.2344 376.9063,149.2344 Q374.4063,149.2344 373.0781,147.5938 Q371.7656,145.9375 371.7656,142.8125 Q371.7656,139.6875 373.0781,138.0313 Q374.4063,136.375 376.9063,136.375 Q377.6094,136.375 378.25,136.5313 Q378.9063,136.6875 379.4688,136.9844 L379.4688,139.7031 Q378.8438,139.125 378.25,138.8594 Q377.6563,138.5781 377.0313,138.5781 Q375.6875,138.5781 375,139.6563 Q374.3125,140.7188 374.3125,142.8125 Q374.3125,144.9063 375,145.9844 Q375.6875,147.0469 377.0313,147.0469 Q377.6563,147.0469 378.25,146.7813 Q378.8438,146.5 379.4688,145.9219 L379.4688,148.6406 Z "/><text fill="#000000" font-family="sans-serif" font-size="12" lengthAdjust="spacingAndGlyphs" textLength="114" x="390.5" y="147.1543">ConcreteProduct2</text><line style="stroke: #A80036; stroke-width: 1.5;" x1="362.5" x2="506.5" y1="159" y2="159"/><line style="stroke: #A80036; stroke-width: 1.5;" x1="362.5" x2="506.5" y1="167" y2="167"/><!--MD5=[dcda66dabdb739ec36f1175150e3c9d5]
class Factory--><rect fill="#FEFECE" filter="url(#fmbasxmxuva4b)" height="60.8047" id="Factory" style="stroke: #A80036; stroke-width: 1.5;" width="159" x="6" y="6"/><ellipse cx="58.25" cy="22" fill="#ADD1B2" rx="11" ry="11" style="stroke: #A80036; stroke-width: 1.0;"/><path d="M61.2188,27.6406 Q60.6406,27.9375 60,28.0781 Q59.3594,28.2344 58.6563,28.2344 Q56.1563,28.2344 54.8281,26.5938 Q53.5156,24.9375 53.5156,21.8125 Q53.5156,18.6875 54.8281,17.0313 Q56.1563,15.375 58.6563,15.375 Q59.3594,15.375 60,15.5313 Q60.6563,15.6875 61.2188,15.9844 L61.2188,18.7031 Q60.5938,18.125 60,17.8594 Q59.4063,17.5781 58.7813,17.5781 Q57.4375,17.5781 56.75,18.6563 Q56.0625,19.7188 56.0625,21.8125 Q56.0625,23.9063 56.75,24.9844 Q57.4375,26.0469 58.7813,26.0469 Q59.4063,26.0469 60,25.7813 Q60.5938,25.5 61.2188,24.9219 L61.2188,27.6406 Z "/><text fill="#000000" font-family="sans-serif" font-size="12" lengthAdjust="spacingAndGlyphs" textLength="46" x="78.75" y="26.1543">Factory</text><line style="stroke: #A80036; stroke-width: 1.5;" x1="7" x2="164" y1="38" y2="38"/><line style="stroke: #A80036; stroke-width: 1.5;" x1="7" x2="164" y1="46" y2="46"/><text fill="#000000" font-family="sans-serif" font-size="11" lengthAdjust="spacingAndGlyphs" text-decoration="underline" textLength="147" x="12" y="60.2104">+createProduct(): Product</text><!--MD5=[3e631a4e6bb7e408c66afd34fbd92e8d]
reverse link Product to ConcreteProduct1--><path d="M253.5,80.5131 C253.5,96.1695 253.5,113.2233 253.5,126.6343 " fill="none" id="Product&lt;-ConcreteProduct1" style="stroke: #A80036; stroke-width: 1.0; stroke-dasharray: 7.0,7.0;"/><polygon fill="none" points="246.5001,80.503,253.5,60.503,260.5001,80.5029,246.5001,80.503" style="stroke: #A80036; stroke-width: 1.0;"/><!--MD5=[74652e2bb7add63ff19c45362af0f0c8]
reverse link Product to ConcreteProduct2--><path d="M308.6959,71.4167 C337.0393,89.3467 370.8617,110.7426 396.2951,126.8317 " fill="none" id="Product&lt;-ConcreteProduct2" style="stroke: #A80036; stroke-width: 1.0; stroke-dasharray: 7.0,7.0;"/><polygon fill="none" points="304.6033,77.1109,291.4435,60.503,312.0878,65.2794,304.6033,77.1109" style="stroke: #A80036; stroke-width: 1.0;"/><!--MD5=[17d6d022d25b0e9bc9752353f3576132]
link Factory to Product--><path d="M165.2344,36.5 C179.3599,36.5 193.4854,36.5 207.6109,36.5 " fill="none" id="Factory-&gt;Product" style="stroke: #A80036; stroke-width: 1.0;"/><polygon fill="#A80036" points="212.8151,36.5,203.8151,32.5,207.8151,36.5,203.8151,40.5,212.8151,36.5" style="stroke: #A80036; stroke-width: 1.0;"/><!--MD5=[25cdf119fc091c59b5987f6cabfe3edd]
@startuml 简单工厂
skinparam classAttributeIconSize 0

class Factory {
  +{static} createProduct(): Product
}
together {
  interface Product {}
  class ConcreteProduct1 implements Product {}
  class ConcreteProduct2 implements Product {}
}

Factory -> Product
@enduml

PlantUML version 1.2020.12(Sat Jun 06 10:54:15 UTC 2020)
(GPL source distribution)
Java Runtime: OpenJDK Runtime Environment
JVM: OpenJDK 64-Bit Server VM
Default Encoding: UTF-8
Language: en
Country: null
--></g></svg>