<?xml version="1.0" encoding="UTF-8" standalone="no"?><svg xmlns="http://www.w3.org/2000/svg" xmlns:xlink="http://www.w3.org/1999/xlink" contentScriptType="application/ecmascript" contentStyleType="text/css" height="211px" preserveAspectRatio="none" style="width:797px;height:211px;" version="1.1" viewBox="0 0 797 211" width="797px" zoomAndPan="magnify"><defs><filter height="300%" id="flypyl0fodi" width="300%" x="-1" y="-1"><feGaussianBlur result="blurOut" stdDeviation="2.0"/><feColorMatrix in="blurOut" result="blurOut2" type="matrix" values="0 0 0 0 0 0 0 0 0 0 0 0 0 0 0 0 0 0 .4 0"/><feOffset dx="4.0" dy="4.0" in="blurOut2" result="blurOut3"/><feBlend in="SourceGraphic" in2="blurOut3" mode="normal"/></filter></defs><g><!--MD5=[d40932010816485ec57b44b6eea2392a]
class Observer--><rect fill="#FEFECE" filter="url(#flypyl0fodi)" height="60.8047" id="Observer" style="stroke: #A80036; stroke-width: 1.5;" width="99" x="221" y="18.5"/><ellipse cx="240.95" cy="34.5" fill="#B4A7E5" rx="11" ry="11" style="stroke: #A80036; stroke-width: 1.0;"/><path d="M236.8719,30.2656 L236.8719,28.1094 L244.2625,28.1094 L244.2625,30.2656 L241.7938,30.2656 L241.7938,38.3438 L244.2625,38.3438 L244.2625,40.5 L236.8719,40.5 L236.8719,38.3438 L239.3406,38.3438 L239.3406,30.2656 L236.8719,30.2656 Z "/><text fill="#000000" font-family="sans-serif" font-size="12" font-style="italic" lengthAdjust="spacingAndGlyphs" textLength="56" x="256.05" y="38.6543">Observer</text><line style="stroke: #A80036; stroke-width: 1.5;" x1="222" x2="319" y1="50.5" y2="50.5"/><line style="stroke: #A80036; stroke-width: 1.5;" x1="222" x2="319" y1="58.5" y2="58.5"/><text fill="#000000" font-family="sans-serif" font-size="11" lengthAdjust="spacingAndGlyphs" textLength="87" x="227" y="72.7104">+update(): void</text><!--MD5=[243f1f3e771ed4b4ca32af23bdb0034d]
class ConcreteObserver1--><rect fill="#FEFECE" filter="url(#flypyl0fodi)" height="48" id="ConcreteObserver1" style="stroke: #A80036; stroke-width: 1.5;" width="153" x="6" y="152"/><ellipse cx="21" cy="168" fill="#ADD1B2" rx="11" ry="11" style="stroke: #A80036; stroke-width: 1.0;"/><path d="M23.9688,173.6406 Q23.3906,173.9375 22.75,174.0781 Q22.1094,174.2344 21.4063,174.2344 Q18.9063,174.2344 17.5781,172.5938 Q16.2656,170.9375 16.2656,167.8125 Q16.2656,164.6875 17.5781,163.0313 Q18.9063,161.375 21.4063,161.375 Q22.1094,161.375 22.75,161.5313 Q23.4063,161.6875 23.9688,161.9844 L23.9688,164.7031 Q23.3438,164.125 22.75,163.8594 Q22.1563,163.5781 21.5313,163.5781 Q20.1875,163.5781 19.5,164.6563 Q18.8125,165.7188 18.8125,167.8125 Q18.8125,169.9063 19.5,170.9844 Q20.1875,172.0469 21.5313,172.0469 Q22.1563,172.0469 22.75,171.7813 Q23.3438,171.5 23.9688,170.9219 L23.9688,173.6406 Z "/><text fill="#000000" font-family="sans-serif" font-size="12" lengthAdjust="spacingAndGlyphs" textLength="121" x="35" y="172.1543">ConcreteObserver1</text><line style="stroke: #A80036; stroke-width: 1.5;" x1="7" x2="158" y1="184" y2="184"/><line style="stroke: #A80036; stroke-width: 1.5;" x1="7" x2="158" y1="192" y2="192"/><!--MD5=[153a112982a83c4bc80d8928d2b4bfaf]
class ConcreteObserver2--><rect fill="#FEFECE" filter="url(#flypyl0fodi)" height="48" id="ConcreteObserver2" style="stroke: #A80036; stroke-width: 1.5;" width="153" x="194" y="152"/><ellipse cx="209" cy="168" fill="#ADD1B2" rx="11" ry="11" style="stroke: #A80036; stroke-width: 1.0;"/><path d="M211.9688,173.6406 Q211.3906,173.9375 210.75,174.0781 Q210.1094,174.2344 209.4063,174.2344 Q206.9063,174.2344 205.5781,172.5938 Q204.2656,170.9375 204.2656,167.8125 Q204.2656,164.6875 205.5781,163.0313 Q206.9063,161.375 209.4063,161.375 Q210.1094,161.375 210.75,161.5313 Q211.4063,161.6875 211.9688,161.9844 L211.9688,164.7031 Q211.3438,164.125 210.75,163.8594 Q210.1563,163.5781 209.5313,163.5781 Q208.1875,163.5781 207.5,164.6563 Q206.8125,165.7188 206.8125,167.8125 Q206.8125,169.9063 207.5,170.9844 Q208.1875,172.0469 209.5313,172.0469 Q210.1563,172.0469 210.75,171.7813 Q211.3438,171.5 211.9688,170.9219 L211.9688,173.6406 Z "/><text fill="#000000" font-family="sans-serif" font-size="12" lengthAdjust="spacingAndGlyphs" textLength="121" x="223" y="172.1543">ConcreteObserver2</text><line style="stroke: #A80036; stroke-width: 1.5;" x1="195" x2="346" y1="184" y2="184"/><line style="stroke: #A80036; stroke-width: 1.5;" x1="195" x2="346" y1="192" y2="192"/><!--MD5=[af38f892e874dd59b9b4e4f996b57dbe]
class Obeservable--><rect fill="#FEFECE" filter="url(#flypyl0fodi)" height="86.4141" id="Obeservable" style="stroke: #A80036; stroke-width: 1.5;" width="214" x="358.5" y="6"/><ellipse cx="422.25" cy="22" fill="#B4A7E5" rx="11" ry="11" style="stroke: #A80036; stroke-width: 1.0;"/><path d="M418.1719,17.7656 L418.1719,15.6094 L425.5625,15.6094 L425.5625,17.7656 L423.0938,17.7656 L423.0938,25.8438 L425.5625,25.8438 L425.5625,28 L418.1719,28 L418.1719,25.8438 L420.6406,25.8438 L420.6406,17.7656 L418.1719,17.7656 Z "/><text fill="#000000" font-family="sans-serif" font-size="12" font-style="italic" lengthAdjust="spacingAndGlyphs" textLength="78" x="442.75" y="26.1543">Obeservable</text><line style="stroke: #A80036; stroke-width: 1.5;" x1="359.5" x2="571.5" y1="38" y2="38"/><line style="stroke: #A80036; stroke-width: 1.5;" x1="359.5" x2="571.5" y1="46" y2="46"/><text fill="#000000" font-family="sans-serif" font-size="11" lengthAdjust="spacingAndGlyphs" textLength="195" x="364.5" y="60.2104">+attach(observer: Observer): void</text><text fill="#000000" font-family="sans-serif" font-size="11" lengthAdjust="spacingAndGlyphs" textLength="202" x="364.5" y="73.0151">+dettach(observer: Observer): void</text><text fill="#000000" font-family="sans-serif" font-size="11" lengthAdjust="spacingAndGlyphs" textLength="48" x="364.5" y="85.8198">+notify()</text><!--MD5=[65f8f72de41322269a4b93c78cb40e43]
class ConcreteObservable1--><rect fill="#FEFECE" filter="url(#flypyl0fodi)" height="48" id="ConcreteObservable1" style="stroke: #A80036; stroke-width: 1.5;" width="167" x="382" y="152"/><ellipse cx="397" cy="168" fill="#ADD1B2" rx="11" ry="11" style="stroke: #A80036; stroke-width: 1.0;"/><path d="M399.9688,173.6406 Q399.3906,173.9375 398.75,174.0781 Q398.1094,174.2344 397.4063,174.2344 Q394.9063,174.2344 393.5781,172.5938 Q392.2656,170.9375 392.2656,167.8125 Q392.2656,164.6875 393.5781,163.0313 Q394.9063,161.375 397.4063,161.375 Q398.1094,161.375 398.75,161.5313 Q399.4063,161.6875 399.9688,161.9844 L399.9688,164.7031 Q399.3438,164.125 398.75,163.8594 Q398.1563,163.5781 397.5313,163.5781 Q396.1875,163.5781 395.5,164.6563 Q394.8125,165.7188 394.8125,167.8125 Q394.8125,169.9063 395.5,170.9844 Q396.1875,172.0469 397.5313,172.0469 Q398.1563,172.0469 398.75,171.7813 Q399.3438,171.5 399.9688,170.9219 L399.9688,173.6406 Z "/><text fill="#000000" font-family="sans-serif" font-size="12" lengthAdjust="spacingAndGlyphs" textLength="135" x="411" y="172.1543">ConcreteObservable1</text><line style="stroke: #A80036; stroke-width: 1.5;" x1="383" x2="548" y1="184" y2="184"/><line style="stroke: #A80036; stroke-width: 1.5;" x1="383" x2="548" y1="192" y2="192"/><!--MD5=[8caf2069bc61f86aa99c3bd60f04e47f]
class ConcreteObservable2--><rect fill="#FEFECE" filter="url(#flypyl0fodi)" height="48" id="ConcreteObservable2" style="stroke: #A80036; stroke-width: 1.5;" width="167" x="584" y="152"/><ellipse cx="599" cy="168" fill="#ADD1B2" rx="11" ry="11" style="stroke: #A80036; stroke-width: 1.0;"/><path d="M601.9688,173.6406 Q601.3906,173.9375 600.75,174.0781 Q600.1094,174.2344 599.4063,174.2344 Q596.9063,174.2344 595.5781,172.5938 Q594.2656,170.9375 594.2656,167.8125 Q594.2656,164.6875 595.5781,163.0313 Q596.9063,161.375 599.4063,161.375 Q600.1094,161.375 600.75,161.5313 Q601.4063,161.6875 601.9688,161.9844 L601.9688,164.7031 Q601.3438,164.125 600.75,163.8594 Q600.1563,163.5781 599.5313,163.5781 Q598.1875,163.5781 597.5,164.6563 Q596.8125,165.7188 596.8125,167.8125 Q596.8125,169.9063 597.5,170.9844 Q598.1875,172.0469 599.5313,172.0469 Q600.1563,172.0469 600.75,171.7813 Q601.3438,171.5 601.9688,170.9219 L601.9688,173.6406 Z "/><text fill="#000000" font-family="sans-serif" font-size="12" lengthAdjust="spacingAndGlyphs" textLength="135" x="613" y="172.1543">ConcreteObservable2</text><line style="stroke: #A80036; stroke-width: 1.5;" x1="585" x2="750" y1="184" y2="184"/><line style="stroke: #A80036; stroke-width: 1.5;" x1="585" x2="750" y1="192" y2="192"/><path d="M607.5,36.5 L607.5,45 L572.8789,49 L607.5,53 L607.5,61.6328 A0,0 0 0 0 607.5,61.6328 L785.5,61.6328 A0,0 0 0 0 785.5,61.6328 L785.5,46.5 L775.5,36.5 L607.5,36.5 A0,0 0 0 0 607.5,36.5 " fill="#FBFB77" filter="url(#flypyl0fodi)" style="stroke: #A80036; stroke-width: 1.0;"/><path d="M775.5,36.5 L775.5,46.5 L785.5,46.5 L775.5,36.5 " fill="#FBFB77" style="stroke: #A80036; stroke-width: 1.0;"/><text fill="#000000" font-family="sans-serif" font-size="13" lengthAdjust="spacingAndGlyphs" textLength="157" x="613.5" y="53.5669">observers.every(update)</text><!--MD5=[d69e49e33465071937f7d32cc7b7fe7a]
reverse link Observer to ConcreteObserver1--><path d="M208.0678,91.175 C178.2002,111.3515 143.522,134.7777 118.1861,151.8929 " fill="none" id="Observer&lt;-ConcreteObserver1" style="stroke: #A80036; stroke-width: 1.0; stroke-dasharray: 7.0,7.0;"/><polygon fill="none" points="204.4991,85.1382,224.9904,79.7432,212.336,96.7392,204.4991,85.1382" style="stroke: #A80036; stroke-width: 1.0;"/><!--MD5=[5ec53e8a1a7dc9207b5bf7f213a248f8]
reverse link Observer to ConcreteObserver2--><path d="M270.5,99.8257 C270.5,117.7955 270.5,137.177 270.5,151.8929 " fill="none" id="Observer&lt;-ConcreteObserver2" style="stroke: #A80036; stroke-width: 1.0; stroke-dasharray: 7.0,7.0;"/><polygon fill="none" points="263.5001,99.7432,270.5,79.7432,277.5001,99.7431,263.5001,99.7432" style="stroke: #A80036; stroke-width: 1.0;"/><!--MD5=[b6b911a1ec75b31f50b208b42026080a]
reverse link Obeservable to ConcreteObservable1--><path d="M465.5,112.5036 C465.5,126.4734 465.5,140.4431 465.5,151.7079 " fill="none" id="Obeservable&lt;-ConcreteObservable1" style="stroke: #A80036; stroke-width: 1.0; stroke-dasharray: 7.0,7.0;"/><polygon fill="none" points="458.5001,112.351,465.5,92.351,472.5001,112.351,458.5001,112.351" style="stroke: #A80036; stroke-width: 1.0;"/><!--MD5=[f9879c6ba37514c0efa8a2c2c194985f]
reverse link Obeservable to ConcreteObservable2--><path d="M551.2387,102.905 C578.3594,119.9562 606.983,137.9522 629.0424,151.8212 " fill="none" id="Obeservable&lt;-ConcreteObservable2" style="stroke: #A80036; stroke-width: 1.0; stroke-dasharray: 7.0,7.0;"/><polygon fill="none" points="547.3757,108.7449,534.1699,92.1736,554.8273,96.8927,547.3757,108.7449" style="stroke: #A80036; stroke-width: 1.0;"/><!--MD5=[91d95388944e4b31be79b4b5d304490e]
link Observer to Obeservable--><path d="M320.0117,49 C328.4032,49 336.7947,49 345.1862,49 " fill="none" id="Observer-&gt;Obeservable" style="stroke: #A80036; stroke-width: 1.0;"/><polygon fill="#FFFFFF" points="358.3729,49,352.3729,45,346.3729,49,352.3729,53,358.3729,49" style="stroke: #A80036; stroke-width: 1.0;"/><!--MD5=[83b8e01c483324e1d6c2be1b36d3d577]
@startuml 观察者
skinparam classAttributeIconSize 0

interface Observer {
  + update(): void
}
class ConcreteObserver1 implements Observer {}
class ConcreteObserver2 implements Observer {}

interface Obeservable {
  + attach(observer: Observer): void
  + dettach(observer: Observer): void
  + notify()
}
class ConcreteObservable1 implements Obeservable {}
class ConcreteObservable2 implements Obeservable {}
note as N1
observers.every(update)
end note

Observer -o Obeservable
Obeservable <. N1
@enduml

PlantUML version 1.2020.12(Sat Jun 06 10:54:15 UTC 2020)
(GPL source distribution)
Java Runtime: OpenJDK Runtime Environment
JVM: OpenJDK 64-Bit Server VM
Default Encoding: UTF-8
Language: en
Country: null
--></g></svg>