<?xml version="1.0" encoding="UTF-8" standalone="no"?><svg xmlns="http://www.w3.org/2000/svg" xmlns:xlink="http://www.w3.org/1999/xlink" contentScriptType="application/ecmascript" contentStyleType="text/css" height="262px" preserveAspectRatio="none" style="width:647px;height:262px;" version="1.1" viewBox="0 0 647 262" width="647px" zoomAndPan="magnify"><defs><filter height="300%" id="fq47uqx49fzw0" width="300%" x="-1" y="-1"><feGaussianBlur result="blurOut" stdDeviation="2.0"/><feColorMatrix in="blurOut" result="blurOut2" type="matrix" values="0 0 0 0 0 0 0 0 0 0 0 0 0 0 0 0 0 0 .4 0"/><feOffset dx="4.0" dy="4.0" in="blurOut2" result="blurOut3"/><feBlend in="SourceGraphic" in2="blurOut3" mode="normal"/></filter></defs><g><!--MD5=[7bc5716ff34e8b57d97376709b158217]
class Mediator--><rect fill="#FEFECE" filter="url(#fq47uqx49fzw0)" height="86.4141" id="Mediator" style="stroke: #A80036; stroke-width: 1.5;" width="223" x="6" y="19"/><ellipse cx="85.75" cy="35" fill="#B4A7E5" rx="11" ry="11" style="stroke: #A80036; stroke-width: 1.0;"/><path d="M81.6719,30.7656 L81.6719,28.6094 L89.0625,28.6094 L89.0625,30.7656 L86.5938,30.7656 L86.5938,38.8438 L89.0625,38.8438 L89.0625,41 L81.6719,41 L81.6719,38.8438 L84.1406,38.8438 L84.1406,30.7656 L81.6719,30.7656 Z "/><text fill="#000000" font-family="sans-serif" font-size="12" font-style="italic" lengthAdjust="spacingAndGlyphs" textLength="55" x="106.25" y="39.1543">Mediator</text><line style="stroke: #A80036; stroke-width: 1.5;" x1="7" x2="228" y1="51" y2="51"/><text fill="#000000" font-family="sans-serif" font-size="11" lengthAdjust="spacingAndGlyphs" textLength="93" x="12" y="65.2104">-list: Colleague[]</text><line style="stroke: #A80036; stroke-width: 1.5;" x1="7" x2="228" y1="71.8047" y2="71.8047"/><text fill="#000000" font-family="sans-serif" font-size="11" lengthAdjust="spacingAndGlyphs" textLength="211" x="12" y="86.0151">+register(colleague: Colleague): void</text><text fill="#000000" font-family="sans-serif" font-size="11" lengthAdjust="spacingAndGlyphs" textLength="147" x="12" y="98.8198">+message(from, to): void</text><!--MD5=[57b036fc3adc6f308410e06146624c7b]
class ConcreteMediator--><rect fill="#FEFECE" filter="url(#fq47uqx49fzw0)" height="73.6094" id="ConcreteMediator" style="stroke: #A80036; stroke-width: 1.5;" width="223" x="6" y="178"/><ellipse cx="57.25" cy="194" fill="#ADD1B2" rx="11" ry="11" style="stroke: #A80036; stroke-width: 1.0;"/><path d="M60.2188,199.6406 Q59.6406,199.9375 59,200.0781 Q58.3594,200.2344 57.6563,200.2344 Q55.1563,200.2344 53.8281,198.5938 Q52.5156,196.9375 52.5156,193.8125 Q52.5156,190.6875 53.8281,189.0313 Q55.1563,187.375 57.6563,187.375 Q58.3594,187.375 59,187.5313 Q59.6563,187.6875 60.2188,187.9844 L60.2188,190.7031 Q59.5938,190.125 59,189.8594 Q58.4063,189.5781 57.7813,189.5781 Q56.4375,189.5781 55.75,190.6563 Q55.0625,191.7188 55.0625,193.8125 Q55.0625,195.9063 55.75,196.9844 Q56.4375,198.0469 57.7813,198.0469 Q58.4063,198.0469 59,197.7813 Q59.5938,197.5 60.2188,196.9219 L60.2188,199.6406 Z "/><text fill="#000000" font-family="sans-serif" font-size="12" lengthAdjust="spacingAndGlyphs" textLength="112" x="77.75" y="198.1543">ConcreteMediator</text><line style="stroke: #A80036; stroke-width: 1.5;" x1="7" x2="228" y1="210" y2="210"/><line style="stroke: #A80036; stroke-width: 1.5;" x1="7" x2="228" y1="218" y2="218"/><text fill="#000000" font-family="sans-serif" font-size="11" lengthAdjust="spacingAndGlyphs" textLength="211" x="12" y="232.2104">+register(colleague: Colleague): void</text><text fill="#000000" font-family="sans-serif" font-size="11" lengthAdjust="spacingAndGlyphs" textLength="147" x="12" y="245.0151">+message(from, to): void</text><!--MD5=[dce1c4a99d6d78320dbd9395e5caa416]
class Colleague--><rect fill="#FEFECE" filter="url(#fq47uqx49fzw0)" height="112.0234" id="Colleague" style="stroke: #A80036; stroke-width: 1.5;" width="235" x="264" y="6"/><ellipse cx="346.25" cy="22" fill="#A9DCDF" rx="11" ry="11" style="stroke: #A80036; stroke-width: 1.0;"/><path d="M346.3594,17.3438 L345.2031,22.4219 L347.5313,22.4219 L346.3594,17.3438 Z M344.875,15.1094 L347.8594,15.1094 L351.2188,27.5 L348.7656,27.5 L348,24.4375 L344.7188,24.4375 L343.9688,27.5 L341.5313,27.5 L344.875,15.1094 Z "/><text fill="#000000" font-family="sans-serif" font-size="12" font-style="italic" lengthAdjust="spacingAndGlyphs" textLength="62" x="366.75" y="26.1543">Colleague</text><line style="stroke: #A80036; stroke-width: 1.5;" x1="265" x2="498" y1="38" y2="38"/><text fill="#000000" font-family="sans-serif" font-size="11" lengthAdjust="spacingAndGlyphs" textLength="112" x="270" y="52.2104">-mediator: Mediator</text><line style="stroke: #A80036; stroke-width: 1.5;" x1="265" x2="498" y1="58.8047" y2="58.8047"/><text fill="#000000" font-family="sans-serif" font-size="11" lengthAdjust="spacingAndGlyphs" textLength="223" x="270" y="73.0151">+setMediator(mediator: Mediator): void</text><text fill="#000000" font-family="sans-serif" font-size="11" lengthAdjust="spacingAndGlyphs" textLength="141" x="270" y="85.8198">+getMediator(): Mediator</text><text fill="#000000" font-family="sans-serif" font-size="11" font-style="italic" lengthAdjust="spacingAndGlyphs" textLength="76" x="270" y="98.6245">+send(): void</text><text fill="#000000" font-family="sans-serif" font-size="11" font-style="italic" lengthAdjust="spacingAndGlyphs" textLength="89" x="270" y="111.4292">+receive(): void</text><!--MD5=[ca68ea5d22cc660f11f70e3cb2736ceb]
class ConcreteColleague1--><rect fill="#FEFECE" filter="url(#fq47uqx49fzw0)" height="73.6094" id="ConcreteColleague1" style="stroke: #A80036; stroke-width: 1.5;" width="159" x="283" y="178"/><ellipse cx="298" cy="194" fill="#ADD1B2" rx="11" ry="11" style="stroke: #A80036; stroke-width: 1.0;"/><path d="M300.9688,199.6406 Q300.3906,199.9375 299.75,200.0781 Q299.1094,200.2344 298.4063,200.2344 Q295.9063,200.2344 294.5781,198.5938 Q293.2656,196.9375 293.2656,193.8125 Q293.2656,190.6875 294.5781,189.0313 Q295.9063,187.375 298.4063,187.375 Q299.1094,187.375 299.75,187.5313 Q300.4063,187.6875 300.9688,187.9844 L300.9688,190.7031 Q300.3438,190.125 299.75,189.8594 Q299.1563,189.5781 298.5313,189.5781 Q297.1875,189.5781 296.5,190.6563 Q295.8125,191.7188 295.8125,193.8125 Q295.8125,195.9063 296.5,196.9844 Q297.1875,198.0469 298.5313,198.0469 Q299.1563,198.0469 299.75,197.7813 Q300.3438,197.5 300.9688,196.9219 L300.9688,199.6406 Z "/><text fill="#000000" font-family="sans-serif" font-size="12" lengthAdjust="spacingAndGlyphs" textLength="127" x="312" y="198.1543">ConcreteColleague1</text><line style="stroke: #A80036; stroke-width: 1.5;" x1="284" x2="441" y1="210" y2="210"/><line style="stroke: #A80036; stroke-width: 1.5;" x1="284" x2="441" y1="218" y2="218"/><text fill="#000000" font-family="sans-serif" font-size="11" lengthAdjust="spacingAndGlyphs" textLength="76" x="289" y="232.2104">+send(): void</text><text fill="#000000" font-family="sans-serif" font-size="11" lengthAdjust="spacingAndGlyphs" textLength="89" x="289" y="245.0151">+receive(): void</text><!--MD5=[aa16953ec827ad9fa4110d3a7a9b0524]
class ConcreteColleague2--><rect fill="#FEFECE" filter="url(#fq47uqx49fzw0)" height="73.6094" id="ConcreteColleague2" style="stroke: #A80036; stroke-width: 1.5;" width="159" x="477" y="178"/><ellipse cx="492" cy="194" fill="#ADD1B2" rx="11" ry="11" style="stroke: #A80036; stroke-width: 1.0;"/><path d="M494.9688,199.6406 Q494.3906,199.9375 493.75,200.0781 Q493.1094,200.2344 492.4063,200.2344 Q489.9063,200.2344 488.5781,198.5938 Q487.2656,196.9375 487.2656,193.8125 Q487.2656,190.6875 488.5781,189.0313 Q489.9063,187.375 492.4063,187.375 Q493.1094,187.375 493.75,187.5313 Q494.4063,187.6875 494.9688,187.9844 L494.9688,190.7031 Q494.3438,190.125 493.75,189.8594 Q493.1563,189.5781 492.5313,189.5781 Q491.1875,189.5781 490.5,190.6563 Q489.8125,191.7188 489.8125,193.8125 Q489.8125,195.9063 490.5,196.9844 Q491.1875,198.0469 492.5313,198.0469 Q493.1563,198.0469 493.75,197.7813 Q494.3438,197.5 494.9688,196.9219 L494.9688,199.6406 Z "/><text fill="#000000" font-family="sans-serif" font-size="12" lengthAdjust="spacingAndGlyphs" textLength="127" x="506" y="198.1543">ConcreteColleague2</text><line style="stroke: #A80036; stroke-width: 1.5;" x1="478" x2="635" y1="210" y2="210"/><line style="stroke: #A80036; stroke-width: 1.5;" x1="478" x2="635" y1="218" y2="218"/><text fill="#000000" font-family="sans-serif" font-size="11" lengthAdjust="spacingAndGlyphs" textLength="76" x="483" y="232.2104">+send(): void</text><text fill="#000000" font-family="sans-serif" font-size="11" lengthAdjust="spacingAndGlyphs" textLength="89" x="483" y="245.0151">+receive(): void</text><!--MD5=[8e81ab3b58f78fae49244c829d83e031]
reverse link Mediator to ConcreteMediator--><path d="M117.5,125.2809 C117.5,143.1289 117.5,161.9669 117.5,177.7485 " fill="none" id="Mediator&lt;-ConcreteMediator" style="stroke: #A80036; stroke-width: 1.0; stroke-dasharray: 7.0,7.0;"/><polygon fill="none" points="110.5001,125.0262,117.5,105.0262,124.5001,125.0262,110.5001,125.0262" style="stroke: #A80036; stroke-width: 1.0;"/><!--MD5=[3392745185fe7eea56fb87495156591e]
reverse link Colleague to ConcreteColleague1--><path d="M372.0396,138.1813 C370.3189,152.037 368.5966,165.9067 367.0982,177.9721 " fill="none" id="Colleague&lt;-ConcreteColleague1" style="stroke: #A80036; stroke-width: 1.0;"/><polygon fill="none" points="365.1215,137.0876,374.533,118.1028,379.0148,138.813,365.1215,137.0876" style="stroke: #A80036; stroke-width: 1.0;"/><!--MD5=[0a280d49a9a40496cfc242ad7a48962b]
reverse link Colleague to ConcreteColleague2--><path d="M460.9059,131.4235 C479.2638,147.4735 498.1009,163.9425 514.1478,177.9721 " fill="none" id="Colleague&lt;-ConcreteColleague2" style="stroke: #A80036; stroke-width: 1.0;"/><polygon fill="none" points="456.1193,136.5367,445.6698,118.1028,465.3341,125.9969,456.1193,136.5367" style="stroke: #A80036; stroke-width: 1.0;"/><!--MD5=[4d39911a0cd9d54fb70f2ee4e30f8079]
reverse link Mediator to Colleague--><path d="M242.1897,62 C249.4435,62 256.6973,62 263.9511,62 " fill="none" id="Mediator&lt;-Colleague" style="stroke: #A80036; stroke-width: 1.0;"/><polygon fill="#FFFFFF" points="229.1328,62,235.1328,66,241.1328,62,235.1328,58,229.1328,62" style="stroke: #A80036; stroke-width: 1.0;"/><!--MD5=[aefc878b3eefefb411c0235c6e42bb24]
@startuml 中介者
skinparam classAttributeIconSize 0

interface Mediator {
  - list: Colleague[]
  + register(colleague: Colleague): void
  + message(from, to): void
}
class ConcreteMediator implements Mediator {
  + register(colleague: Colleague): void
  + message(from, to): void 
}
abstract class Colleague {
  - mediator: Mediator
  + setMediator(mediator: Mediator): void
  + getMediator(): Mediator
  + {abstract} send(): void
  + {abstract} receive(): void
}
class ConcreteColleague1 extends Colleague {
  + send(): void
  + receive(): void
}
class ConcreteColleague2 extends Colleague {
  + send(): void
  + receive(): void
}

Mediator o- Colleague

@enduml

PlantUML version 1.2020.12(Sat Jun 06 10:54:15 UTC 2020)
(GPL source distribution)
Java Runtime: OpenJDK Runtime Environment
JVM: OpenJDK 64-Bit Server VM
Default Encoding: UTF-8
Language: en
Country: null
--></g></svg>