<?xml version="1.0" encoding="UTF-8" standalone="no"?><svg xmlns="http://www.w3.org/2000/svg" xmlns:xlink="http://www.w3.org/1999/xlink" contentScriptType="application/ecmascript" contentStyleType="text/css" height="1218px" preserveAspectRatio="none" style="width:791px;height:1218px;" version="1.1" viewBox="0 0 791 1218" width="791px" zoomAndPan="magnify"><defs><filter height="300%" id="f5io2y39c641d" width="300%" x="-1" y="-1"><feGaussianBlur result="blurOut" stdDeviation="2.0"/><feColorMatrix in="blurOut" result="blurOut2" type="matrix" values="0 0 0 0 0 0 0 0 0 0 0 0 0 0 0 0 0 0 .4 0"/><feOffset dx="4.0" dy="4.0" in="blurOut2" result="blurOut3"/><feBlend in="SourceGraphic" in2="blurOut3" mode="normal"/></filter></defs><g><rect fill="#FEFECE" filter="url(#f5io2y39c641d)" height="36.2969" rx="12.5" ry="12.5" style="stroke: #A80036; stroke-width: 1.5;" width="90" x="10" y="591.4141"/><text fill="#000000" font-family="sans-serif" font-size="14" lengthAdjust="spacingAndGlyphs" textLength="70" x="20" y="614.4092">font-family</text><rect fill="#FEFECE" filter="url(#f5io2y39c641d)" height="36.2969" rx="12.5" ry="12.5" style="stroke: #A80036; stroke-width: 1.5;" width="86" x="150" y="48.1484"/><text fill="#000000" font-family="sans-serif" font-size="14" lengthAdjust="spacingAndGlyphs" textLength="66" x="160" y="71.1436">seril(衬线)</text><rect fill="#FEFECE" filter="url(#f5io2y39c641d)" height="36.2969" rx="12.5" ry="12.5" style="stroke: #A80036; stroke-width: 1.5;" width="110" x="286" y="20"/><text fill="#000000" font-family="sans-serif" font-size="14" lengthAdjust="spacingAndGlyphs" textLength="90" x="296" y="42.9951">宋体(SimSun)</text><text fill="#000000" font-family="sans-serif" font-size="14" lengthAdjust="spacingAndGlyphs" textLength="28" x="449" y="42.9951">中文</text><path d="M396,38.1484 L406,38.1484 C421,38.1484 421,38.1484 436,38.1484 L446,38.1484 " fill="none" style="stroke: #A80036; stroke-width: 1.0;"/><path d="M236,66.2969 L246,66.2969 C261,66.2969 261,38.1484 276,38.1484 L286,38.1484 " fill="none" style="stroke: #A80036; stroke-width: 1.0;"/><rect fill="#FEFECE" filter="url(#f5io2y39c641d)" height="36.2969" rx="12.5" ry="12.5" style="stroke: #A80036; stroke-width: 1.5;" width="149" x="286" y="76.2969"/><text fill="#000000" font-family="sans-serif" font-size="14" lengthAdjust="spacingAndGlyphs" textLength="129" x="296" y="99.292">Times New Roman</text><text fill="#000000" font-family="sans-serif" font-size="14" lengthAdjust="spacingAndGlyphs" textLength="28" x="488" y="99.292">西文</text><path d="M435,94.4453 L445,94.4453 C460,94.4453 460,94.4453 475,94.4453 L485,94.4453 " fill="none" style="stroke: #A80036; stroke-width: 1.0;"/><path d="M236,66.2969 L246,66.2969 C261,66.2969 261,94.4453 276,94.4453 L286,94.4453 " fill="none" style="stroke: #A80036; stroke-width: 1.0;"/><path d="M100,609.5625 L110,609.5625 C125,609.5625 125,66.2969 140,66.2969 L150,66.2969 " fill="none" style="stroke: #A80036; stroke-width: 1.0;"/><rect fill="#FEFECE" filter="url(#f5io2y39c641d)" height="36.2969" rx="12.5" ry="12.5" style="stroke: #A80036; stroke-width: 1.5;" width="138" x="150" y="357.7813"/><text fill="#000000" font-family="sans-serif" font-size="14" lengthAdjust="spacingAndGlyphs" textLength="118" x="160" y="380.7764">sans-seril(无衬线)</text><rect fill="#FEFECE" filter="url(#f5io2y39c641d)" height="36.2969" rx="12.5" ry="12.5" style="stroke: #A80036; stroke-width: 1.5;" width="48" x="338" y="132.5938"/><text fill="#000000" font-family="sans-serif" font-size="14" lengthAdjust="spacingAndGlyphs" textLength="28" x="348" y="155.5889">黑体</text><text fill="#000000" font-family="sans-serif" font-size="14" lengthAdjust="spacingAndGlyphs" textLength="28" x="439" y="155.5889">中文</text><path d="M386,150.7422 L396,150.7422 C411,150.7422 411,150.7422 426,150.7422 L436,150.7422 " fill="none" style="stroke: #A80036; stroke-width: 1.0;"/><path d="M288,375.9297 L298,375.9297 C313,375.9297 313,150.7422 328,150.7422 L338,150.7422 " fill="none" style="stroke: #A80036; stroke-width: 1.0;"/><rect fill="#FEFECE" filter="url(#f5io2y39c641d)" height="36.2969" rx="12.5" ry="12.5" style="stroke: #A80036; stroke-width: 1.5;" width="76" x="338" y="188.8906"/><text fill="#000000" font-family="sans-serif" font-size="14" lengthAdjust="spacingAndGlyphs" textLength="56" x="348" y="211.8857">微软雅黑</text><text fill="#000000" font-family="sans-serif" font-size="14" lengthAdjust="spacingAndGlyphs" textLength="104" x="467" y="211.8857">中文、Windows</text><path d="M414,207.0391 L424,207.0391 C439,207.0391 439,207.0391 454,207.0391 L464,207.0391 " fill="none" style="stroke: #A80036; stroke-width: 1.0;"/><path d="M288,375.9297 L298,375.9297 C313,375.9297 313,207.0391 328,207.0391 L338,207.0391 " fill="none" style="stroke: #A80036; stroke-width: 1.0;"/><rect fill="#FEFECE" filter="url(#f5io2y39c641d)" height="36.2969" rx="12.5" ry="12.5" style="stroke: #A80036; stroke-width: 1.5;" width="146" x="338" y="245.1875"/><text fill="#000000" font-family="sans-serif" font-size="14" lengthAdjust="spacingAndGlyphs" textLength="126" x="348" y="268.1826">华文黑体、华文细黑</text><text fill="#000000" font-family="sans-serif" font-size="14" lengthAdjust="spacingAndGlyphs" textLength="70" x="537" y="259.0342">中文、Mac</text><path d="M484,263.3359 L494,263.3359 C509,263.3359 509,254.1875 524,254.1875 L534,254.1875 " fill="none" style="stroke: #A80036; stroke-width: 1.0;"/><text fill="#000000" font-family="sans-serif" font-size="14" lengthAdjust="spacingAndGlyphs" textLength="70" x="537" y="277.3311">旧苹果默认</text><path d="M484,263.3359 L494,263.3359 C509,263.3359 509,272.4844 524,272.4844 L534,272.4844 " fill="none" style="stroke: #A80036; stroke-width: 1.0;"/><path d="M288,375.9297 L298,375.9297 C313,375.9297 313,263.3359 328,263.3359 L338,263.3359 " fill="none" style="stroke: #A80036; stroke-width: 1.0;"/><rect fill="#FEFECE" filter="url(#f5io2y39c641d)" height="36.2969" rx="12.5" ry="12.5" style="stroke: #A80036; stroke-width: 1.5;" width="148" x="338" y="301.4844"/><text fill="#000000" font-family="sans-serif" font-size="14" lengthAdjust="spacingAndGlyphs" textLength="128" x="348" y="324.4795">黑体-简（Heiti SC）</text><text fill="#000000" font-family="sans-serif" font-size="14" lengthAdjust="spacingAndGlyphs" textLength="70" x="539" y="315.3311">中文、Mac</text><path d="M486,319.6328 L496,319.6328 C511,319.6328 511,310.4844 526,310.4844 L536,310.4844 " fill="none" style="stroke: #A80036; stroke-width: 1.0;"/><text fill="#000000" font-family="sans-serif" font-size="14" lengthAdjust="spacingAndGlyphs" textLength="70" x="539" y="333.6279">新苹果默认</text><path d="M486,319.6328 L496,319.6328 C511,319.6328 511,328.7813 526,328.7813 L536,328.7813 " fill="none" style="stroke: #A80036; stroke-width: 1.0;"/><path d="M288,375.9297 L298,375.9297 C313,375.9297 313,319.6328 328,319.6328 L338,319.6328 " fill="none" style="stroke: #A80036; stroke-width: 1.0;"/><rect fill="#FEFECE" filter="url(#f5io2y39c641d)" height="36.2969" rx="12.5" ry="12.5" style="stroke: #A80036; stroke-width: 1.5;" width="223" x="338" y="357.7813"/><text fill="#000000" font-family="sans-serif" font-size="14" lengthAdjust="spacingAndGlyphs" textLength="203" x="348" y="380.7764">冬青黑体（Hiragino Sans GB）</text><text fill="#000000" font-family="sans-serif" font-size="14" lengthAdjust="spacingAndGlyphs" textLength="70" x="614" y="371.6279">中文、Mac</text><path d="M561,375.9297 L571,375.9297 C586,375.9297 586,366.7813 601,366.7813 L611,366.7813 " fill="none" style="stroke: #A80036; stroke-width: 1.0;"/><text fill="#000000" font-family="sans-serif" font-size="14" lengthAdjust="spacingAndGlyphs" textLength="126" x="614" y="389.9248">苹果丽黑，小字清晰</text><path d="M561,375.9297 L571,375.9297 C586,375.9297 586,385.0781 601,385.0781 L611,385.0781 " fill="none" style="stroke: #A80036; stroke-width: 1.0;"/><path d="M288,375.9297 L298,375.9297 C313,375.9297 313,375.9297 328,375.9297 L338,375.9297 " fill="none" style="stroke: #A80036; stroke-width: 1.0;"/><rect fill="#FEFECE" filter="url(#f5io2y39c641d)" height="36.2969" rx="12.5" ry="12.5" style="stroke: #A80036; stroke-width: 1.5;" width="199" x="338" y="414.0781"/><text fill="#000000" font-family="sans-serif" font-size="14" lengthAdjust="spacingAndGlyphs" textLength="179" x="348" y="437.0732">Helvetica、Helvetica Neue</text><text fill="#000000" font-family="sans-serif" font-size="14" lengthAdjust="spacingAndGlyphs" textLength="70" x="590" y="437.0732">西文、Mac</text><path d="M537,432.2266 L547,432.2266 C562,432.2266 562,432.2266 577,432.2266 L587,432.2266 " fill="none" style="stroke: #A80036; stroke-width: 1.0;"/><path d="M288,375.9297 L298,375.9297 C313,375.9297 313,432.2266 328,432.2266 L338,432.2266 " fill="none" style="stroke: #A80036; stroke-width: 1.0;"/><rect fill="#FEFECE" filter="url(#f5io2y39c641d)" height="36.2969" rx="12.5" ry="12.5" style="stroke: #A80036; stroke-width: 1.5;" width="48" x="338" y="470.375"/><text fill="#000000" font-family="sans-serif" font-size="14" lengthAdjust="spacingAndGlyphs" textLength="28" x="348" y="493.3701">Arial</text><text fill="#000000" font-family="sans-serif" font-size="14" lengthAdjust="spacingAndGlyphs" textLength="104" x="439" y="493.3701">西文、Windows</text><path d="M386,488.5234 L396,488.5234 C411,488.5234 411,488.5234 426,488.5234 L436,488.5234 " fill="none" style="stroke: #A80036; stroke-width: 1.0;"/><path d="M288,375.9297 L298,375.9297 C313,375.9297 313,488.5234 328,488.5234 L338,488.5234 " fill="none" style="stroke: #A80036; stroke-width: 1.0;"/><rect fill="#FEFECE" filter="url(#f5io2y39c641d)" height="36.2969" rx="12.5" ry="12.5" style="stroke: #A80036; stroke-width: 1.5;" width="77" x="338" y="526.6719"/><text fill="#000000" font-family="sans-serif" font-size="14" lengthAdjust="spacingAndGlyphs" textLength="57" x="348" y="549.667">Verdana</text><text fill="#000000" font-family="sans-serif" font-size="14" lengthAdjust="spacingAndGlyphs" textLength="28" x="468" y="540.5186">西文</text><path d="M415,544.8203 L425,544.8203 C440,544.8203 440,535.6719 455,535.6719 L465,535.6719 " fill="none" style="stroke: #A80036; stroke-width: 1.0;"/><text fill="#000000" font-family="sans-serif" font-size="14" lengthAdjust="spacingAndGlyphs" textLength="56" x="468" y="558.8154">小字清晰</text><path d="M415,544.8203 L425,544.8203 C440,544.8203 440,553.9688 455,553.9688 L465,553.9688 " fill="none" style="stroke: #A80036; stroke-width: 1.0;"/><path d="M288,375.9297 L298,375.9297 C313,375.9297 313,544.8203 328,544.8203 L338,544.8203 " fill="none" style="stroke: #A80036; stroke-width: 1.0;"/><rect fill="#FEFECE" filter="url(#f5io2y39c641d)" height="36.2969" rx="12.5" ry="12.5" style="stroke: #A80036; stroke-width: 1.5;" width="76" x="338" y="582.9688"/><text fill="#000000" font-family="sans-serif" font-size="14" lengthAdjust="spacingAndGlyphs" textLength="56" x="348" y="605.9639">Tahoma</text><text fill="#000000" font-family="sans-serif" font-size="14" lengthAdjust="spacingAndGlyphs" textLength="28" x="467" y="596.8154">西文</text><path d="M414,601.1172 L424,601.1172 C439,601.1172 439,591.9688 454,591.9688 L464,591.9688 " fill="none" style="stroke: #A80036; stroke-width: 1.0;"/><text fill="#000000" font-family="sans-serif" font-size="14" lengthAdjust="spacingAndGlyphs" textLength="225" x="467" y="615.1123">字元间距较小，Unicode支持范围大</text><path d="M414,601.1172 L424,601.1172 C439,601.1172 439,610.2656 454,610.2656 L464,610.2656 " fill="none" style="stroke: #A80036; stroke-width: 1.0;"/><path d="M288,375.9297 L298,375.9297 C313,375.9297 313,601.1172 328,601.1172 L338,601.1172 " fill="none" style="stroke: #A80036; stroke-width: 1.0;"/><path d="M100,609.5625 L110,609.5625 C125,609.5625 125,375.9297 140,375.9297 L150,375.9297 " fill="none" style="stroke: #A80036; stroke-width: 1.0;"/><rect fill="#FEFECE" filter="url(#f5io2y39c641d)" height="36.2969" rx="12.5" ry="12.5" style="stroke: #A80036; stroke-width: 1.5;" width="210" x="150" y="639.2656"/><text fill="#000000" font-family="sans-serif" font-size="14" lengthAdjust="spacingAndGlyphs" textLength="190" x="160" y="662.2607">monospace(等宽、代码字体)</text><rect fill="#FEFECE" filter="url(#f5io2y39c641d)" height="36.2969" rx="12.5" ry="12.5" style="stroke: #A80036; stroke-width: 1.5;" width="84" x="410" y="639.2656"/><text fill="#000000" font-family="sans-serif" font-size="14" lengthAdjust="spacingAndGlyphs" textLength="64" x="420" y="662.2607">Consolas</text><text fill="#000000" font-family="sans-serif" font-size="14" lengthAdjust="spacingAndGlyphs" textLength="28" x="547" y="653.1123">西文</text><path d="M494,657.4141 L504,657.4141 C519,657.4141 519,648.2656 534,648.2656 L544,648.2656 " fill="none" style="stroke: #A80036; stroke-width: 1.0;"/><text fill="#000000" font-family="sans-serif" font-size="14" lengthAdjust="spacingAndGlyphs" textLength="232" x="547" y="671.4092">ClearType字型平滑技术，带斜线的0</text><path d="M494,657.4141 L504,657.4141 C519,657.4141 519,666.5625 534,666.5625 L544,666.5625 " fill="none" style="stroke: #A80036; stroke-width: 1.0;"/><path d="M360,657.4141 L370,657.4141 C385,657.4141 385,657.4141 400,657.4141 L410,657.4141 " fill="none" style="stroke: #A80036; stroke-width: 1.0;"/><path d="M100,609.5625 L110,609.5625 C125,609.5625 125,657.4141 140,657.4141 L150,657.4141 " fill="none" style="stroke: #A80036; stroke-width: 1.0;"/><rect fill="#FEFECE" filter="url(#f5io2y39c641d)" height="36.2969" rx="12.5" ry="12.5" style="stroke: #A80036; stroke-width: 1.5;" width="107" x="150" y="695.5625"/><text fill="#000000" font-family="sans-serif" font-size="14" lengthAdjust="spacingAndGlyphs" textLength="87" x="160" y="718.5576">fantasy(梦幻)</text><path d="M100,609.5625 L110,609.5625 C125,609.5625 125,713.7109 140,713.7109 L150,713.7109 " fill="none" style="stroke: #A80036; stroke-width: 1.0;"/><rect fill="#FEFECE" filter="url(#f5io2y39c641d)" height="36.2969" rx="12.5" ry="12.5" style="stroke: #A80036; stroke-width: 1.5;" width="105" x="150" y="751.8594"/><text fill="#000000" font-family="sans-serif" font-size="14" lengthAdjust="spacingAndGlyphs" textLength="85" x="160" y="774.8545">cuisive(草体)</text><path d="M100,609.5625 L110,609.5625 C125,609.5625 125,770.0078 140,770.0078 L150,770.0078 " fill="none" style="stroke: #A80036; stroke-width: 1.0;"/><rect fill="#FEFECE" filter="url(#f5io2y39c641d)" height="36.2969" rx="12.5" ry="12.5" style="stroke: #A80036; stroke-width: 1.5;" width="181" x="150" y="808.1563"/><text fill="#000000" font-family="sans-serif" font-size="14" lengthAdjust="spacingAndGlyphs" textLength="161" x="160" y="831.1514">system-ui(系统默认字体)</text><rect fill="#FEFECE" filter="url(#f5io2y39c641d)" height="36.2969" rx="12.5" ry="12.5" style="stroke: #A80036; stroke-width: 1.5;" width="48" x="381" y="695.5625"/><text fill="#000000" font-family="sans-serif" font-size="14" lengthAdjust="spacingAndGlyphs" textLength="28" x="391" y="718.5576">优点</text><text fill="#000000" font-family="sans-serif" font-size="14" lengthAdjust="spacingAndGlyphs" textLength="210" x="482" y="709.4092">与当前操作系统使用的字体相匹配</text><path d="M429,713.7109 L439,713.7109 C454,713.7109 454,704.5625 469,704.5625 L479,704.5625 " fill="none" style="stroke: #A80036; stroke-width: 1.0;"/><text fill="#000000" font-family="sans-serif" font-size="14" lengthAdjust="spacingAndGlyphs" textLength="84" x="482" y="727.7061">可以提高性能</text><path d="M429,713.7109 L439,713.7109 C454,713.7109 454,722.8594 469,722.8594 L479,722.8594 " fill="none" style="stroke: #A80036; stroke-width: 1.0;"/><path d="M331,826.3047 L341,826.3047 C356,826.3047 356,713.7109 371,713.7109 L381,713.7109 " fill="none" style="stroke: #A80036; stroke-width: 1.0;"/><rect fill="#FEFECE" filter="url(#f5io2y39c641d)" height="36.2969" rx="12.5" ry="12.5" style="stroke: #A80036; stroke-width: 1.5;" width="201" x="381" y="751.8594"/><text fill="#000000" font-family="sans-serif" font-size="14" lengthAdjust="spacingAndGlyphs" textLength="181" x="391" y="774.8545">San Francisco Fonts(iOS9)</text><path d="M331,826.3047 L341,826.3047 C356,826.3047 356,770.0078 371,770.0078 L381,770.0078 " fill="none" style="stroke: #A80036; stroke-width: 1.0;"/><rect fill="#FEFECE" filter="url(#f5io2y39c641d)" height="36.2969" rx="12.5" ry="12.5" style="stroke: #A80036; stroke-width: 1.5;" width="388" x="381" y="808.1563"/><text fill="#000000" font-family="sans-serif" font-size="14" lengthAdjust="spacingAndGlyphs" textLength="368" x="391" y="831.1514">-apple-system/BlinkMacSystemFont(macOS 和 iOS 上)</text><path d="M331,826.3047 L341,826.3047 C356,826.3047 356,826.3047 371,826.3047 L381,826.3047 " fill="none" style="stroke: #A80036; stroke-width: 1.0;"/><rect fill="#FEFECE" filter="url(#f5io2y39c641d)" height="36.2969" rx="12.5" ry="12.5" style="stroke: #A80036; stroke-width: 1.5;" width="82" x="381" y="864.4531"/><text fill="#000000" font-family="sans-serif" font-size="14" lengthAdjust="spacingAndGlyphs" textLength="62" x="391" y="887.4482">Segoe UI</text><text fill="#000000" font-family="sans-serif" font-size="14" lengthAdjust="spacingAndGlyphs" textLength="160" x="516" y="887.4482">西文、Windows、无衬线</text><path d="M463,882.6016 L473,882.6016 C488,882.6016 488,882.6016 503,882.6016 L513,882.6016 " fill="none" style="stroke: #A80036; stroke-width: 1.0;"/><path d="M331,826.3047 L341,826.3047 C356,826.3047 356,882.6016 371,882.6016 L381,882.6016 " fill="none" style="stroke: #A80036; stroke-width: 1.0;"/><rect fill="#FEFECE" filter="url(#f5io2y39c641d)" height="36.2969" rx="12.5" ry="12.5" style="stroke: #A80036; stroke-width: 1.5;" width="71" x="381" y="920.75"/><text fill="#000000" font-family="sans-serif" font-size="14" lengthAdjust="spacingAndGlyphs" textLength="51" x="391" y="943.7451">Roboto</text><text fill="#000000" font-family="sans-serif" font-size="14" lengthAdjust="spacingAndGlyphs" textLength="151" x="505" y="943.7451">西文、Android、无衬线</text><path d="M452,938.8984 L462,938.8984 C477,938.8984 477,938.8984 492,938.8984 L502,938.8984 " fill="none" style="stroke: #A80036; stroke-width: 1.0;"/><path d="M331,826.3047 L341,826.3047 C356,826.3047 356,938.8984 371,938.8984 L381,938.8984 " fill="none" style="stroke: #A80036; stroke-width: 1.0;"/><path d="M100,609.5625 L110,609.5625 C125,609.5625 125,826.3047 140,826.3047 L150,826.3047 " fill="none" style="stroke: #A80036; stroke-width: 1.0;"/><rect fill="#FEFECE" filter="url(#f5io2y39c641d)" height="36.2969" rx="12.5" ry="12.5" style="stroke: #A80036; stroke-width: 1.5;" width="252" x="150" y="977.0469"/><text fill="#000000" font-family="sans-serif" font-size="14" lengthAdjust="spacingAndGlyphs" textLength="232" x="160" y="1000.042">emoji(用于兼容 emoji 表情符号字符)</text><path d="M100,609.5625 L110,609.5625 C125,609.5625 125,995.1953 140,995.1953 L150,995.1953 " fill="none" style="stroke: #A80036; stroke-width: 1.0;"/><rect fill="#FEFECE" filter="url(#f5io2y39c641d)" height="36.2969" rx="12.5" ry="12.5" style="stroke: #A80036; stroke-width: 1.5;" width="177" x="150" y="1033.3438"/><text fill="#000000" font-family="sans-serif" font-size="14" lengthAdjust="spacingAndGlyphs" textLength="157" x="160" y="1056.3389">math(适用于数学表达式)</text><path d="M100,609.5625 L110,609.5625 C125,609.5625 125,1051.4922 140,1051.4922 L150,1051.4922 " fill="none" style="stroke: #A80036; stroke-width: 1.0;"/><rect fill="#FEFECE" filter="url(#f5io2y39c641d)" height="36.2969" rx="12.5" ry="12.5" style="stroke: #A80036; stroke-width: 1.5;" width="221" x="150" y="1089.6406"/><text fill="#000000" font-family="sans-serif" font-size="14" lengthAdjust="spacingAndGlyphs" textLength="201" x="160" y="1112.6357">fangsong(中文的（仿宋）字体)</text><path d="M100,609.5625 L110,609.5625 C125,609.5625 125,1107.7891 140,1107.7891 L150,1107.7891 " fill="none" style="stroke: #A80036; stroke-width: 1.0;"/><rect fill="#FEFECE" filter="url(#f5io2y39c641d)" height="36.2969" rx="12.5" ry="12.5" style="stroke: #A80036; stroke-width: 1.5;" width="104" x="150" y="1154.3828"/><text fill="#000000" font-family="sans-serif" font-size="14" lengthAdjust="spacingAndGlyphs" textLength="84" x="160" y="1177.3779">字体选择建议</text><text fill="#000000" font-family="sans-serif" font-size="14" lengthAdjust="spacingAndGlyphs" textLength="140" x="307" y="1149.9326">尽量使用系统默认字体</text><path d="M254,1172.5313 L264,1172.5313 C279,1172.5313 279,1145.0859 294,1145.0859 L304,1145.0859 " fill="none" style="stroke: #A80036; stroke-width: 1.0;"/><text fill="#000000" font-family="sans-serif" font-size="14" lengthAdjust="spacingAndGlyphs" textLength="196" x="307" y="1168.2295">兼顾中西，西文在前，中文在后</text><path d="M254,1172.5313 L264,1172.5313 C279,1172.5313 279,1163.3828 294,1163.3828 L304,1163.3828 " fill="none" style="stroke: #A80036; stroke-width: 1.0;"/><text fill="#000000" font-family="sans-serif" font-size="14" lengthAdjust="spacingAndGlyphs" textLength="98" x="307" y="1186.5264">兼顾多操作系统</text><path d="M254,1172.5313 L264,1172.5313 C279,1172.5313 279,1181.6797 294,1181.6797 L304,1181.6797 " fill="none" style="stroke: #A80036; stroke-width: 1.0;"/><text fill="#000000" font-family="sans-serif" font-size="14" lengthAdjust="spacingAndGlyphs" textLength="350" x="307" y="1204.8232">兼顾旧操作系统，以字体族系列 serif 和 sans-serif 结尾</text><path d="M254,1172.5313 L264,1172.5313 C279,1172.5313 279,1199.9766 294,1199.9766 L304,1199.9766 " fill="none" style="stroke: #A80036; stroke-width: 1.0;"/><path d="M100,609.5625 L110,609.5625 C125,609.5625 125,1172.5313 140,1172.5313 L150,1172.5313 " fill="none" style="stroke: #A80036; stroke-width: 1.0;"/><!--MD5=[18c979fefb223d0979e3708c84abf150]
@startmindmap font-family
* font-family
++ seril(衬线)
+++ 宋体(SimSun)
++++_ 中文
+++ Times New Roman
++++_ 西文

++ sans-seril(无衬线)
+++ 黑体
++++_ 中文
+++ 微软雅黑
++++_ 中文、Windows
+++ 华文黑体、华文细黑
++++_ 中文、Mac
++++_ 旧苹果默认
+++ 黑体-简（Heiti SC）
++++_ 中文、Mac
++++_ 新苹果默认
+++ 冬青黑体（Hiragino Sans GB）
++++_ 中文、Mac
++++_ 苹果丽黑，小字清晰
+++ Helvetica、Helvetica Neue
++++_ 西文、Mac
+++ Arial
++++_ 西文、Windows
+++ Verdana
++++_ 西文
++++_ 小字清晰
+++ Tahoma
++++_ 西文
++++_ 字元间距较小，Unicode支持范围大

++ monospace(等宽、代码字体)
+++ Consolas
++++_ 西文
++++_ ClearType字型平滑技术，带斜线的0

++ fantasy(梦幻)

++ cuisive(草体)

++ system-ui(系统默认字体)
+++ 优点
++++_ 与当前操作系统使用的字体相匹配
++++_ 可以提高性能
+++ San Francisco Fonts(iOS9)
+++ -apple-system/BlinkMacSystemFont(macOS 和 iOS 上)
+++ Segoe UI
++++_ 西文、Windows、无衬线
+++ Roboto
++++_ 西文、Android、无衬线

++ emoji(用于兼容 emoji 表情符号字符)
++ math(适用于数学表达式)
++ fangsong(中文的（仿宋）字体)

++ 字体选择建议
+++_ 尽量使用系统默认字体
+++_ 兼顾中西，西文在前，中文在后
+++_ 兼顾多操作系统
+++_ 兼顾旧操作系统，以字体族系列 serif 和 sans-serif 结尾
@endmindmap

PlantUML version 1.2020.12(Sat Jun 06 10:54:15 UTC 2020)
(GPL source distribution)
Java Runtime: OpenJDK Runtime Environment
JVM: OpenJDK 64-Bit Server VM
Default Encoding: UTF-8
Language: en
Country: null
--></g></svg>