<?xml version="1.0" encoding="UTF-8" standalone="no"?><svg xmlns="http://www.w3.org/2000/svg" xmlns:xlink="http://www.w3.org/1999/xlink" contentScriptType="application/ecmascript" contentStyleType="text/css" height="104px" preserveAspectRatio="none" style="width:174px;height:104px;" version="1.1" viewBox="0 0 174 104" width="174px" zoomAndPan="magnify"><defs><filter height="300%" id="fuvtun908pn4c" width="300%" x="-1" y="-1"><feGaussianBlur result="blurOut" stdDeviation="2.0"/><feColorMatrix in="blurOut" result="blurOut2" type="matrix" values="0 0 0 0 0 0 0 0 0 0 0 0 0 0 0 0 0 0 .4 0"/><feOffset dx="4.0" dy="4.0" in="blurOut2" result="blurOut3"/><feBlend in="SourceGraphic" in2="blurOut3" mode="normal"/></filter></defs><g><!--MD5=[2f4e497837a991172d40b04b7a7d0ca2]
class Singleton--><rect fill="#FEFECE" filter="url(#fuvtun908pn4c)" height="86.4141" id="Singleton" style="stroke: #A80036; stroke-width: 1.5;" width="156" x="7" y="7"/><ellipse cx="51.25" cy="23" fill="#ADD1B2" rx="11" ry="11" style="stroke: #A80036; stroke-width: 1.0;"/><path d="M54.2188,28.6406 Q53.6406,28.9375 53,29.0781 Q52.3594,29.2344 51.6563,29.2344 Q49.1563,29.2344 47.8281,27.5938 Q46.5156,25.9375 46.5156,22.8125 Q46.5156,19.6875 47.8281,18.0313 Q49.1563,16.375 51.6563,16.375 Q52.3594,16.375 53,16.5313 Q53.6563,16.6875 54.2188,16.9844 L54.2188,19.7031 Q53.5938,19.125 53,18.8594 Q52.4063,18.5781 51.7813,18.5781 Q50.4375,18.5781 49.75,19.6563 Q49.0625,20.7188 49.0625,22.8125 Q49.0625,24.9063 49.75,25.9844 Q50.4375,27.0469 51.7813,27.0469 Q52.4063,27.0469 53,26.7813 Q53.5938,26.5 54.2188,25.9219 L54.2188,28.6406 Z "/><text fill="#000000" font-family="sans-serif" font-size="12" lengthAdjust="spacingAndGlyphs" textLength="59" x="71.75" y="27.1543">Singleton</text><line style="stroke: #A80036; stroke-width: 1.5;" x1="8" x2="162" y1="39" y2="39"/><text fill="#000000" font-family="sans-serif" font-size="11" lengthAdjust="spacingAndGlyphs" textLength="113" x="13" y="53.2104">-instance: Singleton</text><line style="stroke: #A80036; stroke-width: 1.5;" x1="8" x2="162" y1="59.8047" y2="59.8047"/><text fill="#000000" font-family="sans-serif" font-size="11" lengthAdjust="spacingAndGlyphs" textLength="144" x="13" y="74.0151">+getInstance(): Singleton</text><text fill="#000000" font-family="sans-serif" font-size="11" lengthAdjust="spacingAndGlyphs" textLength="70" x="13" y="86.8198">#Singleton()</text><!--MD5=[1f5df1ba78030d9e83c31f87fbebfe21]
@startuml 单例模式
skinparam classAttributeIconSize 0

class Singleton {
  -instance: Singleton
  +getInstance(): Singleton
  #Singleton()
}
@enduml

PlantUML version 1.2020.12(Sat Jun 06 10:54:15 UTC 2020)
(GPL source distribution)
Java Runtime: OpenJDK Runtime Environment
JVM: OpenJDK 64-Bit Server VM
Default Encoding: UTF-8
Language: en
Country: null
--></g></svg>