<?xml version="1.0" encoding="UTF-8" standalone="no"?><svg xmlns="http://www.w3.org/2000/svg" xmlns:xlink="http://www.w3.org/1999/xlink" contentScriptType="application/ecmascript" contentStyleType="text/css" height="309px" preserveAspectRatio="none" style="width:633px;height:309px;" version="1.1" viewBox="0 0 633 309" width="633px" zoomAndPan="magnify"><defs><filter height="300%" id="fqpsusmdjpdlf" width="300%" x="-1" y="-1"><feGaussianBlur result="blurOut" stdDeviation="2.0"/><feColorMatrix in="blurOut" result="blurOut2" type="matrix" values="0 0 0 0 0 0 0 0 0 0 0 0 0 0 0 0 0 0 .4 0"/><feOffset dx="4.0" dy="4.0" in="blurOut2" result="blurOut3"/><feBlend in="SourceGraphic" in2="blurOut3" mode="normal"/></filter></defs><g><rect fill="#FEFECE" filter="url(#fqpsusmdjpdlf)" height="36.2969" rx="12.5" ry="12.5" style="stroke: #A80036; stroke-width: 1.5;" width="53" x="10" y="141.0391"/><text fill="#000000" font-family="sans-serif" font-size="14" lengthAdjust="spacingAndGlyphs" textLength="33" x="20" y="164.0342">main</text><rect fill="#FEFECE" filter="url(#fqpsusmdjpdlf)" height="36.2969" rx="12.5" ry="12.5" style="stroke: #A80036; stroke-width: 1.5;" width="153" x="113" y="48.1484"/><text fill="#000000" font-family="sans-serif" font-size="14" lengthAdjust="spacingAndGlyphs" textLength="133" x="123" y="71.1436">认证-Authentication</text><rect fill="#FEFECE" filter="url(#fqpsusmdjpdlf)" height="36.2969" rx="12.5" ry="12.5" style="stroke: #A80036; stroke-width: 1.5;" width="132" x="316" y="20"/><text fill="#000000" font-family="sans-serif" font-size="14" lengthAdjust="spacingAndGlyphs" textLength="112" x="326" y="42.9951">证明“你是你自己”</text><path d="M266,66.2969 L276,66.2969 C291,66.2969 291,38.1484 306,38.1484 L316,38.1484 " fill="none" style="stroke: #A80036; stroke-width: 1.0;"/><rect fill="#FEFECE" filter="url(#fqpsusmdjpdlf)" height="36.2969" rx="12.5" ry="12.5" style="stroke: #A80036; stroke-width: 1.5;" width="76" x="316" y="76.2969"/><text fill="#000000" font-family="sans-serif" font-size="14" lengthAdjust="spacingAndGlyphs" textLength="56" x="326" y="99.292">实现方式</text><text fill="#000000" font-family="sans-serif" font-size="14" lengthAdjust="spacingAndGlyphs" textLength="70" x="445" y="80.9951">用户名密码</text><path d="M392,94.4453 L402,94.4453 C417,94.4453 417,76.1484 432,76.1484 L442,76.1484 " fill="none" style="stroke: #A80036; stroke-width: 1.0;"/><text fill="#000000" font-family="sans-serif" font-size="14" lengthAdjust="spacingAndGlyphs" textLength="84" x="445" y="99.292">专属登录链接</text><path d="M392,94.4453 L402,94.4453 C417,94.4453 417,94.4453 432,94.4453 L442,94.4453 " fill="none" style="stroke: #A80036; stroke-width: 1.0;"/><text fill="#000000" font-family="sans-serif" font-size="14" lengthAdjust="spacingAndGlyphs" textLength="42" x="445" y="117.5889">验证码</text><path d="M392,94.4453 L402,94.4453 C417,94.4453 417,112.7422 432,112.7422 L442,112.7422 " fill="none" style="stroke: #A80036; stroke-width: 1.0;"/><path d="M266,66.2969 L276,66.2969 C291,66.2969 291,94.4453 306,94.4453 L316,94.4453 " fill="none" style="stroke: #A80036; stroke-width: 1.0;"/><path d="M63,159.1875 L73,159.1875 C88,159.1875 88,66.2969 103,66.2969 L113,66.2969 " fill="none" style="stroke: #A80036; stroke-width: 1.0;"/><rect fill="#FEFECE" filter="url(#fqpsusmdjpdlf)" height="36.2969" rx="12.5" ry="12.5" style="stroke: #A80036; stroke-width: 1.5;" width="144" x="113" y="169.1875"/><text fill="#000000" font-family="sans-serif" font-size="14" lengthAdjust="spacingAndGlyphs" textLength="124" x="123" y="192.1826">授权-Authorization</text><rect fill="#FEFECE" filter="url(#fqpsusmdjpdlf)" height="36.2969" rx="12.5" ry="12.5" style="stroke: #A80036; stroke-width: 1.5;" width="160" x="307" y="132.5938"/><text fill="#000000" font-family="sans-serif" font-size="14" lengthAdjust="spacingAndGlyphs" textLength="140" x="317" y="155.5889">授予权限访问某些资源</text><path d="M257,187.3359 L267,187.3359 C282,187.3359 282,150.7422 297,150.7422 L307,150.7422 " fill="none" style="stroke: #A80036; stroke-width: 1.0;"/><rect fill="#FEFECE" filter="url(#fqpsusmdjpdlf)" height="36.2969" rx="12.5" ry="12.5" style="stroke: #A80036; stroke-width: 1.5;" width="76" x="307" y="197.3359"/><text fill="#000000" font-family="sans-serif" font-size="14" lengthAdjust="spacingAndGlyphs" textLength="56" x="317" y="220.3311">实现方式</text><text fill="#000000" font-family="sans-serif" font-size="14" lengthAdjust="spacingAndGlyphs" textLength="48" x="436" y="192.8857">Cookie</text><path d="M383,215.4844 L393,215.4844 C408,215.4844 408,188.0391 423,188.0391 L433,188.0391 " fill="none" style="stroke: #A80036; stroke-width: 1.0;"/><text fill="#000000" font-family="sans-serif" font-size="14" lengthAdjust="spacingAndGlyphs" textLength="54" x="436" y="211.1826">session</text><path d="M383,215.4844 L393,215.4844 C408,215.4844 408,206.3359 423,206.3359 L433,206.3359 " fill="none" style="stroke: #A80036; stroke-width: 1.0;"/><text fill="#000000" font-family="sans-serif" font-size="14" lengthAdjust="spacingAndGlyphs" textLength="40" x="436" y="229.4795">token</text><path d="M383,215.4844 L393,215.4844 C408,215.4844 408,224.6328 423,224.6328 L433,224.6328 " fill="none" style="stroke: #A80036; stroke-width: 1.0;"/><text fill="#000000" font-family="sans-serif" font-size="14" lengthAdjust="spacingAndGlyphs" textLength="43" x="436" y="247.7764">OAuth</text><path d="M383,215.4844 L393,215.4844 C408,215.4844 408,242.9297 423,242.9297 L433,242.9297 " fill="none" style="stroke: #A80036; stroke-width: 1.0;"/><path d="M257,187.3359 L267,187.3359 C282,187.3359 282,215.4844 297,215.4844 L307,215.4844 " fill="none" style="stroke: #A80036; stroke-width: 1.0;"/><path d="M63,159.1875 L73,159.1875 C88,159.1875 88,187.3359 103,187.3359 L113,187.3359 " fill="none" style="stroke: #A80036; stroke-width: 1.0;"/><rect fill="#FEFECE" filter="url(#fqpsusmdjpdlf)" height="36.2969" rx="12.5" ry="12.5" style="stroke: #A80036; stroke-width: 1.5;" width="131" x="113" y="262.0781"/><text fill="#000000" font-family="sans-serif" font-size="14" lengthAdjust="spacingAndGlyphs" textLength="111" x="123" y="285.0732">凭证-Credentials</text><rect fill="#FEFECE" filter="url(#fqpsusmdjpdlf)" height="36.2969" rx="12.5" ry="12.5" style="stroke: #A80036; stroke-width: 1.5;" width="328" x="294" y="262.0781"/><text fill="#000000" font-family="sans-serif" font-size="14" lengthAdjust="spacingAndGlyphs" textLength="308" x="304" y="285.0732">进行认证、授权的一种手段、媒介（例如身份证）</text><path d="M244,280.2266 L254,280.2266 C269,280.2266 269,280.2266 284,280.2266 L294,280.2266 " fill="none" style="stroke: #A80036; stroke-width: 1.0;"/><path d="M63,159.1875 L73,159.1875 C88,159.1875 88,280.2266 103,280.2266 L113,280.2266 " fill="none" style="stroke: #A80036; stroke-width: 1.0;"/><!--MD5=[0daa1d1793b183344eef4753aa7e1e3f]
@startmindmap HTTP中认证、授权
* main

++ 认证-Authentication
+++ 证明“你是你自己”
+++ 实现方式
++++_ 用户名密码
++++_ 专属登录链接
++++_ 验证码

++ 授权-Authorization
+++ 授予权限访问某些资源
+++ 实现方式
++++_ Cookie
++++_ session
++++_ token
++++_ OAuth

++ 凭证-Credentials
+++ 进行认证、授权的一种手段、媒介（例如身份证）

@endmindmap

PlantUML version 1.2020.12(Sat Jun 06 10:54:15 UTC 2020)
(GPL source distribution)
Java Runtime: OpenJDK Runtime Environment
JVM: OpenJDK 64-Bit Server VM
Default Encoding: UTF-8
Language: en
Country: null
--></g></svg>