<?xml version="1.0" encoding="UTF-8" standalone="no"?><svg xmlns="http://www.w3.org/2000/svg" xmlns:xlink="http://www.w3.org/1999/xlink" contentScriptType="application/ecmascript" contentStyleType="text/css" height="331px" preserveAspectRatio="none" style="width:238px;height:331px;" version="1.1" viewBox="0 0 238 331" width="238px" zoomAndPan="magnify"><defs><filter height="300%" id="flcirzjlihxew" width="300%" x="-1" y="-1"><feGaussianBlur result="blurOut" stdDeviation="2.0"/><feColorMatrix in="blurOut" result="blurOut2" type="matrix" values="0 0 0 0 0 0 0 0 0 0 0 0 0 0 0 0 0 0 .4 0"/><feOffset dx="4.0" dy="4.0" in="blurOut2" result="blurOut3"/><feBlend in="SourceGraphic" in2="blurOut3" mode="normal"/></filter></defs><g><!--MD5=[d0da0a299942266ebd64acf2b2e95fa4]
class Subject--><rect fill="#FEFECE" filter="url(#flcirzjlihxew)" height="48" id="Subject" style="stroke: #A80036; stroke-width: 1.5;" width="79" x="120" y="152"/><ellipse cx="135" cy="168" fill="#A9DCDF" rx="11" ry="11" style="stroke: #A80036; stroke-width: 1.0;"/><path d="M135.1094,163.3438 L133.9531,168.4219 L136.2813,168.4219 L135.1094,163.3438 Z M133.625,161.1094 L136.6094,161.1094 L139.9688,173.5 L137.5156,173.5 L136.75,170.4375 L133.4688,170.4375 L132.7188,173.5 L130.2813,173.5 L133.625,161.1094 Z "/><text fill="#000000" font-family="sans-serif" font-size="12" font-style="italic" lengthAdjust="spacingAndGlyphs" textLength="47" x="149" y="172.1543">Subject</text><line style="stroke: #A80036; stroke-width: 1.5;" x1="121" x2="198" y1="184" y2="184"/><line style="stroke: #A80036; stroke-width: 1.5;" x1="121" x2="198" y1="192" y2="192"/><!--MD5=[9182b206835a43bc1550ae1fc8c5ab74]
class ConcreteSubject--><rect fill="#FEFECE" filter="url(#flcirzjlihxew)" height="60.8047" id="ConcreteSubject" style="stroke: #A80036; stroke-width: 1.5;" width="136" x="91.5" y="260"/><ellipse cx="106.5" cy="276" fill="#ADD1B2" rx="11" ry="11" style="stroke: #A80036; stroke-width: 1.0;"/><path d="M109.4688,281.6406 Q108.8906,281.9375 108.25,282.0781 Q107.6094,282.2344 106.9063,282.2344 Q104.4063,282.2344 103.0781,280.5938 Q101.7656,278.9375 101.7656,275.8125 Q101.7656,272.6875 103.0781,271.0313 Q104.4063,269.375 106.9063,269.375 Q107.6094,269.375 108.25,269.5313 Q108.9063,269.6875 109.4688,269.9844 L109.4688,272.7031 Q108.8438,272.125 108.25,271.8594 Q107.6563,271.5781 107.0313,271.5781 Q105.6875,271.5781 105,272.6563 Q104.3125,273.7188 104.3125,275.8125 Q104.3125,277.9063 105,278.9844 Q105.6875,280.0469 107.0313,280.0469 Q107.6563,280.0469 108.25,279.7813 Q108.8438,279.5 109.4688,278.9219 L109.4688,281.6406 Z "/><text fill="#000000" font-family="sans-serif" font-size="12" lengthAdjust="spacingAndGlyphs" textLength="104" x="120.5" y="280.1543">ConcreteSubject</text><line style="stroke: #A80036; stroke-width: 1.5;" x1="92.5" x2="226.5" y1="292" y2="292"/><line style="stroke: #A80036; stroke-width: 1.5;" x1="92.5" x2="226.5" y1="300" y2="300"/><text fill="#000000" font-family="sans-serif" font-size="11" lengthAdjust="spacingAndGlyphs" textLength="60" x="97.5" y="314.2104">+method()</text><!--MD5=[f7109e258b7e3e4bb390e34b115b99ce]
class Proxy--><rect fill="#FEFECE" filter="url(#flcirzjlihxew)" height="86.4141" id="Proxy" style="stroke: #A80036; stroke-width: 1.5;" width="103" x="108" y="6"/><ellipse cx="140.1" cy="22" fill="#ADD1B2" rx="11" ry="11" style="stroke: #A80036; stroke-width: 1.0;"/><path d="M143.0688,27.6406 Q142.4906,27.9375 141.85,28.0781 Q141.2094,28.2344 140.5063,28.2344 Q138.0063,28.2344 136.6781,26.5938 Q135.3656,24.9375 135.3656,21.8125 Q135.3656,18.6875 136.6781,17.0313 Q138.0063,15.375 140.5063,15.375 Q141.2094,15.375 141.85,15.5313 Q142.5063,15.6875 143.0688,15.9844 L143.0688,18.7031 Q142.4438,18.125 141.85,17.8594 Q141.2563,17.5781 140.6313,17.5781 Q139.2875,17.5781 138.6,18.6563 Q137.9125,19.7188 137.9125,21.8125 Q137.9125,23.9063 138.6,24.9844 Q139.2875,26.0469 140.6313,26.0469 Q141.2563,26.0469 141.85,25.7813 Q142.4438,25.5 143.0688,24.9219 L143.0688,27.6406 Z "/><text fill="#000000" font-family="sans-serif" font-size="12" lengthAdjust="spacingAndGlyphs" textLength="33" x="157.9" y="26.1543">Proxy</text><line style="stroke: #A80036; stroke-width: 1.5;" x1="109" x2="210" y1="38" y2="38"/><text fill="#000000" font-family="sans-serif" font-size="11" lengthAdjust="spacingAndGlyphs" textLength="91" x="114" y="52.2104">-subject Subject</text><line style="stroke: #A80036; stroke-width: 1.5;" x1="109" x2="210" y1="58.8047" y2="58.8047"/><text fill="#000000" font-family="sans-serif" font-size="11" lengthAdjust="spacingAndGlyphs" textLength="60" x="114" y="73.0151">+method()</text><text fill="#000000" font-family="sans-serif" font-size="11" lengthAdjust="spacingAndGlyphs" textLength="88" x="114" y="85.8198">+otherMethod()</text><!--MD5=[ed6624c6556d5e7b1bd23032162d20b7]
class Client--><rect fill="#FEFECE" filter="url(#flcirzjlihxew)" height="48" id="Client" style="stroke: #A80036; stroke-width: 1.5;" width="67" x="6" y="25"/><ellipse cx="21" cy="41" fill="#ADD1B2" rx="11" ry="11" style="stroke: #A80036; stroke-width: 1.0;"/><path d="M23.9688,46.6406 Q23.3906,46.9375 22.75,47.0781 Q22.1094,47.2344 21.4063,47.2344 Q18.9063,47.2344 17.5781,45.5938 Q16.2656,43.9375 16.2656,40.8125 Q16.2656,37.6875 17.5781,36.0313 Q18.9063,34.375 21.4063,34.375 Q22.1094,34.375 22.75,34.5313 Q23.4063,34.6875 23.9688,34.9844 L23.9688,37.7031 Q23.3438,37.125 22.75,36.8594 Q22.1563,36.5781 21.5313,36.5781 Q20.1875,36.5781 19.5,37.6563 Q18.8125,38.7188 18.8125,40.8125 Q18.8125,42.9063 19.5,43.9844 Q20.1875,45.0469 21.5313,45.0469 Q22.1563,45.0469 22.75,44.7813 Q23.3438,44.5 23.9688,43.9219 L23.9688,46.6406 Z "/><text fill="#000000" font-family="sans-serif" font-size="12" lengthAdjust="spacingAndGlyphs" textLength="35" x="35" y="45.1543">Client</text><line style="stroke: #A80036; stroke-width: 1.5;" x1="7" x2="72" y1="57" y2="57"/><line style="stroke: #A80036; stroke-width: 1.5;" x1="7" x2="72" y1="65" y2="65"/><!--MD5=[6c8bde876792f198e3004b5674ea61b5]
link Client to Proxy--><path d="M73.25,49 C83.1003,49 92.9507,49 102.801,49 " fill="none" id="Client-&gt;Proxy" style="stroke: #A80036; stroke-width: 1.0;"/><polygon fill="#A80036" points="107.9521,49,98.9521,45,102.9521,49,98.9521,53,107.9521,49" style="stroke: #A80036; stroke-width: 1.0;"/><!--MD5=[5997160807364bdd25f39226526130dd]
link Proxy to Subject--><path d="M159.5,92.351 C159.5,104.9013 159.5,118.6231 159.5,131.2567 " fill="none" id="Proxy-&gt;Subject" style="stroke: #A80036; stroke-width: 1.0;"/><polygon fill="none" points="166.5001,131.708,159.5,151.7079,152.5001,131.7079,166.5001,131.708" style="stroke: #A80036; stroke-width: 1.0;"/><!--MD5=[add3666d1eb41a24e12d4ec983519b17]
reverse link Subject to ConcreteSubject--><path d="M159.5,220.2477 C159.5,233.5296 159.5,247.7972 159.5,259.9818 " fill="none" id="Subject&lt;-ConcreteSubject" style="stroke: #A80036; stroke-width: 1.0;"/><polygon fill="none" points="152.5001,220.003,159.5,200.003,166.5001,220.0029,152.5001,220.003" style="stroke: #A80036; stroke-width: 1.0;"/><!--MD5=[826cbe5c70d970dcabb1a14ae289adf4]
@startuml 代理
skinparam classAttributeIconSize 0

abstract class Subject {

}
class ConcreteSubject {
  + method()
}
class Proxy {
  - subject Subject
  + method()
  + otherMethod()
}

Client -> Proxy
Proxy - -|> Subject
Subject <|- - ConcreteSubject
@enduml

PlantUML version 1.2020.12(Sat Jun 06 10:54:15 UTC 2020)
(GPL source distribution)
Java Runtime: OpenJDK Runtime Environment
JVM: OpenJDK 64-Bit Server VM
Default Encoding: UTF-8
Language: en
Country: null
--></g></svg>