<?xml version="1.0" encoding="UTF-8" standalone="no"?><svg xmlns="http://www.w3.org/2000/svg" xmlns:xlink="http://www.w3.org/1999/xlink" contentScriptType="application/ecmascript" contentStyleType="text/css" height="914px" preserveAspectRatio="none" style="width:600px;height:914px;" version="1.1" viewBox="0 0 600 914" width="600px" zoomAndPan="magnify"><defs><filter height="300%" id="fa6z7g8fk6pum" width="300%" x="-1" y="-1"><feGaussianBlur result="blurOut" stdDeviation="2.0"/><feColorMatrix in="blurOut" result="blurOut2" type="matrix" values="0 0 0 0 0 0 0 0 0 0 0 0 0 0 0 0 0 0 .4 0"/><feOffset dx="4.0" dy="4.0" in="blurOut2" result="blurOut3"/><feBlend in="SourceGraphic" in2="blurOut3" mode="normal"/></filter></defs><g><!--MD5=[25d30ac6089db4fd582a6e1898e876c7]
cluster Download--><polygon fill="#FFFFFF" filter="url(#fa6z7g8fk6pum)" points="39,414,123,414,130,436.2969,334,436.2969,334,850,39,850,39,414" style="stroke: #000000; stroke-width: 1.5;"/><line style="stroke: #000000; stroke-width: 1.5;" x1="39" x2="130" y1="436.2969" y2="436.2969"/><text fill="#000000" font-family="sans-serif" font-size="14" font-weight="bold" lengthAdjust="spacingAndGlyphs" textLength="78" x="43" y="428.9951">Download</text><rect fill="#FEFECE" filter="url(#fa6z7g8fk6pum)" height="33.9688" rx="12.5" ry="12.5" style="stroke: #A80036; stroke-width: 1.5;" width="80" x="227" y="441"/><text fill="#000000" font-family="sans-serif" font-size="12" lengthAdjust="spacingAndGlyphs" textLength="60" x="237" y="462.1387">download</text><polygon fill="#FEFECE" filter="url(#fa6z7g8fk6pum)" points="175,558,187,570,175,582,163,570,175,558" style="stroke: #A80036; stroke-width: 1.5;"/><rect fill="#FEFECE" filter="url(#fa6z7g8fk6pum)" height="33.9688" rx="12.5" ry="12.5" style="stroke: #A80036; stroke-width: 1.5;" width="90" x="70" y="691"/><text fill="#000000" font-family="sans-serif" font-size="12" lengthAdjust="spacingAndGlyphs" textLength="70" x="80" y="712.1387">reportError</text><rect fill="#FEFECE" filter="url(#fa6z7g8fk6pum)" height="33.9688" rx="12.5" ry="12.5" style="stroke: #A80036; stroke-width: 1.5;" width="91" x="221.5" y="691"/><text fill="#000000" font-family="sans-serif" font-size="12" lengthAdjust="spacingAndGlyphs" textLength="71" x="231.5" y="712.1387">save binary</text><rect fill="#FEFECE" filter="url(#fa6z7g8fk6pum)" height="33.9688" rx="12.5" ry="12.5" style="stroke: #A80036; stroke-width: 1.5;" width="100" x="220" y="808"/><text fill="#000000" font-family="sans-serif" font-size="12" lengthAdjust="spacingAndGlyphs" textLength="80" x="230" y="829.1387">cache binary</text><ellipse cx="452" cy="16" fill="#000000" filter="url(#fa6z7g8fk6pum)" rx="10" ry="10" style="stroke: none; stroke-width: 1.0;"/><rect fill="#FEFECE" filter="url(#fa6z7g8fk6pum)" height="33.9688" rx="12.5" ry="12.5" style="stroke: #A80036; stroke-width: 1.5;" width="274" x="315" y="67"/><text fill="#000000" font-family="sans-serif" font-size="12" lengthAdjust="spacingAndGlyphs" textLength="254" x="325" y="88.1387">script/install.js checkAndDownloadBinary</text><polygon fill="#FEFECE" filter="url(#fa6z7g8fk6pum)" points="452,142,464,154,452,166,440,154,452,142" style="stroke: #A80036; stroke-width: 1.5;"/><ellipse cx="359" cy="893" fill="none" filter="url(#fa6z7g8fk6pum)" rx="10" ry="10" style="stroke: #000000; stroke-width: 1.0;"/><ellipse cx="359.5" cy="893.5" fill="#000000" rx="6" ry="6" style="stroke: none; stroke-width: 1.0;"/><polygon fill="#FEFECE" filter="url(#fa6z7g8fk6pum)" points="383,243.5,395,255.5,383,267.5,371,255.5,383,243.5" style="stroke: #A80036; stroke-width: 1.5;"/><path d="M41,220 L41,290.5313 A0,0 0 0 0 41,290.5313 L351,290.5313 A0,0 0 0 0 351,290.5313 L351,259.5 L370.5877,255.5 L351,251.5 L351,230 L341,220 L41,220 A0,0 0 0 0 41,220 " fill="#FBFB77" filter="url(#fa6z7g8fk6pum)" style="stroke: #A80036; stroke-width: 1.0;"/><path d="M341,220 L341,230 L351,230 L341,220 " fill="#FBFB77" style="stroke: #A80036; stroke-width: 1.0;"/><text fill="#000000" font-family="sans-serif" font-size="13" lengthAdjust="spacingAndGlyphs" textLength="133" x="47" y="237.0669">1. --sass-binary-path</text><text fill="#000000" font-family="sans-serif" font-size="13" lengthAdjust="spacingAndGlyphs" textLength="227" x="47" y="252.1997">2. process.env.SASS_BINARY_PATH</text><text fill="#000000" font-family="sans-serif" font-size="13" lengthAdjust="spacingAndGlyphs" textLength="289" x="47" y="267.3325">3. process.env.npm_config_sass_binary_path</text><text fill="#000000" font-family="sans-serif" font-size="13" lengthAdjust="spacingAndGlyphs" textLength="218" x="47" y="282.4653">4. pkg.nodeSassConfig.binaryPath</text><polygon fill="#FEFECE" filter="url(#fa6z7g8fk6pum)" points="383,353,395,365,383,377,371,365,383,353" style="stroke: #A80036; stroke-width: 1.5;"/><path d="M47.5,345 L47.5,385.2656 A0,0 0 0 0 47.5,385.2656 L350.5,385.2656 A0,0 0 0 0 350.5,385.2656 L350.5,369 L370.8711,365 L350.5,361 L350.5,355 L340.5,345 L47.5,345 A0,0 0 0 0 47.5,345 " fill="#FBFB77" filter="url(#fa6z7g8fk6pum)" style="stroke: #A80036; stroke-width: 1.0;"/><path d="M340.5,345 L340.5,355 L350.5,355 L340.5,345 " fill="#FBFB77" style="stroke: #A80036; stroke-width: 1.0;"/><text fill="#000000" font-family="sans-serif" font-size="13" lengthAdjust="spacingAndGlyphs" textLength="282" x="53.5" y="362.0669">process.env.npm_config_sass_binary_cache</text><text fill="#000000" font-family="sans-serif" font-size="13" lengthAdjust="spacingAndGlyphs" textLength="200" x="53.5" y="377.1997">process.env.npm_config_cache</text><rect fill="#FEFECE" filter="url(#fa6z7g8fk6pum)" height="33.9688" rx="12.5" ry="12.5" style="stroke: #A80036; stroke-width: 1.5;" width="137" x="342.5" y="808"/><text fill="#000000" font-family="sans-serif" font-size="12" lengthAdjust="spacingAndGlyphs" textLength="117" x="352.5" y="829.1387">copy to binaryPath</text><!--MD5=[e2f5a5d4fdd28b8e953aa4c6e14a0ac8]
link start to script/install.js checkAndDownloadBinary--><path d="M452,26.0336 C452,35.4082 452,49.7285 452,61.7898 " fill="none" id="start-&gt;script/install.js checkAndDownloadBinary" style="stroke: #A80036; stroke-width: 1.0;"/><polygon fill="#A80036" points="452,66.7995,456,57.7995,452,61.7995,448,57.7995,452,66.7995" style="stroke: #A80036; stroke-width: 1.0;"/><!--MD5=[a84c90085dd53d9fe6689a120736d505]
link script/install.js checkAndDownloadBinary to #4804--><path d="M452,101.3034 C452,112.1588 452,126.0963 452,136.9108 " fill="none" id="script/install.js checkAndDownloadBinary-&gt;#4804" style="stroke: #A80036; stroke-width: 1.0;"/><polygon fill="#A80036" points="452,141.9417,456,132.9417,452,136.9417,448,132.9417,452,141.9417" style="stroke: #A80036; stroke-width: 1.0;"/><text fill="#000000" font-family="sans-serif" font-size="11" lengthAdjust="spacingAndGlyphs" textLength="223" x="209.1391" y="137.0072">SKIP_SASS_BINARY_DOWNLOAD_FOR_CI</text><!--MD5=[1de0452c57a5ce09cb7ed0edc53f9159]
link #4804 to end--><path d="M458.314,159.7155 C473.5344,174.1547 511,213.9201 511,255.5 C511,255.5 511,255.5 511,825 C511,839.511 502.0201,841.8707 490,850 C452.7922,875.164 399.7442,886.5412 374.0705,890.8226 " fill="none" id="#4804-&gt;end" style="stroke: #A80036; stroke-width: 1.0;"/><polygon fill="#A80036" points="369.0231,891.6309,378.5424,894.1573,373.9602,890.8402,377.2773,886.258,369.0231,891.6309" style="stroke: #A80036; stroke-width: 1.0;"/><text fill="#000000" font-family="sans-serif" font-size="11" lengthAdjust="spacingAndGlyphs" textLength="23" x="512" y="574.2104">true</text><!--MD5=[f7b6ff8e5fe9f82da0800062d792acde]
link #4804 to #4809--><path d="M447.0377,161.2996 C435.2018,178.7104 405.2353,222.7916 390.8896,243.8943 " fill="none" id="#4804-&gt;#4809" style="stroke: #A80036; stroke-width: 1.0;"/><polygon fill="#A80036" points="387.9173,248.2665,396.2851,243.0723,390.7283,244.1315,389.6691,238.5747,387.9173,248.2665" style="stroke: #A80036; stroke-width: 1.0;"/><text fill="#000000" font-family="sans-serif" font-size="11" lengthAdjust="spacingAndGlyphs" textLength="28" x="430" y="197.2104">false</text><text fill="#000000" font-family="sans-serif" font-size="11" lengthAdjust="spacingAndGlyphs" textLength="61" x="403.4124" y="240.8633">has Binary</text><!--MD5=[e7e5b51aaf5abdf25ca47ea7a92f1494]
link #4809 to end--><path d="M379.8526,264.6355 C376.5095,272.8968 370.3953,284.7015 361,291 C227.1297,380.7454 6,203.8308 6,365 C6,365 6,365 6,825 C6,841.683 18.8372,843.0423 34,850 C90.5022,875.9267 287.2314,888.9168 343.7235,892.1695 " fill="none" id="#4809-&gt;end" style="stroke: #A80036; stroke-width: 1.0;"/><polygon fill="#A80036" points="348.7433,892.454,339.9843,887.9508,343.7513,892.1709,339.5312,895.9379,348.7433,892.454" style="stroke: #A80036; stroke-width: 1.0;"/><text fill="#000000" font-family="sans-serif" font-size="11" lengthAdjust="spacingAndGlyphs" textLength="23" x="7" y="613.2104">true</text><!--MD5=[54374dffcde4953d093afa695d0ba249]
link #4809 to #4830--><path d="M383,267.6368 C383,287.1228 383,325.4556 383,347.7691 " fill="none" id="#4809-&gt;#4830" style="stroke: #A80036; stroke-width: 1.0;"/><polygon fill="#A80036" points="383,352.8088,387,343.8088,383,347.8088,379,343.8088,383,352.8088" style="stroke: #A80036; stroke-width: 1.0;"/><text fill="#000000" font-family="sans-serif" font-size="11" lengthAdjust="spacingAndGlyphs" textLength="28" x="384" y="322.2104">false</text><text fill="#000000" font-family="sans-serif" font-size="11" lengthAdjust="spacingAndGlyphs" textLength="76" x="401.525" y="342.3472">cachedBinary</text><!--MD5=[50fe2a6924e8391b50a63d379445e1d5]
link #4830 to copy to binaryPath--><path d="M384.6928,375.5677 C387.2999,392.7866 392,427.9907 392,458 C392,458 392,458 392,766.5 C392,779.0013 395.9734,792.3028 400.2862,803.0583 " fill="none" id="#4830-&gt;copy to binaryPath" style="stroke: #A80036; stroke-width: 1.0;"/><polygon fill="#A80036" points="402.2785,807.8088,402.4864,797.9621,400.3447,803.1979,395.1089,801.0562,402.2785,807.8088" style="stroke: #A80036; stroke-width: 1.0;"/><text fill="#000000" font-family="sans-serif" font-size="11" lengthAdjust="spacingAndGlyphs" textLength="23" x="393" y="613.2104">true</text><!--MD5=[d4de1355a0b5cdd5c3532efd8bdeb9c6]
link copy to binaryPath to end--><path d="M397.8782,842.1593 C388.6349,854.2467 376.4864,870.1332 368.2471,880.9076 " fill="none" id="copy to binaryPath-&gt;end" style="stroke: #A80036; stroke-width: 1.0;"/><polygon fill="#A80036" points="365.1886,884.9073,373.8331,880.1879,368.2258,880.9355,367.4782,875.3283,365.1886,884.9073" style="stroke: #A80036; stroke-width: 1.0;"/><!--MD5=[e0a5f5dd7b7fd2a43bb1644349960f5f]
link #4830 to download--><path d="M376.572,371.0859 C372.2466,375.1204 366.3735,380.4826 361,385 C339.0909,403.4186 313.3692,423.2785 294.3759,437.627 " fill="none" id="#4830-&gt;download" style="stroke: #A80036; stroke-width: 1.0;"/><polygon fill="#A80036" points="290.1865,440.785,299.7811,438.5617,294.1792,437.7753,294.9656,432.1734,290.1865,440.785" style="stroke: #A80036; stroke-width: 1.0;"/><!--MD5=[4927d7eab1b0fde7ebe97fb8b922a7c8]
link download to #4842--><path d="M253.0272,475.0104 C233.8668,498.3361 199.9891,539.5784 183.9271,559.1322 " fill="none" id="download-&gt;#4842" style="stroke: #A80036; stroke-width: 1.0;"/><polygon fill="#A80036" points="180.6025,563.1795,189.4061,558.764,183.7762,559.3159,183.2243,553.686,180.6025,563.1795" style="stroke: #A80036; stroke-width: 1.0;"/><text fill="#000000" font-family="sans-serif" font-size="11" lengthAdjust="spacingAndGlyphs" textLength="19" x="195.3274" y="549.2822">res</text><!--MD5=[ab9d42690f139a4cf524b472d76fa7f2]
link #4842 to reportError--><path d="M165.9107,573.1528 C146.2486,580.5306 100.0818,600.9952 82,636 C73.2899,652.862 83.5646,672.471 94.8846,686.9634 " fill="none" id="#4842-&gt;reportError" style="stroke: #A80036; stroke-width: 1.0;"/><polygon fill="#A80036" points="98.0902,690.9088,95.5193,681.4014,94.9372,687.0282,89.3104,686.4462,98.0902,690.9088" style="stroke: #A80036; stroke-width: 1.0;"/><text fill="#000000" font-family="sans-serif" font-size="11" lengthAdjust="spacingAndGlyphs" textLength="29" x="83" y="647.2104">error</text><!--MD5=[ab9d42690f139a4cf524b472d76fa7f2]
link #4842 to reportError--><path d="M171.2467,578.6325 C162.0415,599.8045 138.115,654.8355 124.621,685.8717 " fill="none" id="#4842-&gt;reportError-1" style="stroke: #A80036; stroke-width: 1.0;"/><polygon fill="#A80036" points="122.5487,690.638,129.8056,683.9793,124.5424,686.0527,122.469,680.7895,122.5487,690.638" style="stroke: #A80036; stroke-width: 1.0;"/><text fill="#000000" font-family="sans-serif" font-size="11" lengthAdjust="spacingAndGlyphs" textLength="83" x="146" y="647.2104">not successful</text><!--MD5=[69e347b2ca8f11fb77681d694789be86]
link #4842 to save binary--><path d="M181.7023,575.9848 C193.6606,586.938 218.9246,611.3574 235,636 C245.2735,651.7486 253.7404,671.3438 259.3789,686.114 " fill="none" id="#4842-&gt;save binary" style="stroke: #A80036; stroke-width: 1.0;"/><polygon fill="#A80036" points="261.1811,690.9255,261.7697,681.0942,259.4271,686.2432,254.2781,683.9006,261.1811,690.9255" style="stroke: #A80036; stroke-width: 1.0;"/><text fill="#000000" font-family="sans-serif" font-size="11" lengthAdjust="spacingAndGlyphs" textLength="61" x="243" y="647.2104">successful</text><!--MD5=[b7bc761b0c79ce2a1f9dda625cb7e4f1]
link save binary to cache binary--><path d="M267.4362,725.0128 C267.9628,745.5488 268.8497,780.1379 269.4299,802.768 " fill="none" id="save binary-&gt;cache binary" style="stroke: #A80036; stroke-width: 1.0;"/><polygon fill="#A80036" points="269.5632,807.9667,273.331,798.867,269.4349,802.9683,265.3336,799.0723,269.5632,807.9667" style="stroke: #A80036; stroke-width: 1.0;"/><!--MD5=[cb8f3f54b4d63777dee56a3278c1460f]
link cache binary to end--><path d="M292.4585,842.1593 C309.6321,855.2807 332.6652,872.8791 346.6381,883.5549 " fill="none" id="cache binary-&gt;end" style="stroke: #A80036; stroke-width: 1.0;"/><polygon fill="#A80036" points="350.6671,886.6333,345.9443,877.9907,346.6941,883.5976,341.0872,884.3474,350.6671,886.6333" style="stroke: #A80036; stroke-width: 1.0;"/><!--MD5=[b2acb54b9f1ef62c021ea703d1d27dee]
@startuml node-sass install
(*) - -> script/install.js checkAndDownloadBinary
if "SKIP_SASS_BINARY_DOWNLOAD_FOR_CI" then
  - ->[true] (*)
else
  - -> [false] if "has Binary" then
    note left
      1. - -sass-binary-path
      2. process.env.SASS_BINARY_PATH
      3. process.env.npm_config_sass_binary_path
      4. pkg.nodeSassConfig.binaryPath
    endnote
    - ->[true] (*)
  else
    - ->[false] if "cachedBinary" then
      note left
        process.env.npm_config_sass_binary_cache
        process.env.npm_config_cache
      endnote
      - ->[true] copy to binaryPath 
      - -> (*)
    else
      partition Download {
        - -> download
          if "res" then
            - ->[error] reportError
          else
            - ->[not successful] reportError
          else
            - ->[successful] save binary
            - ->cache binary
            - -> (*)
          endif
      }

@enduml

PlantUML version 1.2020.12(Sat Jun 06 10:54:15 UTC 2020)
(GPL source distribution)
Java Runtime: OpenJDK Runtime Environment
JVM: OpenJDK 64-Bit Server VM
Default Encoding: UTF-8
Language: en
Country: null
--></g></svg>