<?xml version="1.0" encoding="UTF-8" standalone="no"?><svg xmlns="http://www.w3.org/2000/svg" xmlns:xlink="http://www.w3.org/1999/xlink" contentScriptType="application/ecmascript" contentStyleType="text/css" height="368px" preserveAspectRatio="none" style="width:1031px;height:368px;" version="1.1" viewBox="0 0 1031 368" width="1031px" zoomAndPan="magnify"><defs><filter height="300%" id="fqkyde2chyi2c" width="300%" x="-1" y="-1"><feGaussianBlur result="blurOut" stdDeviation="2.0"/><feColorMatrix in="blurOut" result="blurOut2" type="matrix" values="0 0 0 0 0 0 0 0 0 0 0 0 0 0 0 0 0 0 .4 0"/><feOffset dx="4.0" dy="4.0" in="blurOut2" result="blurOut3"/><feBlend in="SourceGraphic" in2="blurOut3" mode="normal"/></filter></defs><g><!--MD5=[dcda66dabdb739ec36f1175150e3c9d5]
class Factory--><rect fill="#FEFECE" filter="url(#fqkyde2chyi2c)" height="73.6094" id="Factory" style="stroke: #A80036; stroke-width: 1.5;" width="243" x="319.5" y="6"/><ellipse cx="413.75" cy="22" fill="#A9DCDF" rx="11" ry="11" style="stroke: #A80036; stroke-width: 1.0;"/><path d="M413.8594,17.3438 L412.7031,22.4219 L415.0313,22.4219 L413.8594,17.3438 Z M412.375,15.1094 L415.3594,15.1094 L418.7188,27.5 L416.2656,27.5 L415.5,24.4375 L412.2188,24.4375 L411.4688,27.5 L409.0313,27.5 L412.375,15.1094 Z "/><text fill="#000000" font-family="sans-serif" font-size="12" font-style="italic" lengthAdjust="spacingAndGlyphs" textLength="46" x="434.25" y="26.1543">Factory</text><line style="stroke: #A80036; stroke-width: 1.5;" x1="320.5" x2="561.5" y1="38" y2="38"/><line style="stroke: #A80036; stroke-width: 1.5;" x1="320.5" x2="561.5" y1="46" y2="46"/><text fill="#000000" font-family="sans-serif" font-size="11" font-style="italic" lengthAdjust="spacingAndGlyphs" textLength="231" x="325.5" y="60.2104">+createProductGroup1(): ProductGroup1</text><text fill="#000000" font-family="sans-serif" font-size="11" font-style="italic" lengthAdjust="spacingAndGlyphs" textLength="231" x="325.5" y="73.0151">+createProductGroup2(): ProductGroup2</text><!--MD5=[40032afdf3b7ba11206d848f1b965299]
class ConcreteFactory1--><rect fill="#FEFECE" filter="url(#fqkyde2chyi2c)" height="73.6094" id="ConcreteFactory1" style="stroke: #A80036; stroke-width: 1.5;" width="243" x="41.5" y="6"/><ellipse cx="103.25" cy="22" fill="#ADD1B2" rx="11" ry="11" style="stroke: #A80036; stroke-width: 1.0;"/><path d="M106.2188,27.6406 Q105.6406,27.9375 105,28.0781 Q104.3594,28.2344 103.6563,28.2344 Q101.1563,28.2344 99.8281,26.5938 Q98.5156,24.9375 98.5156,21.8125 Q98.5156,18.6875 99.8281,17.0313 Q101.1563,15.375 103.6563,15.375 Q104.3594,15.375 105,15.5313 Q105.6563,15.6875 106.2188,15.9844 L106.2188,18.7031 Q105.5938,18.125 105,17.8594 Q104.4063,17.5781 103.7813,17.5781 Q102.4375,17.5781 101.75,18.6563 Q101.0625,19.7188 101.0625,21.8125 Q101.0625,23.9063 101.75,24.9844 Q102.4375,26.0469 103.7813,26.0469 Q104.4063,26.0469 105,25.7813 Q105.5938,25.5 106.2188,24.9219 L106.2188,27.6406 Z "/><text fill="#000000" font-family="sans-serif" font-size="12" lengthAdjust="spacingAndGlyphs" textLength="111" x="123.75" y="26.1543">ConcreteFactory1</text><line style="stroke: #A80036; stroke-width: 1.5;" x1="42.5" x2="283.5" y1="38" y2="38"/><line style="stroke: #A80036; stroke-width: 1.5;" x1="42.5" x2="283.5" y1="46" y2="46"/><text fill="#000000" font-family="sans-serif" font-size="11" lengthAdjust="spacingAndGlyphs" textLength="231" x="47.5" y="60.2104">+createProductGroup1(): ProductGroup1</text><text fill="#000000" font-family="sans-serif" font-size="11" lengthAdjust="spacingAndGlyphs" textLength="231" x="47.5" y="73.0151">+createProductGroup2(): ProductGroup2</text><!--MD5=[e7b84ce2505fe77d924ba186871d0b8b]
class ConcreteFactory2--><rect fill="#FEFECE" filter="url(#fqkyde2chyi2c)" height="73.6094" id="ConcreteFactory2" style="stroke: #A80036; stroke-width: 1.5;" width="243" x="597.5" y="6"/><ellipse cx="659.25" cy="22" fill="#ADD1B2" rx="11" ry="11" style="stroke: #A80036; stroke-width: 1.0;"/><path d="M662.2188,27.6406 Q661.6406,27.9375 661,28.0781 Q660.3594,28.2344 659.6563,28.2344 Q657.1563,28.2344 655.8281,26.5938 Q654.5156,24.9375 654.5156,21.8125 Q654.5156,18.6875 655.8281,17.0313 Q657.1563,15.375 659.6563,15.375 Q660.3594,15.375 661,15.5313 Q661.6563,15.6875 662.2188,15.9844 L662.2188,18.7031 Q661.5938,18.125 661,17.8594 Q660.4063,17.5781 659.7813,17.5781 Q658.4375,17.5781 657.75,18.6563 Q657.0625,19.7188 657.0625,21.8125 Q657.0625,23.9063 657.75,24.9844 Q658.4375,26.0469 659.7813,26.0469 Q660.4063,26.0469 661,25.7813 Q661.5938,25.5 662.2188,24.9219 L662.2188,27.6406 Z "/><text fill="#000000" font-family="sans-serif" font-size="12" lengthAdjust="spacingAndGlyphs" textLength="111" x="679.75" y="26.1543">ConcreteFactory2</text><line style="stroke: #A80036; stroke-width: 1.5;" x1="598.5" x2="839.5" y1="38" y2="38"/><line style="stroke: #A80036; stroke-width: 1.5;" x1="598.5" x2="839.5" y1="46" y2="46"/><text fill="#000000" font-family="sans-serif" font-size="11" lengthAdjust="spacingAndGlyphs" textLength="231" x="603.5" y="60.2104">+createProductGroup1(): ProductGroup1</text><text fill="#000000" font-family="sans-serif" font-size="11" lengthAdjust="spacingAndGlyphs" textLength="231" x="603.5" y="73.0151">+createProductGroup2(): ProductGroup2</text><!--MD5=[a55d7cbd9bf4a93cb3129301245af939]
class ProductGroup1--><rect fill="#FEFECE" filter="url(#fqkyde2chyi2c)" height="48" id="ProductGroup1" style="stroke: #A80036; stroke-width: 1.5;" width="127" x="287.5" y="201"/><ellipse cx="302.5" cy="217" fill="#B4A7E5" rx="11" ry="11" style="stroke: #A80036; stroke-width: 1.0;"/><path d="M298.4219,212.7656 L298.4219,210.6094 L305.8125,210.6094 L305.8125,212.7656 L303.3438,212.7656 L303.3438,220.8438 L305.8125,220.8438 L305.8125,223 L298.4219,223 L298.4219,220.8438 L300.8906,220.8438 L300.8906,212.7656 L298.4219,212.7656 Z "/><text fill="#000000" font-family="sans-serif" font-size="12" font-style="italic" lengthAdjust="spacingAndGlyphs" textLength="95" x="316.5" y="221.1543">ProductGroup1</text><line style="stroke: #A80036; stroke-width: 1.5;" x1="288.5" x2="413.5" y1="233" y2="233"/><line style="stroke: #A80036; stroke-width: 1.5;" x1="288.5" x2="413.5" y1="241" y2="241"/><!--MD5=[a48199be1336da8c0d759a795c70f1e7]
class ConcreteGroup1Product1--><rect fill="#FEFECE" filter="url(#fqkyde2chyi2c)" height="48" id="ConcreteGroup1Product1" style="stroke: #A80036; stroke-width: 1.5;" width="192" x="6" y="309"/><ellipse cx="21" cy="325" fill="#ADD1B2" rx="11" ry="11" style="stroke: #A80036; stroke-width: 1.0;"/><path d="M23.9688,330.6406 Q23.3906,330.9375 22.75,331.0781 Q22.1094,331.2344 21.4063,331.2344 Q18.9063,331.2344 17.5781,329.5938 Q16.2656,327.9375 16.2656,324.8125 Q16.2656,321.6875 17.5781,320.0313 Q18.9063,318.375 21.4063,318.375 Q22.1094,318.375 22.75,318.5313 Q23.4063,318.6875 23.9688,318.9844 L23.9688,321.7031 Q23.3438,321.125 22.75,320.8594 Q22.1563,320.5781 21.5313,320.5781 Q20.1875,320.5781 19.5,321.6563 Q18.8125,322.7188 18.8125,324.8125 Q18.8125,326.9063 19.5,327.9844 Q20.1875,329.0469 21.5313,329.0469 Q22.1563,329.0469 22.75,328.7813 Q23.3438,328.5 23.9688,327.9219 L23.9688,330.6406 Z "/><text fill="#000000" font-family="sans-serif" font-size="12" lengthAdjust="spacingAndGlyphs" textLength="160" x="35" y="329.1543">ConcreteGroup1Product1</text><line style="stroke: #A80036; stroke-width: 1.5;" x1="7" x2="197" y1="341" y2="341"/><line style="stroke: #A80036; stroke-width: 1.5;" x1="7" x2="197" y1="349" y2="349"/><!--MD5=[cac771d75b3af3b1d34a7c6fc4e6d088]
class ConcreteGroup1Product2--><rect fill="#FEFECE" filter="url(#fqkyde2chyi2c)" height="48" id="ConcreteGroup1Product2" style="stroke: #A80036; stroke-width: 1.5;" width="192" x="233" y="309"/><ellipse cx="248" cy="325" fill="#ADD1B2" rx="11" ry="11" style="stroke: #A80036; stroke-width: 1.0;"/><path d="M250.9688,330.6406 Q250.3906,330.9375 249.75,331.0781 Q249.1094,331.2344 248.4063,331.2344 Q245.9063,331.2344 244.5781,329.5938 Q243.2656,327.9375 243.2656,324.8125 Q243.2656,321.6875 244.5781,320.0313 Q245.9063,318.375 248.4063,318.375 Q249.1094,318.375 249.75,318.5313 Q250.4063,318.6875 250.9688,318.9844 L250.9688,321.7031 Q250.3438,321.125 249.75,320.8594 Q249.1563,320.5781 248.5313,320.5781 Q247.1875,320.5781 246.5,321.6563 Q245.8125,322.7188 245.8125,324.8125 Q245.8125,326.9063 246.5,327.9844 Q247.1875,329.0469 248.5313,329.0469 Q249.1563,329.0469 249.75,328.7813 Q250.3438,328.5 250.9688,327.9219 L250.9688,330.6406 Z "/><text fill="#000000" font-family="sans-serif" font-size="12" lengthAdjust="spacingAndGlyphs" textLength="160" x="262" y="329.1543">ConcreteGroup1Product2</text><line style="stroke: #A80036; stroke-width: 1.5;" x1="234" x2="424" y1="341" y2="341"/><line style="stroke: #A80036; stroke-width: 1.5;" x1="234" x2="424" y1="349" y2="349"/><!--MD5=[c5b403fc28a734cabcf30a18a964594e]
class ProductGroup2--><rect fill="#FEFECE" filter="url(#fqkyde2chyi2c)" height="48" id="ProductGroup2" style="stroke: #A80036; stroke-width: 1.5;" width="127" x="449.5" y="201"/><ellipse cx="464.5" cy="217" fill="#B4A7E5" rx="11" ry="11" style="stroke: #A80036; stroke-width: 1.0;"/><path d="M460.4219,212.7656 L460.4219,210.6094 L467.8125,210.6094 L467.8125,212.7656 L465.3438,212.7656 L465.3438,220.8438 L467.8125,220.8438 L467.8125,223 L460.4219,223 L460.4219,220.8438 L462.8906,220.8438 L462.8906,212.7656 L460.4219,212.7656 Z "/><text fill="#000000" font-family="sans-serif" font-size="12" font-style="italic" lengthAdjust="spacingAndGlyphs" textLength="95" x="478.5" y="221.1543">ProductGroup2</text><line style="stroke: #A80036; stroke-width: 1.5;" x1="450.5" x2="575.5" y1="233" y2="233"/><line style="stroke: #A80036; stroke-width: 1.5;" x1="450.5" x2="575.5" y1="241" y2="241"/><!--MD5=[445f2734744f78a48ab6a2b85884bfa5]
class ConcreteGroup2Product1--><rect fill="#FEFECE" filter="url(#fqkyde2chyi2c)" height="48" id="ConcreteGroup2Product1" style="stroke: #A80036; stroke-width: 1.5;" width="192" x="601" y="309"/><ellipse cx="616" cy="325" fill="#ADD1B2" rx="11" ry="11" style="stroke: #A80036; stroke-width: 1.0;"/><path d="M618.9688,330.6406 Q618.3906,330.9375 617.75,331.0781 Q617.1094,331.2344 616.4063,331.2344 Q613.9063,331.2344 612.5781,329.5938 Q611.2656,327.9375 611.2656,324.8125 Q611.2656,321.6875 612.5781,320.0313 Q613.9063,318.375 616.4063,318.375 Q617.1094,318.375 617.75,318.5313 Q618.4063,318.6875 618.9688,318.9844 L618.9688,321.7031 Q618.3438,321.125 617.75,320.8594 Q617.1563,320.5781 616.5313,320.5781 Q615.1875,320.5781 614.5,321.6563 Q613.8125,322.7188 613.8125,324.8125 Q613.8125,326.9063 614.5,327.9844 Q615.1875,329.0469 616.5313,329.0469 Q617.1563,329.0469 617.75,328.7813 Q618.3438,328.5 618.9688,327.9219 L618.9688,330.6406 Z "/><text fill="#000000" font-family="sans-serif" font-size="12" lengthAdjust="spacingAndGlyphs" textLength="160" x="630" y="329.1543">ConcreteGroup2Product1</text><line style="stroke: #A80036; stroke-width: 1.5;" x1="602" x2="792" y1="341" y2="341"/><line style="stroke: #A80036; stroke-width: 1.5;" x1="602" x2="792" y1="349" y2="349"/><!--MD5=[c0d0b2ce7188de8d5721bf39489aebdf]
class ConcreteGroup2Product2--><rect fill="#FEFECE" filter="url(#fqkyde2chyi2c)" height="48" id="ConcreteGroup2Product2" style="stroke: #A80036; stroke-width: 1.5;" width="192" x="828" y="309"/><ellipse cx="843" cy="325" fill="#ADD1B2" rx="11" ry="11" style="stroke: #A80036; stroke-width: 1.0;"/><path d="M845.9688,330.6406 Q845.3906,330.9375 844.75,331.0781 Q844.1094,331.2344 843.4063,331.2344 Q840.9063,331.2344 839.5781,329.5938 Q838.2656,327.9375 838.2656,324.8125 Q838.2656,321.6875 839.5781,320.0313 Q840.9063,318.375 843.4063,318.375 Q844.1094,318.375 844.75,318.5313 Q845.4063,318.6875 845.9688,318.9844 L845.9688,321.7031 Q845.3438,321.125 844.75,320.8594 Q844.1563,320.5781 843.5313,320.5781 Q842.1875,320.5781 841.5,321.6563 Q840.8125,322.7188 840.8125,324.8125 Q840.8125,326.9063 841.5,327.9844 Q842.1875,329.0469 843.5313,329.0469 Q844.1563,329.0469 844.75,328.7813 Q845.3438,328.5 845.9688,327.9219 L845.9688,330.6406 Z "/><text fill="#000000" font-family="sans-serif" font-size="12" lengthAdjust="spacingAndGlyphs" textLength="160" x="857" y="329.1543">ConcreteGroup2Product2</text><line style="stroke: #A80036; stroke-width: 1.5;" x1="829" x2="1019" y1="341" y2="341"/><line style="stroke: #A80036; stroke-width: 1.5;" x1="829" x2="1019" y1="349" y2="349"/><!--MD5=[4956888e15bd9bf7fd72b5fbf432719e]
link ConcreteFactory1 to Factory--><path d="M284.625,43 C289.5213,43 294.4175,43 299.3138,43 " fill="none" id="ConcreteFactory1-&gt;Factory" style="stroke: #A80036; stroke-width: 1.0; stroke-dasharray: 7.0,7.0;"/><polygon fill="none" points="299.4429,35.9999,319.4429,43,299.4428,49.9999,299.4429,35.9999" style="stroke: #A80036; stroke-width: 1.0;"/><!--MD5=[5a67b6e97e055d43d44ef0d8ee82fd16]
reverse link Factory to ConcreteFactory2--><path d="M582.7541,43 C587.6503,43 592.5466,43 597.4429,43 " fill="none" id="Factory&lt;-ConcreteFactory2" style="stroke: #A80036; stroke-width: 1.0; stroke-dasharray: 7.0,7.0;"/><polygon fill="none" points="582.625,49.9999,562.625,43,582.625,35.9999,582.625,49.9999" style="stroke: #A80036; stroke-width: 1.0;"/><!--MD5=[daccfa622fc0f2a9e84aa9ab76b33e92]
link Factory to ProductGroup1--><!--MD5=[daccfa622fc0f2a9e84aa9ab76b33e92]
link Factory to ProductGroup1--><path d="M433.7116,80.2696 C420.1484,114.665 394.9198,165.0158 375.3165,196.3565 " fill="none" id="Factory-&gt;ProductGroup1-1" style="stroke: #A80036; stroke-width: 1.0; stroke-dasharray: 7.0,7.0;"/><polygon fill="#A80036" points="372.467,200.8384,380.6712,195.3895,375.1496,196.619,373.9201,191.0973,372.467,200.8384" style="stroke: #A80036; stroke-width: 1.0;"/><!--MD5=[8491d30d8a8a8be4d02b9674a158830e]
link Factory to ProductGroup2--><!--MD5=[8491d30d8a8a8be4d02b9674a158830e]
link Factory to ProductGroup2--><path d="M466.8856,80.2696 C483.8683,114.524 503.3668,164.6033 511.718,195.9702 " fill="none" id="Factory-&gt;ProductGroup2-1" style="stroke: #A80036; stroke-width: 1.0; stroke-dasharray: 7.0,7.0;"/><polygon fill="#A80036" points="512.9606,200.8384,514.6105,191.1287,511.724,195.9937,506.859,193.1072,512.9606,200.8384" style="stroke: #A80036; stroke-width: 1.0;"/><!--MD5=[2e3ac2f24c237a60d0eb4af281773cc2]
link ProductGroup1 to ProductGroup2--><!--MD5=[79e211cb3f430b325e902ddbfec79e82]
reverse link ProductGroup1 to ConcreteGroup1Product1--><path d="M277.0251,257.0855 C238.6813,273.7166 192.6372,293.6875 157.4007,308.9708 " fill="none" id="ProductGroup1&lt;-ConcreteGroup1Product1" style="stroke: #A80036; stroke-width: 1.0; stroke-dasharray: 7.0,7.0;"/><polygon fill="none" points="274.2956,250.6393,295.4295,249.1029,279.8665,263.4832,274.2956,250.6393" style="stroke: #A80036; stroke-width: 1.0;"/><!--MD5=[8e0c7ffbcc818aaa9302fb2cdb7c61b4]
reverse link ProductGroup1 to ConcreteGroup1Product2--><path d="M341.9777,269.2911 C339.2224,282.8171 336.2959,297.1835 333.9208,308.8436 " fill="none" id="ProductGroup1&lt;-ConcreteGroup1Product2" style="stroke: #A80036; stroke-width: 1.0; stroke-dasharray: 7.0,7.0;"/><polygon fill="none" points="335.2115,267.4376,346.0628,249.2373,348.9297,270.2321,335.2115,267.4376" style="stroke: #A80036; stroke-width: 1.0;"/><!--MD5=[483ddd3deee4a28de2c4e7742e1d6db4]
reverse link ProductGroup2 to ConcreteGroup2Product1--><path d="M571.9307,259.5898 C599.282,275.6438 631.1313,294.3379 655.8446,308.8436 " fill="none" id="ProductGroup2&lt;-ConcreteGroup2Product1" style="stroke: #A80036; stroke-width: 1.0; stroke-dasharray: 7.0,7.0;"/><polygon fill="none" points="567.9981,265.3983,554.2932,249.2373,575.0849,253.3245,567.9981,265.3983" style="stroke: #A80036; stroke-width: 1.0;"/><!--MD5=[8782be6ecad19efd415db7c6bb016385]
reverse link ProductGroup2 to ConcreteGroup2Product2--><path d="M596.1829,246.8583 C664.7412,264.8736 761.854,290.3923 832.5784,308.9768 " fill="none" id="ProductGroup2&lt;-ConcreteGroup2Product2" style="stroke: #A80036; stroke-width: 1.0; stroke-dasharray: 7.0,7.0;"/><polygon fill="none" points="594.3321,253.6097,576.7678,241.7565,597.8902,240.0693,594.3321,253.6097" style="stroke: #A80036; stroke-width: 1.0;"/><!--MD5=[9e37fc1fafbe5c07354dffeaf0f1fa78]
@startuml 抽象工厂
skinparam classAttributeIconSize 0

together {
  abstract class Factory {
    +{abstract} createProductGroup1(): ProductGroup1
    +{abstract} createProductGroup2(): ProductGroup2
  }
  class ConcreteFactory1 {
    +createProductGroup1(): ProductGroup1
    +createProductGroup2(): ProductGroup2
  }
  class ConcreteFactory2 {
    +createProductGroup1(): ProductGroup1
    +createProductGroup2(): ProductGroup2
  }
}
together {
  together {
    interface ProductGroup1 {}
    class ConcreteGroup1Product1 {}
    class ConcreteGroup1Product2 {}
  }

  together {
    interface ProductGroup2 {}
    class ConcreteGroup1Product1 {}
    class ConcreteGroup1Product2 {}
  }
}

ConcreteFactory1 .|> Factory
Factory <|. ConcreteFactory2
Factory -[hidden]- -> ProductGroup1
Factory -[hidden]- -> ProductGroup2
ProductGroup1 -[hidden]> ProductGroup2
Factory ..> ProductGroup1
Factory ..> ProductGroup2
ProductGroup1 <|.. ConcreteGroup1Product1
' ConcreteFactory1 ..> ConcreteGroup1Product1
ProductGroup1 <|.. ConcreteGroup1Product2
' ConcreteFactory1 ..> ConcreteGroup2Product1
ProductGroup2 <|.. ConcreteGroup2Product1
' ConcreteFactory2 ..> ConcreteGroup1Product2
ProductGroup2 <|.. ConcreteGroup2Product2
' ConcreteFactory2 ..> ConcreteGroup2Product2

@enduml

@startuml 抽象工厂
skinparam classAttributeIconSize 0

together {
  abstract class Factory {
    +{abstract} createProductGroup1(): ProductGroup1
    +{abstract} createProductGroup2(): ProductGroup2
  }
  class ConcreteFactory1 {
    +createProductGroup1(): ProductGroup1
    +createProductGroup2(): ProductGroup2
  }
  class ConcreteFactory2 {
    +createProductGroup1(): ProductGroup1
    +createProductGroup2(): ProductGroup2
  }
}
together {
  together {
    interface ProductGroup1 {}
    class ConcreteGroup1Product1 {}
    class ConcreteGroup1Product2 {}
  }

  together {
    interface ProductGroup2 {}
    class ConcreteGroup1Product1 {}
    class ConcreteGroup1Product2 {}
  }
}

ConcreteFactory1 .|> Factory
Factory <|. ConcreteFactory2
Factory -[hidden]- -> ProductGroup1
Factory -[hidden]- -> ProductGroup2
ProductGroup1 -[hidden]> ProductGroup2
Factory ..> ProductGroup1
Factory ..> ProductGroup2
ProductGroup1 <|.. ConcreteGroup1Product1
ProductGroup1 <|.. ConcreteGroup1Product2
ProductGroup2 <|.. ConcreteGroup2Product1
ProductGroup2 <|.. ConcreteGroup2Product2

@enduml

PlantUML version 1.2020.12(Sat Jun 06 10:54:15 UTC 2020)
(GPL source distribution)
Java Runtime: OpenJDK Runtime Environment
JVM: OpenJDK 64-Bit Server VM
Default Encoding: UTF-8
Language: en
Country: null
--></g></svg>