<?xml version="1.0" encoding="UTF-8" standalone="no"?><svg xmlns="http://www.w3.org/2000/svg" xmlns:xlink="http://www.w3.org/1999/xlink" contentScriptType="application/ecmascript" contentStyleType="text/css" height="478px" preserveAspectRatio="none" style="width:566px;height:478px;" version="1.1" viewBox="0 0 566 478" width="566px" zoomAndPan="magnify"><defs><filter height="300%" id="fo1m8kmlew8my" width="300%" x="-1" y="-1"><feGaussianBlur result="blurOut" stdDeviation="2.0"/><feColorMatrix in="blurOut" result="blurOut2" type="matrix" values="0 0 0 0 0 0 0 0 0 0 0 0 0 0 0 0 0 0 .4 0"/><feOffset dx="4.0" dy="4.0" in="blurOut2" result="blurOut3"/><feBlend in="SourceGraphic" in2="blurOut3" mode="normal"/></filter></defs><g><!--MD5=[d01e39adb8cc3240d418de1aedb45e74]
class Invoker--><rect fill="#FEFECE" filter="url(#fo1m8kmlew8my)" height="86.4141" id="Invoker" style="stroke: #A80036; stroke-width: 1.5;" width="227" x="141" y="6"/><ellipse cx="227.75" cy="22" fill="#ADD1B2" rx="11" ry="11" style="stroke: #A80036; stroke-width: 1.0;"/><path d="M230.7188,27.6406 Q230.1406,27.9375 229.5,28.0781 Q228.8594,28.2344 228.1563,28.2344 Q225.6563,28.2344 224.3281,26.5938 Q223.0156,24.9375 223.0156,21.8125 Q223.0156,18.6875 224.3281,17.0313 Q225.6563,15.375 228.1563,15.375 Q228.8594,15.375 229.5,15.5313 Q230.1563,15.6875 230.7188,15.9844 L230.7188,18.7031 Q230.0938,18.125 229.5,17.8594 Q228.9063,17.5781 228.2813,17.5781 Q226.9375,17.5781 226.25,18.6563 Q225.5625,19.7188 225.5625,21.8125 Q225.5625,23.9063 226.25,24.9844 Q226.9375,26.0469 228.2813,26.0469 Q228.9063,26.0469 229.5,25.7813 Q230.0938,25.5 230.7188,24.9219 L230.7188,27.6406 Z "/><text fill="#000000" font-family="sans-serif" font-size="12" lengthAdjust="spacingAndGlyphs" textLength="45" x="248.25" y="26.1543">Invoker</text><line style="stroke: #A80036; stroke-width: 1.5;" x1="142" x2="367" y1="38" y2="38"/><text fill="#000000" font-family="sans-serif" font-size="11" lengthAdjust="spacingAndGlyphs" textLength="126" x="147" y="52.2104">-command: Command</text><line style="stroke: #A80036; stroke-width: 1.5;" x1="142" x2="367" y1="58.8047" y2="58.8047"/><text fill="#000000" font-family="sans-serif" font-size="11" lengthAdjust="spacingAndGlyphs" textLength="215" x="147" y="73.0151">+setCommand(command: Command)</text><text fill="#000000" font-family="sans-serif" font-size="11" lengthAdjust="spacingAndGlyphs" textLength="67" x="147" y="85.8198">+call(): void</text><!--MD5=[521817ab83e81da341a3f4b5e91bae41]
class Command--><rect fill="#FEFECE" filter="url(#fo1m8kmlew8my)" height="60.8047" id="Command" style="stroke: #A80036; stroke-width: 1.5;" width="94" x="207.5" y="152"/><ellipse cx="222.5" cy="168" fill="#B4A7E5" rx="11" ry="11" style="stroke: #A80036; stroke-width: 1.0;"/><path d="M218.4219,163.7656 L218.4219,161.6094 L225.8125,161.6094 L225.8125,163.7656 L223.3438,163.7656 L223.3438,171.8438 L225.8125,171.8438 L225.8125,174 L218.4219,174 L218.4219,171.8438 L220.8906,171.8438 L220.8906,163.7656 L218.4219,163.7656 Z "/><text fill="#000000" font-family="sans-serif" font-size="12" font-style="italic" lengthAdjust="spacingAndGlyphs" textLength="62" x="236.5" y="172.1543">Command</text><line style="stroke: #A80036; stroke-width: 1.5;" x1="208.5" x2="300.5" y1="184" y2="184"/><line style="stroke: #A80036; stroke-width: 1.5;" x1="208.5" x2="300.5" y1="192" y2="192"/><text fill="#000000" font-family="sans-serif" font-size="11" lengthAdjust="spacingAndGlyphs" textLength="61" x="213.5" y="206.2104">+execute()</text><!--MD5=[dfb1c5b633b2d7c726cebddbf2e2181f]
class ConcretCommand1--><rect fill="#FEFECE" filter="url(#fo1m8kmlew8my)" height="73.6094" id="ConcretCommand1" style="stroke: #A80036; stroke-width: 1.5;" width="151" x="6" y="273"/><ellipse cx="21" cy="289" fill="#ADD1B2" rx="11" ry="11" style="stroke: #A80036; stroke-width: 1.0;"/><path d="M23.9688,294.6406 Q23.3906,294.9375 22.75,295.0781 Q22.1094,295.2344 21.4063,295.2344 Q18.9063,295.2344 17.5781,293.5938 Q16.2656,291.9375 16.2656,288.8125 Q16.2656,285.6875 17.5781,284.0313 Q18.9063,282.375 21.4063,282.375 Q22.1094,282.375 22.75,282.5313 Q23.4063,282.6875 23.9688,282.9844 L23.9688,285.7031 Q23.3438,285.125 22.75,284.8594 Q22.1563,284.5781 21.5313,284.5781 Q20.1875,284.5781 19.5,285.6563 Q18.8125,286.7188 18.8125,288.8125 Q18.8125,290.9063 19.5,291.9844 Q20.1875,293.0469 21.5313,293.0469 Q22.1563,293.0469 22.75,292.7813 Q23.3438,292.5 23.9688,291.9219 L23.9688,294.6406 Z "/><text fill="#000000" font-family="sans-serif" font-size="12" lengthAdjust="spacingAndGlyphs" textLength="119" x="35" y="293.1543">ConcretCommand1</text><line style="stroke: #A80036; stroke-width: 1.5;" x1="7" x2="156" y1="305" y2="305"/><text fill="#000000" font-family="sans-serif" font-size="11" lengthAdjust="spacingAndGlyphs" textLength="113" x="12" y="319.2104">-receiver: ReceiverA</text><line style="stroke: #A80036; stroke-width: 1.5;" x1="7" x2="156" y1="325.8047" y2="325.8047"/><text fill="#000000" font-family="sans-serif" font-size="11" lengthAdjust="spacingAndGlyphs" textLength="61" x="12" y="340.0151">+execute()</text><!--MD5=[05288d2401f6552948718be1046035c5]
class ConcretCommand2--><rect fill="#FEFECE" filter="url(#fo1m8kmlew8my)" height="73.6094" id="ConcretCommand2" style="stroke: #A80036; stroke-width: 1.5;" width="151" x="352" y="273"/><ellipse cx="367" cy="289" fill="#ADD1B2" rx="11" ry="11" style="stroke: #A80036; stroke-width: 1.0;"/><path d="M369.9688,294.6406 Q369.3906,294.9375 368.75,295.0781 Q368.1094,295.2344 367.4063,295.2344 Q364.9063,295.2344 363.5781,293.5938 Q362.2656,291.9375 362.2656,288.8125 Q362.2656,285.6875 363.5781,284.0313 Q364.9063,282.375 367.4063,282.375 Q368.1094,282.375 368.75,282.5313 Q369.4063,282.6875 369.9688,282.9844 L369.9688,285.7031 Q369.3438,285.125 368.75,284.8594 Q368.1563,284.5781 367.5313,284.5781 Q366.1875,284.5781 365.5,285.6563 Q364.8125,286.7188 364.8125,288.8125 Q364.8125,290.9063 365.5,291.9844 Q366.1875,293.0469 367.5313,293.0469 Q368.1563,293.0469 368.75,292.7813 Q369.3438,292.5 369.9688,291.9219 L369.9688,294.6406 Z "/><text fill="#000000" font-family="sans-serif" font-size="12" lengthAdjust="spacingAndGlyphs" textLength="119" x="381" y="293.1543">ConcretCommand2</text><line style="stroke: #A80036; stroke-width: 1.5;" x1="353" x2="502" y1="305" y2="305"/><text fill="#000000" font-family="sans-serif" font-size="11" lengthAdjust="spacingAndGlyphs" textLength="114" x="358" y="319.2104">-receiver: ReceiverB</text><line style="stroke: #A80036; stroke-width: 1.5;" x1="353" x2="502" y1="325.8047" y2="325.8047"/><text fill="#000000" font-family="sans-serif" font-size="11" lengthAdjust="spacingAndGlyphs" textLength="92" x="358" y="340.0151">+execute(): void</text><!--MD5=[8dc9b14cc37d5d5c90a6369e59999e92]
class ReceiverA--><rect fill="#FEFECE" filter="url(#fo1m8kmlew8my)" height="60.8047" id="ReceiverA" style="stroke: #A80036; stroke-width: 1.5;" width="94" x="34.5" y="407"/><ellipse cx="49.95" cy="423" fill="#ADD1B2" rx="11" ry="11" style="stroke: #A80036; stroke-width: 1.0;"/><path d="M52.9188,428.6406 Q52.3406,428.9375 51.7,429.0781 Q51.0594,429.2344 50.3563,429.2344 Q47.8563,429.2344 46.5281,427.5938 Q45.2156,425.9375 45.2156,422.8125 Q45.2156,419.6875 46.5281,418.0313 Q47.8563,416.375 50.3563,416.375 Q51.0594,416.375 51.7,416.5313 Q52.3563,416.6875 52.9188,416.9844 L52.9188,419.7031 Q52.2938,419.125 51.7,418.8594 Q51.1063,418.5781 50.4813,418.5781 Q49.1375,418.5781 48.45,419.6563 Q47.7625,420.7188 47.7625,422.8125 Q47.7625,424.9063 48.45,425.9844 Q49.1375,427.0469 50.4813,427.0469 Q51.1063,427.0469 51.7,426.7813 Q52.2938,426.5 52.9188,425.9219 L52.9188,428.6406 Z "/><text fill="#000000" font-family="sans-serif" font-size="12" lengthAdjust="spacingAndGlyphs" textLength="61" x="64.05" y="427.1543">ReceiverA</text><line style="stroke: #A80036; stroke-width: 1.5;" x1="35.5" x2="127.5" y1="439" y2="439"/><line style="stroke: #A80036; stroke-width: 1.5;" x1="35.5" x2="127.5" y1="447" y2="447"/><text fill="#000000" font-family="sans-serif" font-size="11" lengthAdjust="spacingAndGlyphs" textLength="82" x="40.5" y="461.2104">+action(): void</text><!--MD5=[4ddef25e7d14fe60b586aab46b1b6337]
class ReceiverB--><rect fill="#FEFECE" filter="url(#fo1m8kmlew8my)" height="60.8047" id="ReceiverB" style="stroke: #A80036; stroke-width: 1.5;" width="94" x="380.5" y="407"/><ellipse cx="395.95" cy="423" fill="#ADD1B2" rx="11" ry="11" style="stroke: #A80036; stroke-width: 1.0;"/><path d="M398.9188,428.6406 Q398.3406,428.9375 397.7,429.0781 Q397.0594,429.2344 396.3563,429.2344 Q393.8563,429.2344 392.5281,427.5938 Q391.2156,425.9375 391.2156,422.8125 Q391.2156,419.6875 392.5281,418.0313 Q393.8563,416.375 396.3563,416.375 Q397.0594,416.375 397.7,416.5313 Q398.3563,416.6875 398.9188,416.9844 L398.9188,419.7031 Q398.2938,419.125 397.7,418.8594 Q397.1063,418.5781 396.4813,418.5781 Q395.1375,418.5781 394.45,419.6563 Q393.7625,420.7188 393.7625,422.8125 Q393.7625,424.9063 394.45,425.9844 Q395.1375,427.0469 396.4813,427.0469 Q397.1063,427.0469 397.7,426.7813 Q398.2938,426.5 398.9188,425.9219 L398.9188,428.6406 Z "/><text fill="#000000" font-family="sans-serif" font-size="12" lengthAdjust="spacingAndGlyphs" textLength="61" x="410.05" y="427.1543">ReceiverB</text><line style="stroke: #A80036; stroke-width: 1.5;" x1="381.5" x2="473.5" y1="439" y2="439"/><line style="stroke: #A80036; stroke-width: 1.5;" x1="381.5" x2="473.5" y1="447" y2="447"/><text fill="#000000" font-family="sans-serif" font-size="11" lengthAdjust="spacingAndGlyphs" textLength="82" x="386.5" y="461.2104">+action(): void</text><path d="M403,36.5 L403,45 L368.25,49 L403,53 L403,61.6328 A0,0 0 0 0 403,61.6328 L554,61.6328 A0,0 0 0 0 554,61.6328 L554,46.5 L544,36.5 L403,36.5 A0,0 0 0 0 403,36.5 " fill="#FBFB77" filter="url(#fo1m8kmlew8my)" style="stroke: #A80036; stroke-width: 1.0;"/><path d="M544,36.5 L544,46.5 L554,46.5 L544,36.5 " fill="#FBFB77" style="stroke: #A80036; stroke-width: 1.0;"/><text fill="#000000" font-family="sans-serif" font-size="13" lengthAdjust="spacingAndGlyphs" textLength="130" x="409" y="53.5669">command.execute()</text><path d="M192,297.5 L192,306 L157.1875,310 L192,314 L192,322.6328 A0,0 0 0 0 192,322.6328 L317,322.6328 A0,0 0 0 0 317,322.6328 L317,307.5 L307,297.5 L192,297.5 A0,0 0 0 0 192,297.5 " fill="#FBFB77" filter="url(#fo1m8kmlew8my)" style="stroke: #A80036; stroke-width: 1.0;"/><path d="M307,297.5 L307,307.5 L317,307.5 L307,297.5 " fill="#FBFB77" style="stroke: #A80036; stroke-width: 1.0;"/><text fill="#000000" font-family="sans-serif" font-size="13" lengthAdjust="spacingAndGlyphs" textLength="104" x="198" y="314.5669">receiver.action()</text><!--MD5=[93efae2497ce14bf29dcf371abbcc068]
reverse link Command to ConcretCommand1--><path d="M196.8535,224.9851 C175.8164,240.4893 152.2079,257.8887 131.8547,272.8888 " fill="none" id="Command&lt;-ConcretCommand1" style="stroke: #A80036; stroke-width: 1.0; stroke-dasharray: 7.0,7.0;"/><polygon fill="none" points="192.8093,219.27,213.0622,213.0394,201.1152,230.54,192.8093,219.27" style="stroke: #A80036; stroke-width: 1.0;"/><!--MD5=[d95b8ef0b37727692404804a45a247a5]
reverse link Command to ConcretCommand2--><path d="M312.1465,224.9851 C333.1836,240.4893 356.7921,257.8887 377.1453,272.8888 " fill="none" id="Command&lt;-ConcretCommand2" style="stroke: #A80036; stroke-width: 1.0; stroke-dasharray: 7.0,7.0;"/><polygon fill="none" points="307.8848,230.54,295.9378,213.0394,316.1907,219.27,307.8848,230.54" style="stroke: #A80036; stroke-width: 1.0;"/><!--MD5=[850bba5183eed445a2d5c636b3c3d656]
reverse link Invoker to Command--><path d="M254.5,105.3842 C254.5,121.2288 254.5,137.8721 254.5,151.6248 " fill="none" id="Invoker&lt;-Command" style="stroke: #A80036; stroke-width: 1.0;"/><polygon fill="#FFFFFF" points="254.5,92.3436,250.5,98.3436,254.5,104.3436,258.5,98.3436,254.5,92.3436" style="stroke: #A80036; stroke-width: 1.0;"/><!--MD5=[589a3d9a46082bad16ef2436b8b8eb87]
reverse link ConcretCommand1 to ReceiverA--><path d="M81.5,352.6479 C81.5,370.4126 81.5,390.6413 81.5,406.8909 " fill="none" id="ConcretCommand1&lt;-ReceiverA" style="stroke: #A80036; stroke-width: 1.0;"/><polygon fill="#A80036" points="81.5,347.221,77.5,356.221,81.5,352.221,85.5,356.221,81.5,347.221" style="stroke: #A80036; stroke-width: 1.0;"/><!--MD5=[83e564afa3e270ebc44ff414cd3e7592]
reverse link ConcretCommand2 to ReceiverB--><path d="M427.5,352.6479 C427.5,370.4126 427.5,390.6413 427.5,406.8909 " fill="none" id="ConcretCommand2&lt;-ReceiverB" style="stroke: #A80036; stroke-width: 1.0;"/><polygon fill="#A80036" points="427.5,347.221,423.5,356.221,427.5,352.221,431.5,356.221,427.5,347.221" style="stroke: #A80036; stroke-width: 1.0;"/><!--MD5=[3e297cb343e83c7ea9af65127bc2efe0]
@startuml 命令模式
skinparam classAttributeIconSize 0

class Invoker {
  - command: Command
  + setCommand(command: Command)
  + call(): void
}

interface Command {
  + execute()
}
class ConcretCommand1 implements Command {
  - receiver: ReceiverA
  + execute()
}
class ConcretCommand2 implements Command {
  - receiver: ReceiverB
  + execute(): void
}
class ReceiverA {
  + action(): void
}
class ReceiverB {
  + action(): void
}

note as N1
command.execute()
end note
note as N2
receiver.action()
end note

Invoker .> N1
Invoker o- - Command
ConcretCommand1 -> N2
ConcretCommand1 <- - ReceiverA
ConcretCommand2 <- - ReceiverB

@enduml

PlantUML version 1.2020.12(Sat Jun 06 10:54:15 UTC 2020)
(GPL source distribution)
Java Runtime: OpenJDK Runtime Environment
JVM: OpenJDK 64-Bit Server VM
Default Encoding: UTF-8
Language: en
Country: null
--></g></svg>