<?xml version="1.0" encoding="UTF-8" standalone="no"?><svg xmlns="http://www.w3.org/2000/svg" xmlns:xlink="http://www.w3.org/1999/xlink" contentScriptType="application/ecmascript" contentStyleType="text/css" height="198px" preserveAspectRatio="none" style="width:191px;height:198px;" version="1.1" viewBox="0 0 191 198" width="191px" zoomAndPan="magnify"><defs><filter height="300%" id="f1qcqrb9gvg5m0" width="300%" x="-1" y="-1"><feGaussianBlur result="blurOut" stdDeviation="2.0"/><feColorMatrix in="blurOut" result="blurOut2" type="matrix" values="0 0 0 0 0 0 0 0 0 0 0 0 0 0 0 0 0 0 .4 0"/><feOffset dx="4.0" dy="4.0" in="blurOut2" result="blurOut3"/><feBlend in="SourceGraphic" in2="blurOut3" mode="normal"/></filter></defs><g><!--MD5=[f62eaa6c4d43571d0e4c76098fe1b59f]
class Cloneable--><rect fill="#FEFECE" filter="url(#f1qcqrb9gvg5m0)" height="60.8047" id="Cloneable" style="stroke: #A80036; stroke-width: 1.5;" width="123" x="31.5" y="6"/><ellipse cx="59.55" cy="22" fill="#B4A7E5" rx="11" ry="11" style="stroke: #A80036; stroke-width: 1.0;"/><path d="M55.4719,17.7656 L55.4719,15.6094 L62.8625,15.6094 L62.8625,17.7656 L60.3938,17.7656 L60.3938,25.8438 L62.8625,25.8438 L62.8625,28 L55.4719,28 L55.4719,25.8438 L57.9406,25.8438 L57.9406,17.7656 L55.4719,17.7656 Z "/><text fill="#000000" font-family="sans-serif" font-size="12" font-style="italic" lengthAdjust="spacingAndGlyphs" textLength="62" x="76.45" y="26.1543">Cloneable</text><line style="stroke: #A80036; stroke-width: 1.5;" x1="32.5" x2="153.5" y1="38" y2="38"/><line style="stroke: #A80036; stroke-width: 1.5;" x1="32.5" x2="153.5" y1="46" y2="46"/><text fill="#000000" font-family="sans-serif" font-size="11" lengthAdjust="spacingAndGlyphs" textLength="111" x="37.5" y="60.2104">+clone(): Cloneable</text><!--MD5=[81ab3c28c46421b16d473fc029656226]
class ConcreteCloneable--><rect fill="#FEFECE" filter="url(#f1qcqrb9gvg5m0)" height="60.8047" id="ConcreteCloneable" style="stroke: #A80036; stroke-width: 1.5;" width="174" x="6" y="127"/><ellipse cx="31.35" cy="143" fill="#ADD1B2" rx="11" ry="11" style="stroke: #A80036; stroke-width: 1.0;"/><path d="M34.3188,148.6406 Q33.7406,148.9375 33.1,149.0781 Q32.4594,149.2344 31.7563,149.2344 Q29.2563,149.2344 27.9281,147.5938 Q26.6156,145.9375 26.6156,142.8125 Q26.6156,139.6875 27.9281,138.0313 Q29.2563,136.375 31.7563,136.375 Q32.4594,136.375 33.1,136.5313 Q33.7563,136.6875 34.3188,136.9844 L34.3188,139.7031 Q33.6938,139.125 33.1,138.8594 Q32.5063,138.5781 31.8813,138.5781 Q30.5375,138.5781 29.85,139.6563 Q29.1625,140.7188 29.1625,142.8125 Q29.1625,144.9063 29.85,145.9844 Q30.5375,147.0469 31.8813,147.0469 Q32.5063,147.0469 33.1,146.7813 Q33.6938,146.5 34.3188,145.9219 L34.3188,148.6406 Z "/><text fill="#000000" font-family="sans-serif" font-size="12" lengthAdjust="spacingAndGlyphs" textLength="119" x="47.65" y="147.1543">ConcreteCloneable</text><line style="stroke: #A80036; stroke-width: 1.5;" x1="7" x2="179" y1="159" y2="159"/><line style="stroke: #A80036; stroke-width: 1.5;" x1="7" x2="179" y1="167" y2="167"/><text fill="#000000" font-family="sans-serif" font-size="11" lengthAdjust="spacingAndGlyphs" textLength="162" x="12" y="181.2104">+clone(): ConcreteCloneable</text><!--MD5=[612cf192b6bbfbecc4192880b03f1e60]
reverse link Cloneable to ConcreteCloneable--><path d="M93,87.2927 C93,100.7857 93,114.9401 93,126.9764 " fill="none" id="Cloneable&lt;-ConcreteCloneable" style="stroke: #A80036; stroke-width: 1.0; stroke-dasharray: 7.0,7.0;"/><polygon fill="none" points="86.0001,87.0334,93,67.0334,100.0001,87.0334,86.0001,87.0334" style="stroke: #A80036; stroke-width: 1.0;"/><!--MD5=[bb25d1ee125010c28660e7de4294965a]
@startuml 原型模式
skinparam classAttributeIconSize 0

interface Cloneable {
  +clone(): Cloneable
}
class ConcreteCloneable implements Cloneable {
  +clone(): ConcreteCloneable
}
@enduml

PlantUML version 1.2020.12(Sat Jun 06 10:54:15 UTC 2020)
(GPL source distribution)
Java Runtime: OpenJDK Runtime Environment
JVM: OpenJDK 64-Bit Server VM
Default Encoding: UTF-8
Language: en
Country: null
--></g></svg>