<?xml version="1.0" encoding="UTF-8" standalone="no"?><svg xmlns="http://www.w3.org/2000/svg" xmlns:xlink="http://www.w3.org/1999/xlink" contentScriptType="application/ecmascript" contentStyleType="text/css" height="658px" preserveAspectRatio="none" style="width:1020px;height:658px;" version="1.1" viewBox="0 0 1020 658" width="1020px" zoomAndPan="magnify"><defs><filter height="300%" id="f1nmt9e6azkhyy" width="300%" x="-1" y="-1"><feGaussianBlur result="blurOut" stdDeviation="2.0"/><feColorMatrix in="blurOut" result="blurOut2" type="matrix" values="0 0 0 0 0 0 0 0 0 0 0 0 0 0 0 0 0 0 .4 0"/><feOffset dx="4.0" dy="4.0" in="blurOut2" result="blurOut3"/><feBlend in="SourceGraphic" in2="blurOut3" mode="normal"/></filter></defs><g><rect fill="#FEFECE" filter="url(#f1nmt9e6azkhyy)" height="36.2969" rx="12.5" ry="12.5" style="stroke: #A80036; stroke-width: 1.5;" width="121" x="10" y="315.5586"/><text fill="#000000" font-family="sans-serif" font-size="14" lengthAdjust="spacingAndGlyphs" textLength="101" x="20" y="338.5537">Graphics Layer</text><rect fill="#FEFECE" filter="url(#f1nmt9e6azkhyy)" height="36.2969" rx="12.5" ry="12.5" style="stroke: #A80036; stroke-width: 1.5;" width="48" x="181" y="20"/><text fill="#000000" font-family="sans-serif" font-size="14" lengthAdjust="spacingAndGlyphs" textLength="28" x="191" y="42.9951">概念</text><path d="M131,333.707 L141,333.707 C156,333.707 156,38.1484 171,38.1484 L181,38.1484 " fill="none" style="stroke: #A80036; stroke-width: 1.0;"/><rect fill="#FEFECE" filter="url(#f1nmt9e6azkhyy)" height="36.2969" rx="12.5" ry="12.5" style="stroke: #A80036; stroke-width: 1.5;" width="48" x="181" y="76.2969"/><text fill="#000000" font-family="sans-serif" font-size="14" lengthAdjust="spacingAndGlyphs" textLength="28" x="191" y="99.292">用途</text><rect fill="#FEFECE" filter="url(#f1nmt9e6azkhyy)" height="36.2969" rx="12.5" ry="12.5" style="stroke: #A80036; stroke-width: 1.5;" width="247" x="279" y="48.1484"/><text fill="#000000" font-family="sans-serif" font-size="14" lengthAdjust="spacingAndGlyphs" textLength="227" x="289" y="71.1436">产生Graphics Layer来应用动画加速</text><path d="M229,94.4453 L239,94.4453 C254,94.4453 254,66.2969 269,66.2969 L279,66.2969 " fill="none" style="stroke: #A80036; stroke-width: 1.0;"/><rect fill="#FEFECE" filter="url(#f1nmt9e6azkhyy)" height="36.2969" rx="12.5" ry="12.5" style="stroke: #A80036; stroke-width: 1.5;" width="233" x="279" y="104.4453"/><text fill="#000000" font-family="sans-serif" font-size="14" lengthAdjust="spacingAndGlyphs" textLength="213" x="289" y="127.4404">避免产生多余的Graphics Layer层</text><path d="M229,94.4453 L239,94.4453 C254,94.4453 254,122.5938 269,122.5938 L279,122.5938 " fill="none" style="stroke: #A80036; stroke-width: 1.0;"/><path d="M131,333.707 L141,333.707 C156,333.707 156,94.4453 171,94.4453 L181,94.4453 " fill="none" style="stroke: #A80036; stroke-width: 1.0;"/><rect fill="#FEFECE" filter="url(#f1nmt9e6azkhyy)" height="36.2969" rx="12.5" ry="12.5" style="stroke: #A80036; stroke-width: 1.5;" width="76" x="181" y="385.9297"/><text fill="#000000" font-family="sans-serif" font-size="14" lengthAdjust="spacingAndGlyphs" textLength="56" x="191" y="408.9248">产生方法</text><rect fill="#FEFECE" filter="url(#f1nmt9e6azkhyy)" height="36.2969" rx="12.5" ry="12.5" style="stroke: #A80036; stroke-width: 1.5;" width="414" x="307" y="160.7422"/><text fill="#000000" font-family="sans-serif" font-size="14" lengthAdjust="spacingAndGlyphs" textLength="394" x="317" y="183.7373">硬件加速的 iframe 元素（比如 iframe 嵌入的页面中有合成层）</text><path d="M257,404.0781 L267,404.0781 C282,404.0781 282,178.8906 297,178.8906 L307,178.8906 " fill="none" style="stroke: #A80036; stroke-width: 1.0;"/><rect fill="#FEFECE" filter="url(#f1nmt9e6azkhyy)" height="36.2969" rx="12.5" ry="12.5" style="stroke: #A80036; stroke-width: 1.5;" width="228" x="307" y="217.0391"/><text fill="#000000" font-family="sans-serif" font-size="14" lengthAdjust="spacingAndGlyphs" textLength="208" x="317" y="240.0342">硬件加速的插件，比如 flash 等等</text><path d="M257,404.0781 L267,404.0781 C282,404.0781 282,235.1875 297,235.1875 L307,235.1875 " fill="none" style="stroke: #A80036; stroke-width: 1.0;"/><rect fill="#FEFECE" filter="url(#f1nmt9e6azkhyy)" height="36.2969" rx="12.5" ry="12.5" style="stroke: #A80036; stroke-width: 1.5;" width="174" x="307" y="273.3359"/><text fill="#000000" font-family="sans-serif" font-size="14" lengthAdjust="spacingAndGlyphs" textLength="154" x="317" y="296.3311">使用加速视频解码的元素</text><path d="M257,404.0781 L267,404.0781 C282,404.0781 282,291.4844 297,291.4844 L307,291.4844 " fill="none" style="stroke: #A80036; stroke-width: 1.0;"/><rect fill="#FEFECE" filter="url(#f1nmt9e6azkhyy)" height="36.2969" rx="12.5" ry="12.5" style="stroke: #A80036; stroke-width: 1.5;" width="256" x="307" y="329.6328"/><text fill="#000000" font-family="sans-serif" font-size="14" lengthAdjust="spacingAndGlyphs" textLength="236" x="317" y="352.6279">3D 或者 硬件加速的 2D Canvas 元素</text><path d="M257,404.0781 L267,404.0781 C282,404.0781 282,347.7813 297,347.7813 L307,347.7813 " fill="none" style="stroke: #A80036; stroke-width: 1.0;"/><rect fill="#FEFECE" filter="url(#f1nmt9e6azkhyy)" height="36.2969" rx="12.5" ry="12.5" style="stroke: #A80036; stroke-width: 1.5;" width="367" x="307" y="385.9297"/><text fill="#000000" font-family="sans-serif" font-size="14" lengthAdjust="spacingAndGlyphs" textLength="347" x="317" y="408.9248">3D 或透视变换(perspective、transform) 的 CSS 属性</text><path d="M257,404.0781 L267,404.0781 C282,404.0781 282,404.0781 297,404.0781 L307,404.0781 " fill="none" style="stroke: #A80036; stroke-width: 1.0;"/><rect fill="#FEFECE" filter="url(#f1nmt9e6azkhyy)" height="36.2969" rx="12.5" ry="12.5" style="stroke: #A80036; stroke-width: 1.5;" width="379" x="307" y="442.2266"/><text fill="#000000" font-family="sans-serif" font-size="14" lengthAdjust="spacingAndGlyphs" textLength="359" x="317" y="465.2217">对自己的 opacity 做 CSS 动画或使用一个动画变换的元素</text><path d="M257,404.0781 L267,404.0781 C282,404.0781 282,460.375 297,460.375 L307,460.375 " fill="none" style="stroke: #A80036; stroke-width: 1.0;"/><rect fill="#FEFECE" filter="url(#f1nmt9e6azkhyy)" height="36.2969" rx="12.5" ry="12.5" style="stroke: #A80036; stroke-width: 1.5;" width="196" x="307" y="498.5234"/><text fill="#000000" font-family="sans-serif" font-size="14" lengthAdjust="spacingAndGlyphs" textLength="176" x="317" y="521.5186">拥有加速 CSS 过滤器的元素</text><path d="M257,404.0781 L267,404.0781 C282,404.0781 282,516.6719 297,516.6719 L307,516.6719 " fill="none" style="stroke: #A80036; stroke-width: 1.0;"/><rect fill="#FEFECE" filter="url(#f1nmt9e6azkhyy)" height="36.2969" rx="12.5" ry="12.5" style="stroke: #A80036; stroke-width: 1.5;" width="702" x="307" y="554.8203"/><text fill="#000000" font-family="sans-serif" font-size="14" lengthAdjust="spacingAndGlyphs" textLength="682" x="317" y="577.8154">（注意）元素有一个包含复合层的后代节点(换句话说，就是一个元素拥有一个子元素，该子元素在自己的层里)</text><path d="M257,404.0781 L267,404.0781 C282,404.0781 282,572.9688 297,572.9688 L307,572.9688 " fill="none" style="stroke: #A80036; stroke-width: 1.0;"/><rect fill="#FEFECE" filter="url(#f1nmt9e6azkhyy)" height="36.2969" rx="12.5" ry="12.5" style="stroke: #A80036; stroke-width: 1.5;" width="414" x="307" y="611.1172"/><text fill="#000000" font-family="sans-serif" font-size="14" lengthAdjust="spacingAndGlyphs" textLength="394" x="317" y="634.1123">（注意）元素有一个 z-index 较低且包含一个复合层的兄弟元素</text><path d="M257,404.0781 L267,404.0781 C282,404.0781 282,629.2656 297,629.2656 L307,629.2656 " fill="none" style="stroke: #A80036; stroke-width: 1.0;"/><path d="M131,333.707 L141,333.707 C156,333.707 156,404.0781 171,404.0781 L181,404.0781 " fill="none" style="stroke: #A80036; stroke-width: 1.0;"/><!--MD5=[4bd490e17859d61284789df34d16e0b8]
@startmindmap Graphics Layer
* Graphics Layer
++ 概念

++ 用途
+++ 产生Graphics Layer来应用动画加速
+++ 避免产生多余的Graphics Layer层

++ 产生方法
+++ 硬件加速的 iframe 元素（比如 iframe 嵌入的页面中有合成层）
+++ 硬件加速的插件，比如 flash 等等
+++ 使用加速视频解码的元素
+++ 3D 或者 硬件加速的 2D Canvas 元素
+++ 3D 或透视变换(perspective、transform) 的 CSS 属性
+++ 对自己的 opacity 做 CSS 动画或使用一个动画变换的元素
+++ 拥有加速 CSS 过滤器的元素
+++ （注意）元素有一个包含复合层的后代节点(换句话说，就是一个元素拥有一个子元素，该子元素在自己的层里)
+++ （注意）元素有一个 z-index 较低且包含一个复合层的兄弟元素

@endmindmap

PlantUML version 1.2020.12(Sat Jun 06 10:54:15 UTC 2020)
(GPL source distribution)
Java Runtime: OpenJDK Runtime Environment
JVM: OpenJDK 64-Bit Server VM
Default Encoding: UTF-8
Language: en
Country: null
--></g></svg>