<?xml version="1.0" encoding="UTF-8" standalone="no"?><svg xmlns="http://www.w3.org/2000/svg" xmlns:xlink="http://www.w3.org/1999/xlink" contentScriptType="application/ecmascript" contentStyleType="text/css" height="501px" preserveAspectRatio="none" style="width:623px;height:501px;" version="1.1" viewBox="0 0 623 501" width="623px" zoomAndPan="magnify"><defs><filter height="300%" id="fo22yvttbqjid" width="300%" x="-1" y="-1"><feGaussianBlur result="blurOut" stdDeviation="2.0"/><feColorMatrix in="blurOut" result="blurOut2" type="matrix" values="0 0 0 0 0 0 0 0 0 0 0 0 0 0 0 0 0 0 .4 0"/><feOffset dx="4.0" dy="4.0" in="blurOut2" result="blurOut3"/><feBlend in="SourceGraphic" in2="blurOut3" mode="normal"/></filter></defs><g><!--MD5=[4e13963c9dc916a21a8436ef39422b32]
class Component--><rect fill="#FEFECE" filter="url(#fo22yvttbqjid)" height="60.8047" id="Component" style="stroke: #A80036; stroke-width: 1.5;" width="104" x="147.5" y="6"/><ellipse cx="162.5" cy="22" fill="#B4A7E5" rx="11" ry="11" style="stroke: #A80036; stroke-width: 1.0;"/><path d="M158.4219,17.7656 L158.4219,15.6094 L165.8125,15.6094 L165.8125,17.7656 L163.3438,17.7656 L163.3438,25.8438 L165.8125,25.8438 L165.8125,28 L158.4219,28 L158.4219,25.8438 L160.8906,25.8438 L160.8906,17.7656 L158.4219,17.7656 Z "/><text fill="#000000" font-family="sans-serif" font-size="12" font-style="italic" lengthAdjust="spacingAndGlyphs" textLength="72" x="176.5" y="26.1543">Component</text><line style="stroke: #A80036; stroke-width: 1.5;" x1="148.5" x2="250.5" y1="38" y2="38"/><line style="stroke: #A80036; stroke-width: 1.5;" x1="148.5" x2="250.5" y1="46" y2="46"/><text fill="#000000" font-family="sans-serif" font-size="11" lengthAdjust="spacingAndGlyphs" textLength="71" x="153.5" y="60.2104">+operation()</text><!--MD5=[b5bc18f2ff550a3ef28474c0b2646ebb]
class ConcreteComponent--><rect fill="#FEFECE" filter="url(#fo22yvttbqjid)" height="60.8047" id="ConcreteComponent" style="stroke: #A80036; stroke-width: 1.5;" width="161" x="6" y="139.5"/><ellipse cx="21" cy="155.5" fill="#ADD1B2" rx="11" ry="11" style="stroke: #A80036; stroke-width: 1.0;"/><path d="M23.9688,161.1406 Q23.3906,161.4375 22.75,161.5781 Q22.1094,161.7344 21.4063,161.7344 Q18.9063,161.7344 17.5781,160.0938 Q16.2656,158.4375 16.2656,155.3125 Q16.2656,152.1875 17.5781,150.5313 Q18.9063,148.875 21.4063,148.875 Q22.1094,148.875 22.75,149.0313 Q23.4063,149.1875 23.9688,149.4844 L23.9688,152.2031 Q23.3438,151.625 22.75,151.3594 Q22.1563,151.0781 21.5313,151.0781 Q20.1875,151.0781 19.5,152.1563 Q18.8125,153.2188 18.8125,155.3125 Q18.8125,157.4063 19.5,158.4844 Q20.1875,159.5469 21.5313,159.5469 Q22.1563,159.5469 22.75,159.2813 Q23.3438,159 23.9688,158.4219 L23.9688,161.1406 Z "/><text fill="#000000" font-family="sans-serif" font-size="12" lengthAdjust="spacingAndGlyphs" textLength="129" x="35" y="159.6543">ConcreteComponent</text><line style="stroke: #A80036; stroke-width: 1.5;" x1="7" x2="166" y1="171.5" y2="171.5"/><line style="stroke: #A80036; stroke-width: 1.5;" x1="7" x2="166" y1="179.5" y2="179.5"/><text fill="#000000" font-family="sans-serif" font-size="11" lengthAdjust="spacingAndGlyphs" textLength="71" x="12" y="193.7104">+operation()</text><!--MD5=[321dae1e4c20a532a67879525d68ecc8]
class Decorator--><rect fill="#FEFECE" filter="url(#fo22yvttbqjid)" height="86.4141" id="Decorator" style="stroke: #A80036; stroke-width: 1.5;" width="223" x="202" y="127"/><ellipse cx="277.75" cy="143" fill="#A9DCDF" rx="11" ry="11" style="stroke: #A80036; stroke-width: 1.0;"/><path d="M277.8594,138.3438 L276.7031,143.4219 L279.0313,143.4219 L277.8594,138.3438 Z M276.375,136.1094 L279.3594,136.1094 L282.7188,148.5 L280.2656,148.5 L279.5,145.4375 L276.2188,145.4375 L275.4688,148.5 L273.0313,148.5 L276.375,136.1094 Z "/><text fill="#000000" font-family="sans-serif" font-size="12" font-style="italic" lengthAdjust="spacingAndGlyphs" textLength="63" x="298.25" y="147.1543">Decorator</text><line style="stroke: #A80036; stroke-width: 1.5;" x1="203" x2="424" y1="159" y2="159"/><text fill="#000000" font-family="sans-serif" font-size="11" lengthAdjust="spacingAndGlyphs" textLength="140" x="208" y="173.2104">-component: Component</text><line style="stroke: #A80036; stroke-width: 1.5;" x1="203" x2="424" y1="179.8047" y2="179.8047"/><text fill="#000000" font-family="sans-serif" font-size="11" lengthAdjust="spacingAndGlyphs" textLength="211" x="208" y="194.0151">#Decorator(Component: Component)</text><text fill="#000000" font-family="sans-serif" font-size="11" lengthAdjust="spacingAndGlyphs" textLength="71" x="208" y="206.8198">+operation()</text><!--MD5=[d6c99183ff4f7ddd9eb388477d6142d6]
class ConcreteDecorator1--><rect fill="#FEFECE" filter="url(#fo22yvttbqjid)" height="86.4141" id="ConcreteDecorator1" style="stroke: #A80036; stroke-width: 1.5;" width="281" x="15" y="273"/><ellipse cx="87.25" cy="289" fill="#ADD1B2" rx="11" ry="11" style="stroke: #A80036; stroke-width: 1.0;"/><path d="M90.2188,294.6406 Q89.6406,294.9375 89,295.0781 Q88.3594,295.2344 87.6563,295.2344 Q85.1563,295.2344 83.8281,293.5938 Q82.5156,291.9375 82.5156,288.8125 Q82.5156,285.6875 83.8281,284.0313 Q85.1563,282.375 87.6563,282.375 Q88.3594,282.375 89,282.5313 Q89.6563,282.6875 90.2188,282.9844 L90.2188,285.7031 Q89.5938,285.125 89,284.8594 Q88.4063,284.5781 87.7813,284.5781 Q86.4375,284.5781 85.75,285.6563 Q85.0625,286.7188 85.0625,288.8125 Q85.0625,290.9063 85.75,291.9844 Q86.4375,293.0469 87.7813,293.0469 Q88.4063,293.0469 89,292.7813 Q89.5938,292.5 90.2188,291.9219 L90.2188,294.6406 Z "/><text fill="#000000" font-family="sans-serif" font-size="12" lengthAdjust="spacingAndGlyphs" textLength="128" x="107.75" y="293.1543">ConcreteDecorator1</text><line style="stroke: #A80036; stroke-width: 1.5;" x1="16" x2="295" y1="305" y2="305"/><line style="stroke: #A80036; stroke-width: 1.5;" x1="16" x2="295" y1="313" y2="313"/><text fill="#000000" font-family="sans-serif" font-size="11" lengthAdjust="spacingAndGlyphs" textLength="269" x="21" y="327.2104">#ConcreteDecorator1(Component: Component)</text><text fill="#000000" font-family="sans-serif" font-size="11" lengthAdjust="spacingAndGlyphs" textLength="76" x="21" y="340.0151">addedFunc1()</text><text fill="#000000" font-family="sans-serif" font-size="11" lengthAdjust="spacingAndGlyphs" textLength="71" x="21" y="352.8198">+operation()</text><!--MD5=[3a042a627ba16315dc7a60f26b9bc976]
class ConcreteDecorator2--><rect fill="#FEFECE" filter="url(#fo22yvttbqjid)" height="86.4141" id="ConcreteDecorator2" style="stroke: #A80036; stroke-width: 1.5;" width="281" x="331" y="273"/><ellipse cx="403.25" cy="289" fill="#ADD1B2" rx="11" ry="11" style="stroke: #A80036; stroke-width: 1.0;"/><path d="M406.2188,294.6406 Q405.6406,294.9375 405,295.0781 Q404.3594,295.2344 403.6563,295.2344 Q401.1563,295.2344 399.8281,293.5938 Q398.5156,291.9375 398.5156,288.8125 Q398.5156,285.6875 399.8281,284.0313 Q401.1563,282.375 403.6563,282.375 Q404.3594,282.375 405,282.5313 Q405.6563,282.6875 406.2188,282.9844 L406.2188,285.7031 Q405.5938,285.125 405,284.8594 Q404.4063,284.5781 403.7813,284.5781 Q402.4375,284.5781 401.75,285.6563 Q401.0625,286.7188 401.0625,288.8125 Q401.0625,290.9063 401.75,291.9844 Q402.4375,293.0469 403.7813,293.0469 Q404.4063,293.0469 405,292.7813 Q405.5938,292.5 406.2188,291.9219 L406.2188,294.6406 Z "/><text fill="#000000" font-family="sans-serif" font-size="12" lengthAdjust="spacingAndGlyphs" textLength="128" x="423.75" y="293.1543">ConcreteDecorator2</text><line style="stroke: #A80036; stroke-width: 1.5;" x1="332" x2="611" y1="305" y2="305"/><line style="stroke: #A80036; stroke-width: 1.5;" x1="332" x2="611" y1="313" y2="313"/><text fill="#000000" font-family="sans-serif" font-size="11" lengthAdjust="spacingAndGlyphs" textLength="269" x="337" y="327.2104">#ConcreteDecorator2(Component: Component)</text><text fill="#000000" font-family="sans-serif" font-size="11" lengthAdjust="spacingAndGlyphs" textLength="76" x="337" y="340.0151">addedFunc2()</text><text fill="#000000" font-family="sans-serif" font-size="11" lengthAdjust="spacingAndGlyphs" textLength="71" x="337" y="352.8198">+operation()</text><path d="M243.5,419 L243.5,489.5313 L383.5,489.5313 L383.5,429 L373.5,419 L243.5,419 " fill="#FBFB77" filter="url(#fo22yvttbqjid)" style="stroke: #A80036; stroke-width: 1.0;"/><path d="M373.5,419 L373.5,429 L383.5,429 L373.5,419 " fill="#FBFB77" style="stroke: #A80036; stroke-width: 1.0;"/><text fill="#000000" font-family="sans-serif" font-size="13" lengthAdjust="spacingAndGlyphs" textLength="83" x="249.5" y="436.0669">operation() {</text><text fill="#000000" font-family="sans-serif" font-size="13" lengthAdjust="spacingAndGlyphs" textLength="111" x="257.5" y="451.1997">super.operation()</text><text fill="#000000" font-family="sans-serif" font-size="13" lengthAdjust="spacingAndGlyphs" textLength="88" x="257.5" y="466.3325">addedFuncX()</text><text fill="#000000" font-family="sans-serif" font-size="13" lengthAdjust="spacingAndGlyphs" textLength="8" x="249.5" y="481.4653">}</text><!--MD5=[4758994e2c5b8c480b5268b073beb8b0]
reverse link Component to ConcreteComponent--><path d="M160.6172,82.4368 C144.7947,101.1298 126.9239,122.2425 112.6952,139.0526 " fill="none" id="Component&lt;-ConcreteComponent" style="stroke: #A80036; stroke-width: 1.0; stroke-dasharray: 7.0,7.0;"/><polygon fill="none" points="155.3111,77.8707,173.5755,67.1276,165.997,86.9157,155.3111,77.8707" style="stroke: #A80036; stroke-width: 1.0;"/><!--MD5=[c50e16e7686754e8210f5940617c961a]
reverse link Component to Decorator--><path d="M238.8473,82.5778 C251.1107,96.9389 264.5837,112.7165 276.6683,126.8681 " fill="none" id="Component&lt;-Decorator" style="stroke: #A80036; stroke-width: 1.0; stroke-dasharray: 7.0,7.0;"/><polygon fill="none" points="233.3184,86.8825,225.6539,67.1276,243.9648,77.7912,233.3184,86.8825" style="stroke: #A80036; stroke-width: 1.0;"/><!--MD5=[7c57f57ae06f1be252b6405ac157c1f8]
reverse link Decorator to ConcreteDecorator1--><path d="M252.1268,226.7119 C235.5554,242.0247 217.8937,258.3451 202.2639,272.7878 " fill="none" id="Decorator&lt;-ConcreteDecorator1" style="stroke: #A80036; stroke-width: 1.0;"/><polygon fill="none" points="247.5097,221.4474,266.9494,213.0152,257.0111,231.7296,247.5097,221.4474" style="stroke: #A80036; stroke-width: 1.0;"/><!--MD5=[945133d4f8f5a918a76d72ea87c1a590]
reverse link Decorator to ConcreteDecorator2--><path d="M374.8732,226.7119 C391.4446,242.0247 409.1063,258.3451 424.7361,272.7878 " fill="none" id="Decorator&lt;-ConcreteDecorator2" style="stroke: #A80036; stroke-width: 1.0;"/><polygon fill="none" points="369.9889,231.7296,360.0506,213.0152,379.4903,221.4474,369.9889,231.7296" style="stroke: #A80036; stroke-width: 1.0;"/><!--MD5=[eb9ad6de8fdf511f5bbb0feb741a35e4]
reverse link ConcreteDecorator1 to N1--><path d="M208.515,362.472 C229.5232,380.8874 253.2902,401.7212 272.8913,418.9031 " fill="none" id="ConcreteDecorator1&lt;-N1" style="stroke: #A80036; stroke-width: 1.0;"/><polygon fill="#A80036" points="204.6261,359.0631,208.7574,368.0036,208.3861,362.3589,214.0307,361.9876,204.6261,359.0631" style="stroke: #A80036; stroke-width: 1.0;"/><!--MD5=[40dd88a8ecef012a14ad4167bad20541]
reverse link ConcreteDecorator2 to N1--><path d="M418.485,362.472 C397.4768,380.8874 373.7098,401.7212 354.1087,418.9031 " fill="none" id="ConcreteDecorator2&lt;-N1" style="stroke: #A80036; stroke-width: 1.0;"/><polygon fill="#A80036" points="422.3739,359.0631,412.9693,361.9876,418.6139,362.3589,418.2426,368.0036,422.3739,359.0631" style="stroke: #A80036; stroke-width: 1.0;"/><!--MD5=[11282792f80a41372830af90aff5c870]
@startuml 装饰模式
skinparam classAttributeIconSize 0

interface Component {
  + operation()
}
class ConcreteComponent implements Component {
  + operation()
}
abstract class Decorator implements Component {
  - component: Component
  # Decorator(Component: Component)
  + operation()
}
class ConcreteDecorator1 extends Decorator {
  # ConcreteDecorator1(Component: Component)
  addedFunc1()
  + operation()
}
class ConcreteDecorator2 extends Decorator {
  # ConcreteDecorator2(Component: Component)
  addedFunc2()
  + operation()
}

note as N1
operation() {
  super.operation()
  addedFuncX()
}
end note

ConcreteDecorator1 <- - N1
ConcreteDecorator2 <- - N1

@enduml

PlantUML version 1.2020.12(Sat Jun 06 10:54:15 UTC 2020)
(GPL source distribution)
Java Runtime: OpenJDK Runtime Environment
JVM: OpenJDK 64-Bit Server VM
Default Encoding: UTF-8
Language: en
Country: null
--></g></svg>