<?xml version="1.0" encoding="UTF-8" standalone="no"?><svg xmlns="http://www.w3.org/2000/svg" xmlns:xlink="http://www.w3.org/1999/xlink" contentScriptType="application/ecmascript" contentStyleType="text/css" height="332px" preserveAspectRatio="none" style="width:426px;height:332px;" version="1.1" viewBox="0 0 426 332" width="426px" zoomAndPan="magnify"><defs><filter height="300%" id="f1kltlz30tk115" width="300%" x="-1" y="-1"><feGaussianBlur result="blurOut" stdDeviation="2.0"/><feColorMatrix in="blurOut" result="blurOut2" type="matrix" values="0 0 0 0 0 0 0 0 0 0 0 0 0 0 0 0 0 0 .4 0"/><feOffset dx="4.0" dy="4.0" in="blurOut2" result="blurOut3"/><feBlend in="SourceGraphic" in2="blurOut3" mode="normal"/></filter></defs><g><!--MD5=[6754354365917abf8f1a56af1b7e344c]
class Context--><rect fill="#FEFECE" filter="url(#f1kltlz30tk115)" height="73.6094" id="Context" style="stroke: #A80036; stroke-width: 1.5;" width="115" x="115.5" y="6"/><ellipse cx="146.25" cy="22" fill="#ADD1B2" rx="11" ry="11" style="stroke: #A80036; stroke-width: 1.0;"/><path d="M149.2188,27.6406 Q148.6406,27.9375 148,28.0781 Q147.3594,28.2344 146.6563,28.2344 Q144.1563,28.2344 142.8281,26.5938 Q141.5156,24.9375 141.5156,21.8125 Q141.5156,18.6875 142.8281,17.0313 Q144.1563,15.375 146.6563,15.375 Q147.3594,15.375 148,15.5313 Q148.6563,15.6875 149.2188,15.9844 L149.2188,18.7031 Q148.5938,18.125 148,17.8594 Q147.4063,17.5781 146.7813,17.5781 Q145.4375,17.5781 144.75,18.6563 Q144.0625,19.7188 144.0625,21.8125 Q144.0625,23.9063 144.75,24.9844 Q145.4375,26.0469 146.7813,26.0469 Q147.4063,26.0469 148,25.7813 Q148.5938,25.5 149.2188,24.9219 L149.2188,27.6406 Z "/><text fill="#000000" font-family="sans-serif" font-size="12" lengthAdjust="spacingAndGlyphs" textLength="48" x="163.75" y="26.1543">Context</text><line style="stroke: #A80036; stroke-width: 1.5;" x1="116.5" x2="229.5" y1="38" y2="38"/><text fill="#000000" font-family="sans-serif" font-size="11" lengthAdjust="spacingAndGlyphs" textLength="103" x="121.5" y="52.2104">strategy: Strategy</text><line style="stroke: #A80036; stroke-width: 1.5;" x1="116.5" x2="229.5" y1="58.8047" y2="58.8047"/><text fill="#000000" font-family="sans-serif" font-size="11" lengthAdjust="spacingAndGlyphs" textLength="93" x="121.5" y="73.0151">operation(): void</text><path d="M265.5,30.5 L265.5,39 L230.7324,43 L265.5,47 L265.5,55.6328 A0,0 0 0 0 265.5,55.6328 L414.5,55.6328 A0,0 0 0 0 414.5,55.6328 L414.5,40.5 L404.5,30.5 L265.5,30.5 A0,0 0 0 0 265.5,30.5 " fill="#FBFB77" filter="url(#f1kltlz30tk115)" style="stroke: #A80036; stroke-width: 1.0;"/><path d="M404.5,30.5 L404.5,40.5 L414.5,40.5 L404.5,30.5 " fill="#FBFB77" style="stroke: #A80036; stroke-width: 1.0;"/><text fill="#000000" font-family="sans-serif" font-size="13" lengthAdjust="spacingAndGlyphs" textLength="128" x="271.5" y="47.5669">strategy.operation()</text><!--MD5=[377953f0e8c8c0131a700fca43c84158]
class Strategy--><rect fill="#FEFECE" filter="url(#f1kltlz30tk115)" height="60.8047" id="Strategy" style="stroke: #A80036; stroke-width: 1.5;" width="105" x="120.5" y="140"/><ellipse cx="144.5" cy="156" fill="#B4A7E5" rx="11" ry="11" style="stroke: #A80036; stroke-width: 1.0;"/><path d="M140.4219,151.7656 L140.4219,149.6094 L147.8125,149.6094 L147.8125,151.7656 L145.3438,151.7656 L145.3438,159.8438 L147.8125,159.8438 L147.8125,162 L140.4219,162 L140.4219,159.8438 L142.8906,159.8438 L142.8906,151.7656 L140.4219,151.7656 Z "/><text fill="#000000" font-family="sans-serif" font-size="12" font-style="italic" lengthAdjust="spacingAndGlyphs" textLength="53" x="160.5" y="160.1543">Strategy</text><line style="stroke: #A80036; stroke-width: 1.5;" x1="121.5" x2="224.5" y1="172" y2="172"/><line style="stroke: #A80036; stroke-width: 1.5;" x1="121.5" x2="224.5" y1="180" y2="180"/><text fill="#000000" font-family="sans-serif" font-size="11" lengthAdjust="spacingAndGlyphs" textLength="93" x="126.5" y="194.2104">operation(): void</text><!--MD5=[55b5e8dd8343bfd553a8310bb0738e44]
class ConcreteStrategy1--><rect fill="#FEFECE" filter="url(#f1kltlz30tk115)" height="60.8047" id="ConcreteStrategy1" style="stroke: #A80036; stroke-width: 1.5;" width="150" x="6" y="261"/><ellipse cx="21" cy="277" fill="#ADD1B2" rx="11" ry="11" style="stroke: #A80036; stroke-width: 1.0;"/><path d="M23.9688,282.6406 Q23.3906,282.9375 22.75,283.0781 Q22.1094,283.2344 21.4063,283.2344 Q18.9063,283.2344 17.5781,281.5938 Q16.2656,279.9375 16.2656,276.8125 Q16.2656,273.6875 17.5781,272.0313 Q18.9063,270.375 21.4063,270.375 Q22.1094,270.375 22.75,270.5313 Q23.4063,270.6875 23.9688,270.9844 L23.9688,273.7031 Q23.3438,273.125 22.75,272.8594 Q22.1563,272.5781 21.5313,272.5781 Q20.1875,272.5781 19.5,273.6563 Q18.8125,274.7188 18.8125,276.8125 Q18.8125,278.9063 19.5,279.9844 Q20.1875,281.0469 21.5313,281.0469 Q22.1563,281.0469 22.75,280.7813 Q23.3438,280.5 23.9688,279.9219 L23.9688,282.6406 Z "/><text fill="#000000" font-family="sans-serif" font-size="12" lengthAdjust="spacingAndGlyphs" textLength="118" x="35" y="281.1543">ConcreteStrategy1</text><line style="stroke: #A80036; stroke-width: 1.5;" x1="7" x2="155" y1="293" y2="293"/><line style="stroke: #A80036; stroke-width: 1.5;" x1="7" x2="155" y1="301" y2="301"/><text fill="#000000" font-family="sans-serif" font-size="11" lengthAdjust="spacingAndGlyphs" textLength="93" x="12" y="315.2104">operation(): void</text><!--MD5=[b7cf00b8eaa1e65aaf5319fece1d13e5]
class ConcreteStrategy2--><rect fill="#FEFECE" filter="url(#f1kltlz30tk115)" height="60.8047" id="ConcreteStrategy2" style="stroke: #A80036; stroke-width: 1.5;" width="150" x="191" y="261"/><ellipse cx="206" cy="277" fill="#ADD1B2" rx="11" ry="11" style="stroke: #A80036; stroke-width: 1.0;"/><path d="M208.9688,282.6406 Q208.3906,282.9375 207.75,283.0781 Q207.1094,283.2344 206.4063,283.2344 Q203.9063,283.2344 202.5781,281.5938 Q201.2656,279.9375 201.2656,276.8125 Q201.2656,273.6875 202.5781,272.0313 Q203.9063,270.375 206.4063,270.375 Q207.1094,270.375 207.75,270.5313 Q208.4063,270.6875 208.9688,270.9844 L208.9688,273.7031 Q208.3438,273.125 207.75,272.8594 Q207.1563,272.5781 206.5313,272.5781 Q205.1875,272.5781 204.5,273.6563 Q203.8125,274.7188 203.8125,276.8125 Q203.8125,278.9063 204.5,279.9844 Q205.1875,281.0469 206.5313,281.0469 Q207.1563,281.0469 207.75,280.7813 Q208.3438,280.5 208.9688,279.9219 L208.9688,282.6406 Z "/><text fill="#000000" font-family="sans-serif" font-size="12" lengthAdjust="spacingAndGlyphs" textLength="118" x="220" y="281.1543">ConcreteStrategy2</text><line style="stroke: #A80036; stroke-width: 1.5;" x1="192" x2="340" y1="293" y2="293"/><line style="stroke: #A80036; stroke-width: 1.5;" x1="192" x2="340" y1="301" y2="301"/><text fill="#000000" font-family="sans-serif" font-size="11" lengthAdjust="spacingAndGlyphs" textLength="93" x="197" y="315.2104">operation(): void</text><!--MD5=[edf7274a677f2882cbfec7bcd075095e]
reverse link Strategy to ConcreteStrategy1--><path d="M137.6584,216.9819 C126.4463,231.7283 114.3401,247.6505 104.2081,260.9764 " fill="none" id="Strategy&lt;-ConcreteStrategy1" style="stroke: #A80036; stroke-width: 1.0; stroke-dasharray: 7.0,7.0;"/><polygon fill="none" points="132.1072,212.7174,149.7845,201.0334,143.2517,221.1909,132.1072,212.7174" style="stroke: #A80036; stroke-width: 1.0;"/><!--MD5=[de7023c18663a7f3f34950a95db3680f]
reverse link Strategy to ConcreteStrategy2--><path d="M208.7258,216.9819 C220.0598,231.7283 232.2975,247.6505 242.5397,260.9764 " fill="none" id="Strategy&lt;-ConcreteStrategy2" style="stroke: #A80036; stroke-width: 1.0; stroke-dasharray: 7.0,7.0;"/><polygon fill="none" points="203.1057,221.1566,196.4678,201.0334,214.2058,212.625,203.1057,221.1566" style="stroke: #A80036; stroke-width: 1.0;"/><!--MD5=[15e64ee5c0aab48b7a8d48303689f63f]
reverse link Context to Strategy--><path d="M173,93.5967 C173,109.2562 173,126.0227 173,139.8909 " fill="none" id="Context&lt;-Strategy" style="stroke: #A80036; stroke-width: 1.0;"/><polygon fill="#A80036" points="173,80.221,169,86.221,173,92.221,177,86.221,173,80.221" style="stroke: #A80036; stroke-width: 1.0;"/><!--MD5=[9650f9dd19f8fb9f9817ad9e9b98f3f6]
@startuml 策略模式
skinparam classAttributeIconSize 0

class Context {
  strategy: Strategy
  operation(): void
}
note as N1
strategy.operation()
end note
interface Strategy {
  operation(): void
}
class ConcreteStrategy1 implements Strategy {
  operation(): void
}
class ConcreteStrategy2 implements Strategy {
  operation(): void
}

Context .> N1
Context *- - Strategy
@enduml

PlantUML version 1.2020.12(Sat Jun 06 10:54:15 UTC 2020)
(GPL source distribution)
Java Runtime: OpenJDK Runtime Environment
JVM: OpenJDK 64-Bit Server VM
Default Encoding: UTF-8
Language: en
Country: null
--></g></svg>