<?xml version="1.0" encoding="UTF-8" standalone="no"?><svg xmlns="http://www.w3.org/2000/svg" xmlns:xlink="http://www.w3.org/1999/xlink" contentScriptType="application/ecmascript" contentStyleType="text/css" height="2248px" preserveAspectRatio="none" style="width:785px;height:2248px;" version="1.1" viewBox="0 0 785 2248" width="785px" zoomAndPan="magnify"><defs><filter height="300%" id="fjm5c520fwyqd" width="300%" x="-1" y="-1"><feGaussianBlur result="blurOut" stdDeviation="2.0"/><feColorMatrix in="blurOut" result="blurOut2" type="matrix" values="0 0 0 0 0 0 0 0 0 0 0 0 0 0 0 0 0 0 .4 0"/><feOffset dx="4.0" dy="4.0" in="blurOut2" result="blurOut3"/><feBlend in="SourceGraphic" in2="blurOut3" mode="normal"/></filter></defs><g><rect fill="#FEFECE" filter="url(#fjm5c520fwyqd)" height="36.2969" rx="12.5" ry="12.5" style="stroke: #A80036; stroke-width: 1.5;" width="48" x="10" y="1110.4023"/><text fill="#000000" font-family="sans-serif" font-size="14" lengthAdjust="spacingAndGlyphs" textLength="28" x="20" y="1133.3975">CSS</text><rect fill="#FEFECE" filter="url(#fjm5c520fwyqd)" height="36.2969" rx="12.5" ry="12.5" style="stroke: #A80036; stroke-width: 1.5;" width="48" x="108" y="188.8906"/><text fill="#000000" font-family="sans-serif" font-size="14" lengthAdjust="spacingAndGlyphs" textLength="28" x="118" y="211.8857">基础</text><rect fill="#FEFECE" filter="url(#fjm5c520fwyqd)" height="36.2969" rx="12.5" ry="12.5" style="stroke: #A80036; stroke-width: 1.5;" width="62" x="206" y="20"/><text fill="#000000" font-family="sans-serif" font-size="14" lengthAdjust="spacingAndGlyphs" textLength="42" x="216" y="42.9951">选择器</text><path d="M156,207.0391 L166,207.0391 C181,207.0391 181,38.1484 196,38.1484 L206,38.1484 " fill="none" style="stroke: #A80036; stroke-width: 1.0;"/><rect fill="#FEFECE" filter="url(#fjm5c520fwyqd)" height="36.2969" rx="12.5" ry="12.5" style="stroke: #A80036; stroke-width: 1.5;" width="48" x="206" y="76.2969"/><text fill="#000000" font-family="sans-serif" font-size="14" lengthAdjust="spacingAndGlyphs" textLength="28" x="216" y="99.292">属性</text><path d="M156,207.0391 L166,207.0391 C181,207.0391 181,94.4453 196,94.4453 L206,94.4453 " fill="none" style="stroke: #A80036; stroke-width: 1.0;"/><rect fill="#FEFECE" filter="url(#fjm5c520fwyqd)" height="36.2969" rx="12.5" ry="12.5" style="stroke: #A80036; stroke-width: 1.5;" width="34" x="206" y="160.7422"/><text fill="#000000" font-family="sans-serif" font-size="14" lengthAdjust="spacingAndGlyphs" textLength="14" x="216" y="183.7373">值</text><rect fill="#FEFECE" filter="url(#fjm5c520fwyqd)" height="36.2969" rx="12.5" ry="12.5" style="stroke: #A80036; stroke-width: 1.5;" width="48" x="290" y="132.5938"/><text fill="#000000" font-family="sans-serif" font-size="14" lengthAdjust="spacingAndGlyphs" textLength="28" x="300" y="155.5889">颜色</text><path d="M240,178.8906 L250,178.8906 C265,178.8906 265,150.7422 280,150.7422 L290,150.7422 " fill="none" style="stroke: #A80036; stroke-width: 1.0;"/><rect fill="#FEFECE" filter="url(#fjm5c520fwyqd)" height="36.2969" rx="12.5" ry="12.5" style="stroke: #A80036; stroke-width: 1.5;" width="240" x="290" y="188.8906"/><text fill="#000000" font-family="sans-serif" font-size="14" lengthAdjust="spacingAndGlyphs" textLength="220" x="300" y="211.8857">特殊属性值-inherit、initial、unset</text><path d="M240,178.8906 L250,178.8906 C265,178.8906 265,207.0391 280,207.0391 L290,207.0391 " fill="none" style="stroke: #A80036; stroke-width: 1.0;"/><path d="M156,207.0391 L166,207.0391 C181,207.0391 181,178.8906 196,178.8906 L206,178.8906 " fill="none" style="stroke: #A80036; stroke-width: 1.0;"/><rect fill="#FEFECE" filter="url(#fjm5c520fwyqd)" height="36.2969" rx="12.5" ry="12.5" style="stroke: #A80036; stroke-width: 1.5;" width="48" x="206" y="245.1875"/><text fill="#000000" font-family="sans-serif" font-size="14" lengthAdjust="spacingAndGlyphs" textLength="28" x="216" y="268.1826">单位</text><rect fill="#FEFECE" filter="url(#fjm5c520fwyqd)" height="36.2969" rx="12.5" ry="12.5" style="stroke: #A80036; stroke-width: 1.5;" width="48" x="304" y="245.1875"/><text fill="#000000" font-family="sans-serif" font-size="14" lengthAdjust="spacingAndGlyphs" textLength="28" x="314" y="268.1826">长度</text><rect fill="#FEFECE" filter="url(#fjm5c520fwyqd)" height="36.2969" rx="12.5" ry="12.5" style="stroke: #A80036; stroke-width: 1.5;" width="76" x="402" y="245.1875"/><text fill="#000000" font-family="sans-serif" font-size="14" lengthAdjust="spacingAndGlyphs" textLength="56" x="412" y="268.1826">相对单位</text><path d="M352,263.3359 L362,263.3359 C377,263.3359 377,263.3359 392,263.3359 L402,263.3359 " fill="none" style="stroke: #A80036; stroke-width: 1.0;"/><path d="M254,263.3359 L264,263.3359 C279,263.3359 279,263.3359 294,263.3359 L304,263.3359 " fill="none" style="stroke: #A80036; stroke-width: 1.0;"/><path d="M156,207.0391 L166,207.0391 C181,207.0391 181,263.3359 196,263.3359 L206,263.3359 " fill="none" style="stroke: #A80036; stroke-width: 1.0;"/><rect fill="#FEFECE" filter="url(#fjm5c520fwyqd)" height="36.2969" rx="12.5" ry="12.5" style="stroke: #A80036; stroke-width: 1.5;" width="118" x="206" y="301.4844"/><text fill="#000000" font-family="sans-serif" font-size="14" lengthAdjust="spacingAndGlyphs" textLength="98" x="216" y="324.4795">引入位置与权重</text><path d="M156,207.0391 L166,207.0391 C181,207.0391 181,319.6328 196,319.6328 L206,319.6328 " fill="none" style="stroke: #A80036; stroke-width: 1.0;"/><rect fill="#FEFECE" filter="url(#fjm5c520fwyqd)" height="36.2969" rx="12.5" ry="12.5" style="stroke: #A80036; stroke-width: 1.5;" width="90" x="206" y="357.7813"/><text fill="#000000" font-family="sans-serif" font-size="14" lengthAdjust="spacingAndGlyphs" textLength="70" x="216" y="380.7764">重绘、重排</text><rect fill="#FEFECE" filter="url(#fjm5c520fwyqd)" height="36.2969" rx="12.5" ry="12.5" style="stroke: #A80036; stroke-width: 1.5;" width="99" x="346" y="357.7813"/><text fill="#000000" font-family="sans-serif" font-size="14" lengthAdjust="spacingAndGlyphs" textLength="79" x="356" y="380.7764">contain属性</text><path d="M296,375.9297 L306,375.9297 C321,375.9297 321,375.9297 336,375.9297 L346,375.9297 " fill="none" style="stroke: #A80036; stroke-width: 1.0;"/><path d="M156,207.0391 L166,207.0391 C181,207.0391 181,375.9297 196,375.9297 L206,375.9297 " fill="none" style="stroke: #A80036; stroke-width: 1.0;"/><path d="M58,1128.5508 L68,1128.5508 C83,1128.5508 83,207.0391 98,207.0391 L108,207.0391 " fill="none" style="stroke: #A80036; stroke-width: 1.0;"/><rect fill="#FEFECE" filter="url(#fjm5c520fwyqd)" height="36.2969" rx="12.5" ry="12.5" style="stroke: #A80036; stroke-width: 1.5;" width="48" x="108" y="578.043"/><text fill="#000000" font-family="sans-serif" font-size="14" lengthAdjust="spacingAndGlyphs" textLength="28" x="118" y="601.0381">布局</text><rect fill="#FEFECE" filter="url(#fjm5c520fwyqd)" height="36.2969" rx="12.5" ry="12.5" style="stroke: #A80036; stroke-width: 1.5;" width="75" x="206" y="414.0781"/><text fill="#000000" font-family="sans-serif" font-size="14" lengthAdjust="spacingAndGlyphs" textLength="55" x="216" y="437.0732">position</text><path d="M156,596.1914 L166,596.1914 C181,596.1914 181,432.2266 196,432.2266 L206,432.2266 " fill="none" style="stroke: #A80036; stroke-width: 1.0;"/><rect fill="#FEFECE" filter="url(#fjm5c520fwyqd)" height="36.2969" rx="12.5" ry="12.5" style="stroke: #A80036; stroke-width: 1.5;" width="76" x="206" y="470.375"/><text fill="#000000" font-family="sans-serif" font-size="14" lengthAdjust="spacingAndGlyphs" textLength="56" x="216" y="493.3701">特定布局</text><text fill="#000000" font-family="sans-serif" font-size="14" lengthAdjust="spacingAndGlyphs" textLength="56" x="335" y="484.2217">垂直居中</text><path d="M282,488.5234 L292,488.5234 C307,488.5234 307,479.375 322,479.375 L332,479.375 " fill="none" style="stroke: #A80036; stroke-width: 1.0;"/><text fill="#000000" font-family="sans-serif" font-size="14" lengthAdjust="spacingAndGlyphs" textLength="145" x="335" y="502.5186">多列-多列等高、瀑布流</text><path d="M282,488.5234 L292,488.5234 C307,488.5234 307,497.6719 322,497.6719 L332,497.6719 " fill="none" style="stroke: #A80036; stroke-width: 1.0;"/><path d="M156,596.1914 L166,596.1914 C181,596.1914 181,488.5234 196,488.5234 L206,488.5234 " fill="none" style="stroke: #A80036; stroke-width: 1.0;"/><rect fill="#FEFECE" filter="url(#fjm5c520fwyqd)" height="36.2969" rx="12.5" ry="12.5" style="stroke: #A80036; stroke-width: 1.5;" width="76" x="206" y="573.1172"/><text fill="#000000" font-family="sans-serif" font-size="14" lengthAdjust="spacingAndGlyphs" textLength="56" x="216" y="596.1123">布局模式</text><rect fill="#FEFECE" filter="url(#fjm5c520fwyqd)" height="36.2969" rx="12.5" ry="12.5" style="stroke: #A80036; stroke-width: 1.5;" width="54" x="332" y="516.8203"/><text fill="#000000" font-family="sans-serif" font-size="14" lengthAdjust="spacingAndGlyphs" textLength="34" x="342" y="539.8154">table</text><path d="M282,591.2656 L292,591.2656 C307,591.2656 307,534.9688 322,534.9688 L332,534.9688 " fill="none" style="stroke: #A80036; stroke-width: 1.0;"/><rect fill="#FEFECE" filter="url(#fjm5c520fwyqd)" height="36.2969" rx="12.5" ry="12.5" style="stroke: #A80036; stroke-width: 1.5;" width="43" x="332" y="573.1172"/><text fill="#000000" font-family="sans-serif" font-size="14" lengthAdjust="spacingAndGlyphs" textLength="23" x="342" y="596.1123">flex</text><path d="M282,591.2656 L292,591.2656 C307,591.2656 307,591.2656 322,591.2656 L332,591.2656 " fill="none" style="stroke: #A80036; stroke-width: 1.0;"/><rect fill="#FEFECE" filter="url(#fjm5c520fwyqd)" height="36.2969" rx="12.5" ry="12.5" style="stroke: #A80036; stroke-width: 1.5;" width="46" x="332" y="629.4141"/><text fill="#000000" font-family="sans-serif" font-size="14" lengthAdjust="spacingAndGlyphs" textLength="26" x="342" y="652.4092">grid</text><path d="M282,591.2656 L292,591.2656 C307,591.2656 307,647.5625 322,647.5625 L332,647.5625 " fill="none" style="stroke: #A80036; stroke-width: 1.0;"/><path d="M156,596.1914 L166,596.1914 C181,596.1914 181,591.2656 196,591.2656 L206,591.2656 " fill="none" style="stroke: #A80036; stroke-width: 1.0;"/><rect fill="#FEFECE" filter="url(#fjm5c520fwyqd)" height="36.2969" rx="12.5" ry="12.5" style="stroke: #A80036; stroke-width: 1.5;" width="90" x="206" y="713.8594"/><text fill="#000000" font-family="sans-serif" font-size="14" lengthAdjust="spacingAndGlyphs" textLength="70" x="216" y="736.8545">非平面布局</text><rect fill="#FEFECE" filter="url(#fjm5c520fwyqd)" height="36.2969" rx="12.5" ry="12.5" style="stroke: #A80036; stroke-width: 1.5;" width="42" x="346" y="685.7109"/><text fill="#000000" font-family="sans-serif" font-size="14" lengthAdjust="spacingAndGlyphs" textLength="22" x="356" y="708.7061">z轴</text><path d="M296,732.0078 L306,732.0078 C321,732.0078 321,703.8594 336,703.8594 L346,703.8594 " fill="none" style="stroke: #A80036; stroke-width: 1.0;"/><rect fill="#FEFECE" filter="url(#fjm5c520fwyqd)" height="36.2969" rx="12.5" ry="12.5" style="stroke: #A80036; stroke-width: 1.5;" width="40" x="346" y="742.0078"/><text fill="#000000" font-family="sans-serif" font-size="14" lengthAdjust="spacingAndGlyphs" textLength="20" x="356" y="765.0029">3D</text><rect fill="#FEFECE" filter="url(#fjm5c520fwyqd)" height="36.2969" rx="12.5" ry="12.5" style="stroke: #A80036; stroke-width: 1.5;" width="48" x="436" y="742.0078"/><text fill="#000000" font-family="sans-serif" font-size="14" lengthAdjust="spacingAndGlyphs" textLength="28" x="446" y="765.0029">景深</text><path d="M386,760.1563 L396,760.1563 C411,760.1563 411,760.1563 426,760.1563 L436,760.1563 " fill="none" style="stroke: #A80036; stroke-width: 1.0;"/><path d="M296,732.0078 L306,732.0078 C321,732.0078 321,760.1563 336,760.1563 L346,760.1563 " fill="none" style="stroke: #A80036; stroke-width: 1.0;"/><path d="M156,596.1914 L166,596.1914 C181,596.1914 181,732.0078 196,732.0078 L206,732.0078 " fill="none" style="stroke: #A80036; stroke-width: 1.0;"/><path d="M58,1128.5508 L68,1128.5508 C83,1128.5508 83,596.1914 98,596.1914 L108,596.1914 " fill="none" style="stroke: #A80036; stroke-width: 1.0;"/><rect fill="#FEFECE" filter="url(#fjm5c520fwyqd)" height="36.2969" rx="12.5" ry="12.5" style="stroke: #A80036; stroke-width: 1.5;" width="62" x="108" y="1073.1055"/><text fill="#000000" font-family="sans-serif" font-size="14" lengthAdjust="spacingAndGlyphs" textLength="42" x="118" y="1096.1006">盒模型</text><rect fill="#FEFECE" filter="url(#fjm5c520fwyqd)" height="36.2969" rx="12.5" ry="12.5" style="stroke: #A80036; stroke-width: 1.5;" width="100" x="220" y="798.3047"/><text fill="#000000" font-family="sans-serif" font-size="14" lengthAdjust="spacingAndGlyphs" textLength="80" x="230" y="821.2998">展现-display</text><path d="M170,1091.2539 L180,1091.2539 C195,1091.2539 195,816.4531 210,816.4531 L220,816.4531 " fill="none" style="stroke: #A80036; stroke-width: 1.0;"/><rect fill="#FEFECE" filter="url(#fjm5c520fwyqd)" height="36.2969" rx="12.5" ry="12.5" style="stroke: #A80036; stroke-width: 1.5;" width="48" x="220" y="854.6016"/><text fill="#000000" font-family="sans-serif" font-size="14" lengthAdjust="spacingAndGlyphs" textLength="28" x="230" y="877.5967">外部</text><text fill="#000000" font-family="sans-serif" font-size="14" lengthAdjust="spacingAndGlyphs" textLength="171" x="321" y="877.5967">margin——auto margin、</text><path d="M268,872.75 L278,872.75 C293,872.75 293,872.75 308,872.75 L318,872.75 " fill="none" style="stroke: #A80036; stroke-width: 1.0;"/><path d="M170,1091.2539 L180,1091.2539 C195,1091.2539 195,872.75 210,872.75 L220,872.75 " fill="none" style="stroke: #A80036; stroke-width: 1.0;"/><rect fill="#FEFECE" filter="url(#fjm5c520fwyqd)" height="36.2969" rx="12.5" ry="12.5" style="stroke: #A80036; stroke-width: 1.5;" width="48" x="220" y="976.3438"/><text fill="#000000" font-family="sans-serif" font-size="14" lengthAdjust="spacingAndGlyphs" textLength="28" x="230" y="999.3389">边框</text><rect fill="#FEFECE" filter="url(#fjm5c520fwyqd)" height="36.2969" rx="12.5" ry="12.5" style="stroke: #A80036; stroke-width: 1.5;" width="66" x="318" y="891.8984"/><text fill="#000000" font-family="sans-serif" font-size="14" lengthAdjust="spacingAndGlyphs" textLength="46" x="328" y="914.8936">border</text><path d="M268,994.4922 L278,994.4922 C293,994.4922 293,910.0469 308,910.0469 L318,910.0469 " fill="none" style="stroke: #A80036; stroke-width: 1.0;"/><rect fill="#FEFECE" filter="url(#fjm5c520fwyqd)" height="36.2969" rx="12.5" ry="12.5" style="stroke: #A80036; stroke-width: 1.5;" width="67" x="318" y="948.1953"/><text fill="#000000" font-family="sans-serif" font-size="14" lengthAdjust="spacingAndGlyphs" textLength="47" x="328" y="971.1904">outline</text><path d="M268,994.4922 L278,994.4922 C293,994.4922 293,966.3438 308,966.3438 L318,966.3438 " fill="none" style="stroke: #A80036; stroke-width: 1.0;"/><rect fill="#FEFECE" filter="url(#fjm5c520fwyqd)" height="36.2969" rx="12.5" ry="12.5" style="stroke: #A80036; stroke-width: 1.5;" width="104" x="318" y="1004.4922"/><text fill="#000000" font-family="sans-serif" font-size="14" lengthAdjust="spacingAndGlyphs" textLength="84" x="328" y="1027.4873">box-shadow</text><path d="M268,994.4922 L278,994.4922 C293,994.4922 293,1022.6406 308,1022.6406 L318,1022.6406 " fill="none" style="stroke: #A80036; stroke-width: 1.0;"/><rect fill="#FEFECE" filter="url(#fjm5c520fwyqd)" height="36.2969" rx="12.5" ry="12.5" style="stroke: #A80036; stroke-width: 1.5;" width="176" x="318" y="1060.7891"/><text fill="#000000" font-family="sans-serif" font-size="14" lengthAdjust="spacingAndGlyphs" textLength="156" x="328" y="1083.7842">分隔——区域、item竖线</text><path d="M268,994.4922 L278,994.4922 C293,994.4922 293,1078.9375 308,1078.9375 L318,1078.9375 " fill="none" style="stroke: #A80036; stroke-width: 1.0;"/><path d="M170,1091.2539 L180,1091.2539 C195,1091.2539 195,994.4922 210,994.4922 L220,994.4922 " fill="none" style="stroke: #A80036; stroke-width: 1.0;"/><rect fill="#FEFECE" filter="url(#fjm5c520fwyqd)" height="36.2969" rx="12.5" ry="12.5" style="stroke: #A80036; stroke-width: 1.5;" width="48" x="220" y="1204.3477"/><text fill="#000000" font-family="sans-serif" font-size="14" lengthAdjust="spacingAndGlyphs" textLength="28" x="230" y="1227.3428">内部</text><rect fill="#FEFECE" filter="url(#fjm5c520fwyqd)" height="36.2969" rx="12.5" ry="12.5" style="stroke: #A80036; stroke-width: 1.5;" width="48" x="318" y="1134.6797"/><text fill="#000000" font-family="sans-serif" font-size="14" lengthAdjust="spacingAndGlyphs" textLength="28" x="328" y="1157.6748">填充</text><text fill="#000000" font-family="sans-serif" font-size="14" lengthAdjust="spacingAndGlyphs" textLength="168" x="419" y="1121.0811">颜色——任意颜色赋色技术</text><path d="M366,1152.8281 L376,1152.8281 C391,1152.8281 391,1116.2344 406,1116.2344 L416,1116.2344 " fill="none" style="stroke: #A80036; stroke-width: 1.0;"/><text fill="#000000" font-family="sans-serif" font-size="14" lengthAdjust="spacingAndGlyphs" textLength="354" x="419" y="1139.3779">混合——mix-blend-mode、background-blend-mode</text><path d="M366,1152.8281 L376,1152.8281 C391,1152.8281 391,1134.5313 406,1134.5313 L416,1134.5313 " fill="none" style="stroke: #A80036; stroke-width: 1.0;"/><text fill="#000000" font-family="sans-serif" font-size="14" lengthAdjust="spacingAndGlyphs" textLength="28" x="419" y="1157.6748">滤镜</text><path d="M366,1152.8281 L376,1152.8281 C391,1152.8281 391,1152.8281 406,1152.8281 L416,1152.8281 " fill="none" style="stroke: #A80036; stroke-width: 1.0;"/><text fill="#000000" font-family="sans-serif" font-size="14" lengthAdjust="spacingAndGlyphs" textLength="37" x="419" y="1175.9717">mask</text><path d="M366,1152.8281 L376,1152.8281 C391,1152.8281 391,1171.125 406,1171.125 L416,1171.125 " fill="none" style="stroke: #A80036; stroke-width: 1.0;"/><text fill="#000000" font-family="sans-serif" font-size="14" lengthAdjust="spacingAndGlyphs" textLength="344" x="419" y="1194.2686">渐变——直线(linear-gradient)、角向(conic-gradient)</text><path d="M366,1152.8281 L376,1152.8281 C391,1152.8281 391,1189.4219 406,1189.4219 L416,1189.4219 " fill="none" style="stroke: #A80036; stroke-width: 1.0;"/><path d="M268,1222.4961 L278,1222.4961 C293,1222.4961 293,1152.8281 308,1152.8281 L318,1152.8281 " fill="none" style="stroke: #A80036; stroke-width: 1.0;"/><rect fill="#FEFECE" filter="url(#fjm5c520fwyqd)" height="36.2969" rx="12.5" ry="12.5" style="stroke: #A80036; stroke-width: 1.5;" width="48" x="318" y="1235.3125"/><text fill="#000000" font-family="sans-serif" font-size="14" lengthAdjust="spacingAndGlyphs" textLength="28" x="328" y="1258.3076">文字</text><text fill="#000000" font-family="sans-serif" font-size="14" lengthAdjust="spacingAndGlyphs" textLength="70" x="419" y="1212.5654">font-family</text><path d="M366,1253.4609 L376,1253.4609 C391,1253.4609 391,1207.7188 406,1207.7188 L416,1207.7188 " fill="none" style="stroke: #A80036; stroke-width: 1.0;"/><text fill="#000000" font-family="sans-serif" font-size="14" lengthAdjust="spacingAndGlyphs" textLength="28" x="419" y="1230.8623">外观</text><path d="M366,1253.4609 L376,1253.4609 C391,1253.4609 391,1226.0156 406,1226.0156 L416,1226.0156 " fill="none" style="stroke: #A80036; stroke-width: 1.0;"/><text fill="#000000" font-family="sans-serif" font-size="14" lengthAdjust="spacingAndGlyphs" textLength="28" x="419" y="1249.1592">对齐</text><path d="M366,1253.4609 L376,1253.4609 C391,1253.4609 391,1244.3125 406,1244.3125 L416,1244.3125 " fill="none" style="stroke: #A80036; stroke-width: 1.0;"/><text fill="#000000" font-family="sans-serif" font-size="14" lengthAdjust="spacingAndGlyphs" textLength="28" x="419" y="1267.4561">方向</text><path d="M366,1253.4609 L376,1253.4609 C391,1253.4609 391,1262.6094 406,1262.6094 L416,1262.6094 " fill="none" style="stroke: #A80036; stroke-width: 1.0;"/><text fill="#000000" font-family="sans-serif" font-size="14" lengthAdjust="spacingAndGlyphs" textLength="28" x="419" y="1285.7529">换行</text><path d="M366,1253.4609 L376,1253.4609 C391,1253.4609 391,1280.9063 406,1280.9063 L416,1280.9063 " fill="none" style="stroke: #A80036; stroke-width: 1.0;"/><text fill="#000000" font-family="sans-serif" font-size="14" lengthAdjust="spacingAndGlyphs" textLength="28" x="419" y="1304.0498">省略</text><path d="M366,1253.4609 L376,1253.4609 C391,1253.4609 391,1299.2031 406,1299.2031 L416,1299.2031 " fill="none" style="stroke: #A80036; stroke-width: 1.0;"/><path d="M268,1222.4961 L278,1222.4961 C293,1222.4961 293,1253.4609 308,1253.4609 L318,1253.4609 " fill="none" style="stroke: #A80036; stroke-width: 1.0;"/><rect fill="#FEFECE" filter="url(#fjm5c520fwyqd)" height="36.2969" rx="12.5" ry="12.5" style="stroke: #A80036; stroke-width: 1.5;" width="48" x="318" y="1291.6094"/><text fill="#000000" font-family="sans-serif" font-size="14" lengthAdjust="spacingAndGlyphs" textLength="28" x="328" y="1314.6045">背景</text><path d="M268,1222.4961 L278,1222.4961 C293,1222.4961 293,1309.7578 308,1309.7578 L318,1309.7578 " fill="none" style="stroke: #A80036; stroke-width: 1.0;"/><path d="M170,1091.2539 L180,1091.2539 C195,1091.2539 195,1222.4961 210,1222.4961 L220,1222.4961 " fill="none" style="stroke: #A80036; stroke-width: 1.0;"/><rect fill="#FEFECE" filter="url(#fjm5c520fwyqd)" height="36.2969" rx="12.5" ry="12.5" style="stroke: #A80036; stroke-width: 1.5;" width="76" x="220" y="1347.9063"/><text fill="#000000" font-family="sans-serif" font-size="14" lengthAdjust="spacingAndGlyphs" textLength="56" x="230" y="1370.9014">特殊形状</text><text fill="#000000" font-family="sans-serif" font-size="14" lengthAdjust="spacingAndGlyphs" textLength="168" x="349" y="1352.6045">圆、三角、多边、复杂组合</text><path d="M296,1366.0547 L306,1366.0547 C321,1366.0547 321,1347.7578 336,1347.7578 L346,1347.7578 " fill="none" style="stroke: #A80036; stroke-width: 1.0;"/><text fill="#000000" font-family="sans-serif" font-size="14" lengthAdjust="spacingAndGlyphs" textLength="59" x="349" y="1370.9014">clip-path</text><path d="M296,1366.0547 L306,1366.0547 C321,1366.0547 321,1366.0547 336,1366.0547 L346,1366.0547 " fill="none" style="stroke: #A80036; stroke-width: 1.0;"/><text fill="#000000" font-family="sans-serif" font-size="14" lengthAdjust="spacingAndGlyphs" textLength="100" x="349" y="1389.1982">shape-outside</text><path d="M296,1366.0547 L306,1366.0547 C321,1366.0547 321,1384.3516 336,1384.3516 L346,1384.3516 " fill="none" style="stroke: #A80036; stroke-width: 1.0;"/><path d="M170,1091.2539 L180,1091.2539 C195,1091.2539 195,1366.0547 210,1366.0547 L220,1366.0547 " fill="none" style="stroke: #A80036; stroke-width: 1.0;"/><path d="M58,1128.5508 L68,1128.5508 C83,1128.5508 83,1091.2539 98,1091.2539 L108,1091.2539 " fill="none" style="stroke: #A80036; stroke-width: 1.0;"/><rect fill="#FEFECE" filter="url(#fjm5c520fwyqd)" height="36.2969" rx="12.5" ry="12.5" style="stroke: #A80036; stroke-width: 1.5;" width="48" x="108" y="1488.6484"/><text fill="#000000" font-family="sans-serif" font-size="14" lengthAdjust="spacingAndGlyphs" textLength="28" x="118" y="1511.6436">动画</text><rect fill="#FEFECE" filter="url(#fjm5c520fwyqd)" height="36.2969" rx="12.5" ry="12.5" style="stroke: #A80036; stroke-width: 1.5;" width="76" x="206" y="1404.2031"/><text fill="#000000" font-family="sans-serif" font-size="14" lengthAdjust="spacingAndGlyphs" textLength="56" x="216" y="1427.1982">动画内容</text><path d="M156,1506.7969 L166,1506.7969 C181,1506.7969 181,1422.3516 196,1422.3516 L206,1422.3516 " fill="none" style="stroke: #A80036; stroke-width: 1.0;"/><rect fill="#FEFECE" filter="url(#fjm5c520fwyqd)" height="36.2969" rx="12.5" ry="12.5" style="stroke: #A80036; stroke-width: 1.5;" width="76" x="206" y="1460.5"/><text fill="#000000" font-family="sans-serif" font-size="14" lengthAdjust="spacingAndGlyphs" textLength="56" x="216" y="1483.4951">动画运行</text><path d="M156,1506.7969 L166,1506.7969 C181,1506.7969 181,1478.6484 196,1478.6484 L206,1478.6484 " fill="none" style="stroke: #A80036; stroke-width: 1.0;"/><rect fill="#FEFECE" filter="url(#fjm5c520fwyqd)" height="36.2969" rx="12.5" ry="12.5" style="stroke: #A80036; stroke-width: 1.5;" width="76" x="206" y="1516.7969"/><text fill="#000000" font-family="sans-serif" font-size="14" lengthAdjust="spacingAndGlyphs" textLength="56" x="216" y="1539.792">动画辅助</text><rect fill="#FEFECE" filter="url(#fjm5c520fwyqd)" height="36.2969" rx="12.5" ry="12.5" style="stroke: #A80036; stroke-width: 1.5;" width="121" x="332" y="1516.7969"/><text fill="#000000" font-family="sans-serif" font-size="14" lengthAdjust="spacingAndGlyphs" textLength="101" x="342" y="1539.792">Graphics Layer</text><path d="M282,1534.9453 L292,1534.9453 C307,1534.9453 307,1534.9453 322,1534.9453 L332,1534.9453 " fill="none" style="stroke: #A80036; stroke-width: 1.0;"/><path d="M156,1506.7969 L166,1506.7969 C181,1506.7969 181,1534.9453 196,1534.9453 L206,1534.9453 " fill="none" style="stroke: #A80036; stroke-width: 1.0;"/><rect fill="#FEFECE" filter="url(#fjm5c520fwyqd)" height="36.2969" rx="12.5" ry="12.5" style="stroke: #A80036; stroke-width: 1.5;" width="76" x="206" y="1573.0938"/><text fill="#000000" font-family="sans-serif" font-size="14" lengthAdjust="spacingAndGlyphs" textLength="56" x="216" y="1596.0889">典型案例</text><path d="M156,1506.7969 L166,1506.7969 C181,1506.7969 181,1591.2422 196,1591.2422 L206,1591.2422 " fill="none" style="stroke: #A80036; stroke-width: 1.0;"/><path d="M58,1128.5508 L68,1128.5508 C83,1128.5508 83,1506.7969 98,1506.7969 L108,1506.7969 " fill="none" style="stroke: #A80036; stroke-width: 1.0;"/><rect fill="#FEFECE" filter="url(#fjm5c520fwyqd)" height="36.2969" rx="12.5" ry="12.5" style="stroke: #A80036; stroke-width: 1.5;" width="62" x="108" y="1629.3906"/><text fill="#000000" font-family="sans-serif" font-size="14" lengthAdjust="spacingAndGlyphs" textLength="42" x="118" y="1652.3857">伪元素</text><path d="M58,1128.5508 L68,1128.5508 C83,1128.5508 83,1647.5391 98,1647.5391 L108,1647.5391 " fill="none" style="stroke: #A80036; stroke-width: 1.0;"/><rect fill="#FEFECE" filter="url(#fjm5c520fwyqd)" height="36.2969" rx="12.5" ry="12.5" style="stroke: #A80036; stroke-width: 1.5;" width="48" x="108" y="1826.4297"/><text fill="#000000" font-family="sans-serif" font-size="14" lengthAdjust="spacingAndGlyphs" textLength="28" x="118" y="1849.4248">性能</text><rect fill="#FEFECE" filter="url(#fjm5c520fwyqd)" height="36.2969" rx="12.5" ry="12.5" style="stroke: #A80036; stroke-width: 1.5;" width="76" x="206" y="1741.9844"/><text fill="#000000" font-family="sans-serif" font-size="14" lengthAdjust="spacingAndGlyphs" textLength="56" x="216" y="1764.9795">网络加载</text><rect fill="#FEFECE" filter="url(#fjm5c520fwyqd)" height="36.2969" rx="12.5" ry="12.5" style="stroke: #A80036; stroke-width: 1.5;" width="48" x="332" y="1685.6875"/><text fill="#000000" font-family="sans-serif" font-size="14" lengthAdjust="spacingAndGlyphs" textLength="28" x="342" y="1708.6826">图片</text><path d="M282,1760.1328 L292,1760.1328 C307,1760.1328 307,1703.8359 322,1703.8359 L332,1703.8359 " fill="none" style="stroke: #A80036; stroke-width: 1.0;"/><rect fill="#FEFECE" filter="url(#fjm5c520fwyqd)" height="36.2969" rx="12.5" ry="12.5" style="stroke: #A80036; stroke-width: 1.5;" width="90" x="332" y="1741.9844"/><text fill="#000000" font-family="sans-serif" font-size="14" lengthAdjust="spacingAndGlyphs" textLength="70" x="342" y="1764.9795">自定义字体</text><path d="M282,1760.1328 L292,1760.1328 C307,1760.1328 307,1760.1328 322,1760.1328 L332,1760.1328 " fill="none" style="stroke: #A80036; stroke-width: 1.0;"/><rect fill="#FEFECE" filter="url(#fjm5c520fwyqd)" height="36.2969" rx="12.5" ry="12.5" style="stroke: #A80036; stroke-width: 1.5;" width="106" x="332" y="1798.2813"/><text fill="#000000" font-family="sans-serif" font-size="14" lengthAdjust="spacingAndGlyphs" textLength="86" x="342" y="1821.2764">@import资源</text><path d="M282,1760.1328 L292,1760.1328 C307,1760.1328 307,1816.4297 322,1816.4297 L332,1816.4297 " fill="none" style="stroke: #A80036; stroke-width: 1.0;"/><path d="M156,1844.5781 L166,1844.5781 C181,1844.5781 181,1760.1328 196,1760.1328 L206,1760.1328 " fill="none" style="stroke: #A80036; stroke-width: 1.0;"/><rect fill="#FEFECE" filter="url(#fjm5c520fwyqd)" height="36.2969" rx="12.5" ry="12.5" style="stroke: #A80036; stroke-width: 1.5;" width="90" x="206" y="1854.5781"/><text fill="#000000" font-family="sans-serif" font-size="14" lengthAdjust="spacingAndGlyphs" textLength="70" x="216" y="1877.5732">慎用通配符</text><path d="M156,1844.5781 L166,1844.5781 C181,1844.5781 181,1872.7266 196,1872.7266 L206,1872.7266 " fill="none" style="stroke: #A80036; stroke-width: 1.0;"/><rect fill="#FEFECE" filter="url(#fjm5c520fwyqd)" height="36.2969" rx="12.5" ry="12.5" style="stroke: #A80036; stroke-width: 1.5;" width="165" x="206" y="1910.875"/><text fill="#000000" font-family="sans-serif" font-size="14" lengthAdjust="spacingAndGlyphs" textLength="145" x="216" y="1933.8701">复用-尤其是资源引入型</text><path d="M156,1844.5781 L166,1844.5781 C181,1844.5781 181,1929.0234 196,1929.0234 L206,1929.0234 " fill="none" style="stroke: #A80036; stroke-width: 1.0;"/><rect fill="#FEFECE" filter="url(#fjm5c520fwyqd)" height="36.2969" rx="12.5" ry="12.5" style="stroke: #A80036; stroke-width: 1.5;" width="48" x="206" y="1967.1719"/><text fill="#000000" font-family="sans-serif" font-size="14" lengthAdjust="spacingAndGlyphs" textLength="28" x="216" y="1990.167">简写</text><path d="M156,1844.5781 L166,1844.5781 C181,1844.5781 181,1985.3203 196,1985.3203 L206,1985.3203 " fill="none" style="stroke: #A80036; stroke-width: 1.0;"/><path d="M58,1128.5508 L68,1128.5508 C83,1128.5508 83,1844.5781 98,1844.5781 L108,1844.5781 " fill="none" style="stroke: #A80036; stroke-width: 1.0;"/><rect fill="#FEFECE" filter="url(#fjm5c520fwyqd)" height="36.2969" rx="12.5" ry="12.5" style="stroke: #A80036; stroke-width: 1.5;" width="90" x="108" y="2051.6172"/><text fill="#000000" font-family="sans-serif" font-size="14" lengthAdjust="spacingAndGlyphs" textLength="70" x="118" y="2074.6123">扩展、辅助</text><rect fill="#FEFECE" filter="url(#fjm5c520fwyqd)" height="36.2969" rx="12.5" ry="12.5" style="stroke: #A80036; stroke-width: 1.5;" width="118" x="248" y="2023.4688"/><text fill="#000000" font-family="sans-serif" font-size="14" lengthAdjust="spacingAndGlyphs" textLength="98" x="258" y="2046.4639">CSS自定义属性</text><path d="M198,2069.7656 L208,2069.7656 C223,2069.7656 223,2041.6172 238,2041.6172 L248,2041.6172 " fill="none" style="stroke: #A80036; stroke-width: 1.0;"/><rect fill="#FEFECE" filter="url(#fjm5c520fwyqd)" height="36.2969" rx="12.5" ry="12.5" style="stroke: #A80036; stroke-width: 1.5;" width="76" x="248" y="2079.7656"/><text fill="#000000" font-family="sans-serif" font-size="14" lengthAdjust="spacingAndGlyphs" textLength="56" x="258" y="2102.7607">特性检测</text><path d="M198,2069.7656 L208,2069.7656 C223,2069.7656 223,2097.9141 238,2097.9141 L248,2097.9141 " fill="none" style="stroke: #A80036; stroke-width: 1.0;"/><path d="M58,1128.5508 L68,1128.5508 C83,1128.5508 83,2069.7656 98,2069.7656 L108,2069.7656 " fill="none" style="stroke: #A80036; stroke-width: 1.0;"/><rect fill="#FEFECE" filter="url(#fjm5c520fwyqd)" height="36.2969" rx="12.5" ry="12.5" style="stroke: #A80036; stroke-width: 1.5;" width="72" x="108" y="2168.4336"/><text fill="#000000" font-family="sans-serif" font-size="14" lengthAdjust="spacingAndGlyphs" textLength="52" x="118" y="2191.4287">特殊css</text><rect fill="#FEFECE" filter="url(#fjm5c520fwyqd)" height="36.2969" rx="12.5" ry="12.5" style="stroke: #A80036; stroke-width: 1.5;" width="90" x="230" y="2144.5078"/><text fill="#000000" font-family="sans-serif" font-size="14" lengthAdjust="spacingAndGlyphs" textLength="70" x="240" y="2167.5029">特殊选择器</text><text fill="#000000" font-family="sans-serif" font-size="14" lengthAdjust="spacingAndGlyphs" textLength="33" x="373" y="2140.0576">:root</text><path d="M320,2162.6563 L330,2162.6563 C345,2162.6563 345,2135.2109 360,2135.2109 L370,2135.2109 " fill="none" style="stroke: #A80036; stroke-width: 1.0;"/><text fill="#000000" font-family="sans-serif" font-size="14" lengthAdjust="spacingAndGlyphs" textLength="48" x="373" y="2158.3545">:empty</text><path d="M320,2162.6563 L330,2162.6563 C345,2162.6563 345,2153.5078 360,2153.5078 L370,2153.5078 " fill="none" style="stroke: #A80036; stroke-width: 1.0;"/><text fill="#000000" font-family="sans-serif" font-size="14" lengthAdjust="spacingAndGlyphs" textLength="46" x="373" y="2176.6514">:target</text><path d="M320,2162.6563 L330,2162.6563 C345,2162.6563 345,2171.8047 360,2171.8047 L370,2171.8047 " fill="none" style="stroke: #A80036; stroke-width: 1.0;"/><text fill="#000000" font-family="sans-serif" font-size="14" lengthAdjust="spacingAndGlyphs" textLength="93" x="373" y="2194.9482">::focus-within</text><path d="M320,2162.6563 L330,2162.6563 C345,2162.6563 345,2190.1016 360,2190.1016 L370,2190.1016 " fill="none" style="stroke: #A80036; stroke-width: 1.0;"/><path d="M180,2186.582 L190,2186.582 C205,2186.582 205,2162.6563 220,2162.6563 L230,2162.6563 " fill="none" style="stroke: #A80036; stroke-width: 1.0;"/><rect fill="#FEFECE" filter="url(#fjm5c520fwyqd)" height="36.2969" rx="12.5" ry="12.5" style="stroke: #A80036; stroke-width: 1.5;" width="76" x="230" y="2200.8047"/><text fill="#000000" font-family="sans-serif" font-size="14" lengthAdjust="spacingAndGlyphs" textLength="56" x="240" y="2223.7998">书写技巧</text><text fill="#000000" font-family="sans-serif" font-size="14" lengthAdjust="spacingAndGlyphs" textLength="56" x="359" y="2223.7998">渐进增强</text><path d="M306,2218.9531 L316,2218.9531 C331,2218.9531 331,2218.9531 346,2218.9531 L356,2218.9531 " fill="none" style="stroke: #A80036; stroke-width: 1.0;"/><path d="M180,2186.582 L190,2186.582 C205,2186.582 205,2218.9531 220,2218.9531 L230,2218.9531 " fill="none" style="stroke: #A80036; stroke-width: 1.0;"/><path d="M58,1128.5508 L68,1128.5508 C83,1128.5508 83,2186.582 98,2186.582 L108,2186.582 " fill="none" style="stroke: #A80036; stroke-width: 1.0;"/><!--MD5=[735fce06875fd0bf3621683dc6bb1c07]
@startmindmap css技能树
* CSS

** 基础
*** 选择器
*** 属性
*** 值
**** 颜色
**** 特殊属性值-inherit、initial、unset
*** 单位
**** 长度
***** 相对单位
*** 引入位置与权重
*** 重绘、重排
**** contain属性

** 布局
*** position
*** 特定布局
****_ 垂直居中
****_ 多列-多列等高、瀑布流
*** 布局模式
**** table
**** flex
**** grid
*** 非平面布局
**** z轴
**** 3D
***** 景深

** 盒模型
*** 展现-display

*** 外部
****_ margin——auto margin、
*** 边框
**** border
**** outline
**** box-shadow
**** 分隔——区域、item竖线
*** 内部
**** 填充
*****_ 颜色——任意颜色赋色技术
*****_ 混合——mix-blend-mode、background-blend-mode
*****_ 滤镜
*****_ mask
*****_ 渐变——直线(linear-gradient)、角向(conic-gradient)
**** 文字
*****_ font-family
*****_ 外观
*****_ 对齐
*****_ 方向
*****_ 换行
*****_ 省略
**** 背景
*** 特殊形状
****_ 圆、三角、多边、复杂组合
****_ clip-path
****_ shape-outside

** 动画
*** 动画内容
*** 动画运行
*** 动画辅助
**** Graphics Layer
*** 典型案例

** 伪元素

** 性能
*** 网络加载
**** 图片
**** 自定义字体
**** @import资源
*** 慎用通配符
*** 复用-尤其是资源引入型
*** 简写

** 扩展、辅助
*** CSS自定义属性
*** 特性检测

** 特殊css
*** 特殊选择器
****_ :root
****_ :empty
****_ :target
****_ ::focus-within
*** 书写技巧
****_ 渐进增强

@endmindmap

PlantUML version 1.2020.12(Sat Jun 06 10:54:15 UTC 2020)
(GPL source distribution)
Java Runtime: OpenJDK Runtime Environment
JVM: OpenJDK 64-Bit Server VM
Default Encoding: UTF-8
Language: en
Country: null
--></g></svg>