<?xml version="1.0" encoding="UTF-8" standalone="no"?><svg xmlns="http://www.w3.org/2000/svg" xmlns:xlink="http://www.w3.org/1999/xlink" contentScriptType="application/ecmascript" contentStyleType="text/css" height="211px" preserveAspectRatio="none" style="width:343px;height:211px;" version="1.1" viewBox="0 0 343 211" width="343px" zoomAndPan="magnify"><defs><filter height="300%" id="f13fwcw1z13i37" width="300%" x="-1" y="-1"><feGaussianBlur result="blurOut" stdDeviation="2.0"/><feColorMatrix in="blurOut" result="blurOut2" type="matrix" values="0 0 0 0 0 0 0 0 0 0 0 0 0 0 0 0 0 0 .4 0"/><feOffset dx="4.0" dy="4.0" in="blurOut2" result="blurOut3"/><feBlend in="SourceGraphic" in2="blurOut3" mode="normal"/></filter></defs><g><!--MD5=[023ecf6702e3ca2ce47ae747eafb20f1]
class Iterator--><rect fill="#FEFECE" filter="url(#f13fwcw1z13i37)" height="73.6094" id="Iterator" style="stroke: #A80036; stroke-width: 1.5;" width="121" x="200" y="6"/><ellipse cx="233.9" cy="22" fill="#B4A7E5" rx="11" ry="11" style="stroke: #A80036; stroke-width: 1.0;"/><path d="M229.8219,17.7656 L229.8219,15.6094 L237.2125,15.6094 L237.2125,17.7656 L234.7438,17.7656 L234.7438,25.8438 L237.2125,25.8438 L237.2125,28 L229.8219,28 L229.8219,25.8438 L232.2906,25.8438 L232.2906,17.7656 L229.8219,17.7656 Z "/><text fill="#000000" font-family="sans-serif" font-size="12" font-style="italic" lengthAdjust="spacingAndGlyphs" textLength="47" x="252.1" y="26.1543">Iterator</text><line style="stroke: #A80036; stroke-width: 1.5;" x1="201" x2="320" y1="38" y2="38"/><line style="stroke: #A80036; stroke-width: 1.5;" x1="201" x2="320" y1="46" y2="46"/><text fill="#000000" font-family="sans-serif" font-size="11" lengthAdjust="spacingAndGlyphs" textLength="109" x="206" y="60.2104">+isDone(): boolean</text><text fill="#000000" font-family="sans-serif" font-size="11" lengthAdjust="spacingAndGlyphs" textLength="41" x="206" y="73.0151">+next()</text><!--MD5=[4a3c11898c703d44c2eccf691605a75f]
class ConcreteIterator--><rect fill="#FEFECE" filter="url(#f13fwcw1z13i37)" height="48" id="ConcreteIterator" style="stroke: #A80036; stroke-width: 1.5;" width="136" x="196.5" y="146.5"/><ellipse cx="211.5" cy="162.5" fill="#ADD1B2" rx="11" ry="11" style="stroke: #A80036; stroke-width: 1.0;"/><path d="M214.4688,168.1406 Q213.8906,168.4375 213.25,168.5781 Q212.6094,168.7344 211.9063,168.7344 Q209.4063,168.7344 208.0781,167.0938 Q206.7656,165.4375 206.7656,162.3125 Q206.7656,159.1875 208.0781,157.5313 Q209.4063,155.875 211.9063,155.875 Q212.6094,155.875 213.25,156.0313 Q213.9063,156.1875 214.4688,156.4844 L214.4688,159.2031 Q213.8438,158.625 213.25,158.3594 Q212.6563,158.0781 212.0313,158.0781 Q210.6875,158.0781 210,159.1563 Q209.3125,160.2188 209.3125,162.3125 Q209.3125,164.4063 210,165.4844 Q210.6875,166.5469 212.0313,166.5469 Q212.6563,166.5469 213.25,166.2813 Q213.8438,166 214.4688,165.4219 L214.4688,168.1406 Z "/><text fill="#000000" font-family="sans-serif" font-size="12" lengthAdjust="spacingAndGlyphs" textLength="104" x="225.5" y="166.6543">ConcreteIterator</text><line style="stroke: #A80036; stroke-width: 1.5;" x1="197.5" x2="331.5" y1="178.5" y2="178.5"/><line style="stroke: #A80036; stroke-width: 1.5;" x1="197.5" x2="331.5" y1="186.5" y2="186.5"/><!--MD5=[914cdf822bf80e984e8ac3bf93b406a5]
class Aggregate--><rect fill="#FEFECE" filter="url(#f13fwcw1z13i37)" height="60.8047" id="Aggregate" style="stroke: #A80036; stroke-width: 1.5;" width="139" x="22" y="12.5"/><ellipse cx="55.45" cy="28.5" fill="#B4A7E5" rx="11" ry="11" style="stroke: #A80036; stroke-width: 1.0;"/><path d="M51.3719,24.2656 L51.3719,22.1094 L58.7625,22.1094 L58.7625,24.2656 L56.2938,24.2656 L56.2938,32.3438 L58.7625,32.3438 L58.7625,34.5 L51.3719,34.5 L51.3719,32.3438 L53.8406,32.3438 L53.8406,24.2656 L51.3719,24.2656 Z "/><text fill="#000000" font-family="sans-serif" font-size="12" font-style="italic" lengthAdjust="spacingAndGlyphs" textLength="66" x="73.55" y="32.6543">Aggregate</text><line style="stroke: #A80036; stroke-width: 1.5;" x1="23" x2="160" y1="44.5" y2="44.5"/><line style="stroke: #A80036; stroke-width: 1.5;" x1="23" x2="160" y1="52.5" y2="52.5"/><text fill="#000000" font-family="sans-serif" font-size="11" lengthAdjust="spacingAndGlyphs" textLength="127" x="28" y="66.7104">+getIterator(): Iterator</text><!--MD5=[ac192e3b58a2163e38488214a7837886]
class ConcreteAggregate--><rect fill="#FEFECE" filter="url(#f13fwcw1z13i37)" height="60.8047" id="ConcreteAggregate" style="stroke: #A80036; stroke-width: 1.5;" width="155" x="6" y="140"/><ellipse cx="21" cy="156" fill="#ADD1B2" rx="11" ry="11" style="stroke: #A80036; stroke-width: 1.0;"/><path d="M23.9688,161.6406 Q23.3906,161.9375 22.75,162.0781 Q22.1094,162.2344 21.4063,162.2344 Q18.9063,162.2344 17.5781,160.5938 Q16.2656,158.9375 16.2656,155.8125 Q16.2656,152.6875 17.5781,151.0313 Q18.9063,149.375 21.4063,149.375 Q22.1094,149.375 22.75,149.5313 Q23.4063,149.6875 23.9688,149.9844 L23.9688,152.7031 Q23.3438,152.125 22.75,151.8594 Q22.1563,151.5781 21.5313,151.5781 Q20.1875,151.5781 19.5,152.6563 Q18.8125,153.7188 18.8125,155.8125 Q18.8125,157.9063 19.5,158.9844 Q20.1875,160.0469 21.5313,160.0469 Q22.1563,160.0469 22.75,159.7813 Q23.3438,159.5 23.9688,158.9219 L23.9688,161.6406 Z "/><text fill="#000000" font-family="sans-serif" font-size="12" lengthAdjust="spacingAndGlyphs" textLength="123" x="35" y="160.1543">ConcreteAggregate</text><line style="stroke: #A80036; stroke-width: 1.5;" x1="7" x2="160" y1="172" y2="172"/><line style="stroke: #A80036; stroke-width: 1.5;" x1="7" x2="160" y1="180" y2="180"/><text fill="#000000" font-family="sans-serif" font-size="11" lengthAdjust="spacingAndGlyphs" textLength="127" x="12" y="194.2104">+getIterator(): Iterator</text><!--MD5=[08005fad78b25d943eac0df10e57518e]
reverse link Iterator to ConcreteIterator--><path d="M262.3017,100.4278 C262.8084,116.5803 263.3323,133.2795 263.7415,146.3226 " fill="none" id="Iterator&lt;-ConcreteIterator" style="stroke: #A80036; stroke-width: 1.0; stroke-dasharray: 7.0,7.0;"/><polygon fill="none" points="255.2984,100.4307,261.6677,80.221,269.2915,99.9917,255.2984,100.4307" style="stroke: #A80036; stroke-width: 1.0;"/><!--MD5=[ec16dd3faf36faf8d04f37a830811fa9]
reverse link Aggregate to ConcreteAggregate--><path d="M88.3166,93.7355 C87.3394,109.309 86.2944,125.9647 85.4283,139.7679 " fill="none" id="Aggregate&lt;-ConcreteAggregate" style="stroke: #A80036; stroke-width: 1.0; stroke-dasharray: 7.0,7.0;"/><polygon fill="none" points="81.345,93.0618,89.5838,73.5394,95.3175,93.9386,81.345,93.0618" style="stroke: #A80036; stroke-width: 1.0;"/><!--MD5=[0de2996ddd33ea713f24d1b17ea12283]
link Aggregate to Iterator--><path d="M161.1465,43 C172.365,43 183.5835,43 194.802,43 " fill="none" id="Aggregate-&gt;Iterator" style="stroke: #A80036; stroke-width: 1.0; stroke-dasharray: 7.0,7.0;"/><polygon fill="#A80036" points="199.9565,43,190.9565,39,194.9565,43,190.9565,47,199.9565,43" style="stroke: #A80036; stroke-width: 1.0;"/><!--MD5=[c4418059b01bb013bb5394f5339c07f7]
@startuml 迭代器模式
skinparam classAttributeIconSize 0

interface Iterator {
  + isDone(): boolean
  + next()
}
class ConcreteIterator implements Iterator {
}
interface Aggregate {
  + getIterator(): Iterator
}
class ConcreteAggregate implements Aggregate {
  + getIterator(): Iterator
}


Aggregate .> Iterator

@enduml

PlantUML version 1.2020.12(Sat Jun 06 10:54:15 UTC 2020)
(GPL source distribution)
Java Runtime: OpenJDK Runtime Environment
JVM: OpenJDK 64-Bit Server VM
Default Encoding: UTF-8
Language: en
Country: null
--></g></svg>