<?xml version="1.0" encoding="UTF-8" standalone="no"?><svg xmlns="http://www.w3.org/2000/svg" xmlns:xlink="http://www.w3.org/1999/xlink" contentScriptType="application/ecmascript" contentStyleType="text/css" height="321px" preserveAspectRatio="none" style="width:481px;height:321px;" version="1.1" viewBox="0 0 481 321" width="481px" zoomAndPan="magnify"><defs><filter height="300%" id="f1gp02bngukmnj" width="300%" x="-1" y="-1"><feGaussianBlur result="blurOut" stdDeviation="2.0"/><feColorMatrix in="blurOut" result="blurOut2" type="matrix" values="0 0 0 0 0 0 0 0 0 0 0 0 0 0 0 0 0 0 .4 0"/><feOffset dx="4.0" dy="4.0" in="blurOut2" result="blurOut3"/><feBlend in="SourceGraphic" in2="blurOut3" mode="normal"/></filter></defs><g><!--MD5=[3637e2e3ff64f8c7ec072f5df5e3a1dc]
class Expression--><rect fill="#FEFECE" filter="url(#f1gp02bngukmnj)" height="60.8047" id="Expression" style="stroke: #A80036; stroke-width: 1.5;" width="197" x="158" y="6"/><ellipse cx="218.25" cy="22" fill="#A9DCDF" rx="11" ry="11" style="stroke: #A80036; stroke-width: 1.0;"/><path d="M218.3594,17.3438 L217.2031,22.4219 L219.5313,22.4219 L218.3594,17.3438 Z M216.875,15.1094 L219.8594,15.1094 L223.2188,27.5 L220.7656,27.5 L220,24.4375 L216.7188,24.4375 L215.9688,27.5 L213.5313,27.5 L216.875,15.1094 Z "/><text fill="#000000" font-family="sans-serif" font-size="12" font-style="italic" lengthAdjust="spacingAndGlyphs" textLength="68" x="238.75" y="26.1543">Expression</text><line style="stroke: #A80036; stroke-width: 1.5;" x1="159" x2="354" y1="38" y2="38"/><line style="stroke: #A80036; stroke-width: 1.5;" x1="159" x2="354" y1="46" y2="46"/><text fill="#000000" font-family="sans-serif" font-size="11" lengthAdjust="spacingAndGlyphs" textLength="185" x="164" y="60.2104">+interpret(Context context): void</text><!--MD5=[91001e867fbb6cb8370d09de5a038c23]
class TerminalExpression1--><rect fill="#FEFECE" filter="url(#f1gp02bngukmnj)" height="60.8047" id="TerminalExpression1" style="stroke: #A80036; stroke-width: 1.5;" width="197" x="6" y="128"/><ellipse cx="37.2" cy="144" fill="#ADD1B2" rx="11" ry="11" style="stroke: #A80036; stroke-width: 1.0;"/><path d="M40.1688,149.6406 Q39.5906,149.9375 38.95,150.0781 Q38.3094,150.2344 37.6063,150.2344 Q35.1063,150.2344 33.7781,148.5938 Q32.4656,146.9375 32.4656,143.8125 Q32.4656,140.6875 33.7781,139.0313 Q35.1063,137.375 37.6063,137.375 Q38.3094,137.375 38.95,137.5313 Q39.6063,137.6875 40.1688,137.9844 L40.1688,140.7031 Q39.5438,140.125 38.95,139.8594 Q38.3563,139.5781 37.7313,139.5781 Q36.3875,139.5781 35.7,140.6563 Q35.0125,141.7188 35.0125,143.8125 Q35.0125,145.9063 35.7,146.9844 Q36.3875,148.0469 37.7313,148.0469 Q38.3563,148.0469 38.95,147.7813 Q39.5438,147.5 40.1688,146.9219 L40.1688,149.6406 Z "/><text fill="#000000" font-family="sans-serif" font-size="12" lengthAdjust="spacingAndGlyphs" textLength="129" x="54.8" y="148.1543">TerminalExpression1</text><line style="stroke: #A80036; stroke-width: 1.5;" x1="7" x2="202" y1="160" y2="160"/><line style="stroke: #A80036; stroke-width: 1.5;" x1="7" x2="202" y1="168" y2="168"/><text fill="#000000" font-family="sans-serif" font-size="11" lengthAdjust="spacingAndGlyphs" textLength="185" x="12" y="182.2104">+interpret(Context context): void</text><!--MD5=[5f7845a96336dcb58c722e0b98025efb]
class NoneTerminalExpression2--><rect fill="#FEFECE" filter="url(#f1gp02bngukmnj)" height="60.8047" id="NoneTerminalExpression2" style="stroke: #A80036; stroke-width: 1.5;" width="197" x="202" y="250"/><ellipse cx="218.35" cy="266" fill="#ADD1B2" rx="11" ry="11" style="stroke: #A80036; stroke-width: 1.0;"/><path d="M221.3188,271.6406 Q220.7406,271.9375 220.1,272.0781 Q219.4594,272.2344 218.7563,272.2344 Q216.2563,272.2344 214.9281,270.5938 Q213.6156,268.9375 213.6156,265.8125 Q213.6156,262.6875 214.9281,261.0313 Q216.2563,259.375 218.7563,259.375 Q219.4594,259.375 220.1,259.5313 Q220.7563,259.6875 221.3188,259.9844 L221.3188,262.7031 Q220.6938,262.125 220.1,261.8594 Q219.5063,261.5781 218.8813,261.5781 Q217.5375,261.5781 216.85,262.6563 Q216.1625,263.7188 216.1625,265.8125 Q216.1625,267.9063 216.85,268.9844 Q217.5375,270.0469 218.8813,270.0469 Q219.5063,270.0469 220.1,269.7813 Q220.6938,269.5 221.3188,268.9219 L221.3188,271.6406 Z "/><text fill="#000000" font-family="sans-serif" font-size="12" lengthAdjust="spacingAndGlyphs" textLength="162" x="232.65" y="270.1543">NoneTerminalExpression2</text><line style="stroke: #A80036; stroke-width: 1.5;" x1="203" x2="398" y1="282" y2="282"/><line style="stroke: #A80036; stroke-width: 1.5;" x1="203" x2="398" y1="290" y2="290"/><text fill="#000000" font-family="sans-serif" font-size="11" lengthAdjust="spacingAndGlyphs" textLength="185" x="208" y="304.2104">+interpret(Context context): void</text><!--MD5=[6754354365917abf8f1a56af1b7e344c]
class Context--><rect fill="#FEFECE" filter="url(#f1gp02bngukmnj)" height="48" id="Context" style="stroke: #A80036; stroke-width: 1.5;" width="80" x="390.5" y="12.5"/><ellipse cx="405.5" cy="28.5" fill="#ADD1B2" rx="11" ry="11" style="stroke: #A80036; stroke-width: 1.0;"/><path d="M408.4688,34.1406 Q407.8906,34.4375 407.25,34.5781 Q406.6094,34.7344 405.9063,34.7344 Q403.4063,34.7344 402.0781,33.0938 Q400.7656,31.4375 400.7656,28.3125 Q400.7656,25.1875 402.0781,23.5313 Q403.4063,21.875 405.9063,21.875 Q406.6094,21.875 407.25,22.0313 Q407.9063,22.1875 408.4688,22.4844 L408.4688,25.2031 Q407.8438,24.625 407.25,24.3594 Q406.6563,24.0781 406.0313,24.0781 Q404.6875,24.0781 404,25.1563 Q403.3125,26.2188 403.3125,28.3125 Q403.3125,30.4063 404,31.4844 Q404.6875,32.5469 406.0313,32.5469 Q406.6563,32.5469 407.25,32.2813 Q407.8438,32 408.4688,31.4219 L408.4688,34.1406 Z "/><text fill="#000000" font-family="sans-serif" font-size="12" lengthAdjust="spacingAndGlyphs" textLength="48" x="419.5" y="32.6543">Context</text><line style="stroke: #A80036; stroke-width: 1.5;" x1="391.5" x2="469.5" y1="44.5" y2="44.5"/><line style="stroke: #A80036; stroke-width: 1.5;" x1="391.5" x2="469.5" y1="52.5" y2="52.5"/><!--MD5=[5b9dfb4a78f74fa86fc0dc9943f8e1b9]
reverse link Expression to TerminalExpression1--><path d="M202.4981,79.8436 C182.6907,95.7417 160.7018,113.3906 142.5802,127.9356 " fill="none" id="Expression&lt;-TerminalExpression1" style="stroke: #A80036; stroke-width: 1.0;"/><polygon fill="none" points="198.165,74.3456,218.144,67.2858,206.9283,85.2638,198.165,74.3456" style="stroke: #A80036; stroke-width: 1.0;"/><!--MD5=[4de48890a799bb79dc07c42fee531cf7]
reverse link Expression to NoneTerminalExpression2--><path d="M265.6296,87.1275 C274.4768,136.1893 287.607,209.0026 294.9726,249.8481 " fill="none" id="Expression&lt;-NoneTerminalExpression2" style="stroke: #A80036; stroke-width: 1.0;"/><polygon fill="none" points="258.7331,88.3276,262.0726,67.4028,272.5109,85.843,258.7331,88.3276" style="stroke: #A80036; stroke-width: 1.0;"/><!--MD5=[eb2b1f7d866d91787f4eb1e0fe7fe166]
link Expression to NoneTerminalExpression2--><path d="M277.7601,67.0635 C283.6837,76.4023 289.7812,86.8832 294.5,97 C317.9425,147.2594 322.2225,164.9513 315.5,220 C314.8212,225.5588 313.8038,231.3425 312.6126,237.033 " fill="none" id="Expression-&gt;NoneTerminalExpression2" style="stroke: #A80036; stroke-width: 1.0;"/><polygon fill="#FFFFFF" points="309.5948,249.9919,314.8514,245.0555,312.3166,238.3046,307.0599,243.241,309.5948,249.9919" style="stroke: #A80036; stroke-width: 1.0;"/><text fill="#000000" font-family="sans-serif" font-size="13" lengthAdjust="spacingAndGlyphs" textLength="28" x="319.5" y="163.0669">1...n</text><!--MD5=[a338080c420f8afb1593a416baad2b48]
reverse link Expression to Context--><path d="M360.3042,36.5 C370.3427,36.5 380.3812,36.5 390.4197,36.5 " fill="none" id="Expression&lt;-Context" style="stroke: #A80036; stroke-width: 1.0; stroke-dasharray: 7.0,7.0;"/><polygon fill="#A80036" points="355.0547,36.5,364.0547,40.5,360.0547,36.5,364.0547,32.5,355.0547,36.5" style="stroke: #A80036; stroke-width: 1.0;"/><!--MD5=[2e7b00cd67ce3c9b96891e435241389b]
@startuml 解释器
skinparam classAttributeIconSize 0

abstract class Expression {
  + interpret(Context context): void
}
class TerminalExpression1 extends Expression {
  + interpret(Context context): void
}
class NoneTerminalExpression2 extends Expression {
  + interpret(Context context): void
}
class Context {

}

Expression <. Context
Expression - - -o NoneTerminalExpression2: 1...n
@enduml

PlantUML version 1.2020.12(Sat Jun 06 10:54:15 UTC 2020)
(GPL source distribution)
Java Runtime: OpenJDK Runtime Environment
JVM: OpenJDK 64-Bit Server VM
Default Encoding: UTF-8
Language: en
Country: null
--></g></svg>